<?xml version="1.0" standalone="yes"?>
<svg xmlns="http://www.w3.org/2000/svg" width="303" height="388">
<path style="fill:#908b83; stroke:none;" d="M0 0L0 3L40 4C42.0033 15.5724 62.7501 1.80945 64 18L76 16.2577L95 20L94 29L99 29L99 32L92 33L92 34C107.928 33.2036 126.147 37.4668 142 39.7145C175.349 44.4427 210.298 50 244 50C243.49 41.3956 247.849 22.9459 258 22L258 16L272 16L272 17L264 17L264 18L292 16.0895L301.972 13.4275L303 0L0 0z"/>
<path style="fill:#7e6960; stroke:none;" d="M0 3L0 40L109 53.8657L140.91 55.8565L165.996 52.6805L179 61L179 62C171.475 60.03 166.457 61.8074 159 62.8958C153.969 63.6301 148.9 61.841 144.004 63.6134C130.01 68.6795 127.967 87.4277 128 100L127 100L124 96L122 107L123 107L125 99L126 99L127 119L129 118L130 120L130 121C125.95 124.558 130.053 132.427 131 137L132 137L131 129L132 129L133 133L136 133L134 125L138 137C145.615 132.831 150.292 133.78 153 142L159 144L160 144L174 140L170 149L159 152L158 147C155.518 148.328 153.452 152.601 150.776 152.968C144.304 153.857 135.055 144.19 133 139L132 139C133.52 145.989 137.536 151.467 143 156L144 156C150.217 154.422 158.117 158.198 164.91 156.428C176.314 153.457 182.155 135.337 183 125L182 125C179.17 134.793 170.685 132.757 163 136C161.654 128.133 160.144 127.006 152 127L152 131L144 127L143 130L141 130L137 115L133 117C129.656 107.795 124.617 93.0019 133 85L133 80C137.705 79.183 138.163 76.2687 137 72L138 71C154.434 78.1339 173.418 54.7868 187 74L188 74L185 68L191 70L193 84L192 84L192 82L191 82L191 107L192 107L195 91L200 93L197 92L198 141L199 141L199 118L200 118L201 153L203 154L207 153L207 96C215.644 96.6678 214.341 105.255 215.184 112C217.124 127.538 223.014 143.108 222 159L226 159L224 161C236.058 165.019 225.755 145.189 233 147L234 137L235 137C234.414 141.636 232.495 147.079 237 150L237 144L238 144L238 162L239 162L236.579 118L235.117 98.4337L245 95L245 93C238.747 88.7545 228.546 83.244 221 83C217.979 73.948 200.305 77.8992 193 74L197 74L200 70L199 74L211 74L211 73L207 73L207 72L212 72L211 67L210 67L210 70L200 70L200 64L207 64L206 54L197 55L200 51L195 51L195 50L256 53L256 52L251 51L251 50L283 48L284 48C287.279 43.2443 296.615 46.5804 301.397 42.0764C306.001 37.7394 303 20.0884 303 14L264 18L264 17L272 17L272 16L258 16L258 22C247.89 21.1453 242.708 41.8832 244 50C210.659 50 175.992 44.3921 143 39.7145C127.364 37.4977 107.529 32.2087 92 34L92 33L99 32L99 29L94 29L95 20L64 18C63.4536 1.55746 43.4841 15.0633 40 4L0 3M284 15L284 16L288 14L284 15z"/>
<path style="fill:#908b83; stroke:none;" d="M60 18L64 20L60 18M60 23L60 24L63 24L60 23M53 24L53 25L58 25L53 24M64 24L64 26L72 26L72 24L64 24M88 24L88 29L90 29L90 24L88 24M53 28L53 29L59 29L53 28M88 32L89 33L88 32z"/>
<path style="fill:#7e6960; stroke:none;" d="M108 32L109 33L108 32z"/>
<path style="fill:#44444e; stroke:none;" d="M79 36L80 37L79 36M80 45L88 46C91.3775 36.0823 80.892 34.3475 80 45M0 40L0 43L138 58C132.658 70.1239 119.958 86.1128 127 100L128 100C127.994 88.8513 129.811 74.2969 139.29 66.7538C147.461 60.2516 169.081 60.4027 179 62C164.459 45.1368 147.715 55.8712 129 54.9614C85.7927 52.861 43.0916 41.8505 0 40M30 41L30 42L33 42L30 41M302 42L284 48L283 48L274 47.9244L251 50L251 51L256 52L256 53L195 50L195 51L200 51L197 55L206 54L207 64L200 64L200 70C203.622 70 209.302 71.3733 210 67L211 67L212 72L207 72L207 73L211 73L211 74L199 74L200 70L197 74L193 74C200.744 79.8679 215.593 73.2469 221 83L245 93L245 95L234.643 98.4337L237.576 126L239 181L190 165L190 166L193 166L193 167L187 168L181 160C179.46 162.827 178.827 168.009 176.478 170.066C168.645 176.922 158.002 175.57 149 175.058C146.381 174.909 142.718 176.095 140.318 174.802C137.901 173.5 138.15 170.241 136.981 168.09C133.711 162.075 130.384 159.111 129 152L128 152C117.258 170.518 82.6954 174.227 64 182L64 176L63 176L60 179L60 180L63 180C39.3076 245.703 42 319.317 42 388L117 388L144.258 386.972L146.671 373L148 334L148.91 304L132 174L141 198C147.561 195.762 153.501 187.657 160.039 187.177C164.175 186.874 180.714 192.272 182.397 196.147C184.974 202.083 182.761 211.79 182.17 218C180.79 232.497 179.682 247.447 179.039 262C178.467 274.957 177.063 288.04 177.001 301C176.973 306.803 178.556 313.592 173 317L173 319C182.007 327.115 174.79 345.139 178 356L179 356L179 297L180 297L181 309L182 309L182 304L183 304L183 316L184 316L184 312L185 312C186.443 323.418 180.476 343.817 186 353L182 352L182 360L183 360L183 357L184 357L188 359L183 365L182 376L181 376L181 360L180 360L180 368L179 368L179 358L178 358L178 388L183 388L181 385L181 377L182 377L183 384L188 388L267 388C266.359 383.187 264.249 378.531 260 376L260 375C264.871 375.926 272.717 381.812 275 375L265 356L274.208 357.928L275.55 350L275 327C282.402 325.414 275.265 314.069 274 310L278 312L279 311L272 310L272 305L278 306L271.34 291L259 259L271 274L272 274L258.417 239L255.546 219L249 204L251 200L246 184C237.103 182.145 240 170.109 240 163C240 141.608 241 120.373 241 99L261.985 99.3164L275 94.2492L301 95L302 88L296 88L297 91L280 92L280 91L284 91L284 90L274 92L274 91L282 89L294 74L300 75L301 68L302 68L302 70L303 70L302 42z"/>
<path style="fill:#7e6960; stroke:none;" d="M0 43L0 80L36 83L37 157L0 155L0 173C8.70574 173 17.2793 173.996 26 174C29.414 174.002 33.928 173.388 36.3966 176.318C41.5437 182.427 38 202.221 38 210C38 242.277 40.5892 276.094 36 308L39 308L39 307L42 303L42 309L43 309C41.9414 297.726 44.8434 286.19 45.75 275C47.5472 252.817 50.069 231.758 55.8611 210C57.2275 204.867 63.5418 180.775 60 180L60 179L82 175.953L116 164L116 163L59 163L59 162L62 162L62 161L48 159L48 158C52.3638 152.239 47.3599 143.503 46.4282 137C44.1144 120.849 46.6191 106.837 48 91L50 92C49.9647 88.0835 49.2481 84.3252 54 84L54 81L64 80L64 81L60 81L60 82L120 84L120 85L106 87L106 88L113 87L116 87L115 89L118 99L119 99L118 87L126 90L138 58L0 43z"/>
<path style="fill:#44444e; stroke:none;" d="M288 44L288 45L293 44L288 44M150 44L150 45L163 46L150 44M8 46L9 47L8 46M155 47L155 48L158 48L155 47M172 47L172 48L176 48L172 47M55 51L57 53L55 51M183 56L184 57L183 56z"/>
<path style="fill:#908b83; stroke:none;" d="M138 71L137 72C137.769 76.178 137.247 78.6574 133 80L133 85C127.231 88.7494 129 96.877 129 103L130 103L130 97L131 97L132 109L131 109L130 105L129 105L133 117L137 115L141 130L143 130L144 127L152 131L152 127C159.847 127.028 160.969 128.88 163 136C170.684 133.564 180.358 134.921 182 125L183 125C181.629 135.135 175.608 153.938 163.961 156.353C159.033 157.375 147.029 153.378 144 156L143 156L133 145C134.624 149.687 133.69 157.996 139 159L149 166L149 165L142 161L152 158L152 159L150 160L153 161L159 157L160 160L169 156L169 163L177 154L170 158C177.42 147.22 184.945 135.897 188 123L187 123L186 125C182.213 120.85 177.784 127.312 177 131L173 128L175 133L164 132L165 129L162 126L176 125L177 121L169 122L165 120L165 121L172 123L172 124L146 123L148 119L143 120L152 110L155 111L154 109L155 109L157 110L158 110L162.333 104L163 95L164 95L170 105C168.337 107.794 168.4 109.898 171 112L171 113L167 113L167 114L168 117L177 120C175.278 116.61 173.807 115.674 170 116L173 113L171 107C176.603 109.232 181.684 106.062 187 104L185 98L176 96L176 97L185 103L178 103L178 104L180 105C174.281 106.096 167.552 103.638 168 97C164.897 88.3599 178.831 91.4807 183 93L183 92L163.015 92.0756L154 88L154 89C159.12 93.2668 159.062 99.7173 159 106L154 103C145.186 104.428 142.054 101.554 134 99C135.238 95.9522 135.003 92.1265 137.332 89.6342C141.971 84.6693 145.37 88.1455 150.715 87.2816C153.981 86.7536 156.56 84.4584 160 84L157 80L158 77L155 76L155 75C166.275 73.0895 178.19 64.3984 187 75C186.632 69.155 179.576 64.9358 174 65.2994C162.891 66.0237 148.767 74.613 138 71z"/>
<path style="fill:#44444e; stroke:none;" d="M184.333 66.6667L184.667 67.3333L184.333 66.6667M191 66L192 67L191 66z"/>
<path style="fill:#a79689; stroke:none;" d="M155 75L155 76L157 80L160 84L152 88C155.708 88.753 158.433 91.9268 162.039 92.4375C171.74 93.8114 182.706 84.713 187 100L184 99L187 104L171 107L173 113L170 116C175.513 116.53 177.065 119.824 176 125L162 126L165 129L164 132L175 133L173 128L177 131C178.608 126.46 182.067 122.697 187 125L189 124L189 116L190 116L191 118C193.722 106.536 195.393 74.139 180.985 69.0324C173.855 66.5051 161.984 73.1468 155 75z"/>
<path style="fill:#44444e; stroke:none;" d="M185 68L192 84L193 84L191 70L185 68z"/>
<path style="fill:#7e6960; stroke:none;" d="M301 68L300 75L294 74L282 89L274 91L274 92L284 90L284 91L280 91L280 92L297 91L296 88L302 88L301 95L274.001 94.2137L260.996 99.3125L248 99L248 100L252 100L253 107L255 107L257 103L259 107L260 107C261.024 100.578 266.565 100.528 272 99L272 147L273 147L273 139L274 139L274 143L278 144L278 148L285 150L288 147L291 142L286 182L292 172L293 172L281.174 201L275 213L272 186L271 186C267.819 187.689 261.277 189.301 267 193L266 188L268 192L268 193C271.737 197.932 269.439 207.047 269.13 213C268.375 227.6 269 242.38 269 257L267 257L261 218L258 219C252.714 206.116 253.72 187.277 240 181L246 184L251 200L249 204L255.5 219L258.333 240L272 274L271 274L259 259L271.34 292L278 306L272 305L272 310L279 311L278 312L274 310C275.234 315.396 281.249 322.948 275 327L275.247 349L274.103 357.574L265 356L275 375C271.6 380.848 265.27 375.568 260 375L260 376L267 388L294 388L293 384L299 384L294 356L297 357L298 356L297 340L296 340L296 355L295 355L294 330L295 330L295 334L296 334L295 301L300 324L301 324L301 300L295 300L295 260L294 260L293 268L292 268L293 255L292 258C296.157 257.114 295.937 252.734 296 249L289 253L289 257L288 257L286 251C281.629 251.794 278.274 253.127 279 258L283 256L284 261L286 260L287 263L288 263L289 260L290 260L290 268L284 273L283 265L282 265C281.936 270.391 280.983 272.683 276 275L276 276L283 279L275 278L270.71 258L272 213L282 215L280 218L280 219L280 223L280 224C285.046 223.94 287.893 223.306 289 218L286 217L286 216C292.613 215.485 293.315 209.586 295 204L296 204L295 211C297.904 208.462 297.904 202.538 295 200L295 199C304.324 185.601 303 168.473 303 153L302 153L300 155C308.551 137.929 302.862 108.848 302.997 89.9962C303.043 83.5212 304.825 73.5127 301 68z"/>
<path style="fill:#44444e; stroke:none;" d="M191 69L192 70L191 69M302 72L303 73L302 72z"/>
<path style="fill:#908b83; stroke:none;" d="M135 74L136 75L135 74z"/>
<path style="fill:#7e6960; stroke:none;" d="M188 75L189 76L188 75z"/>
<path style="fill:#908b83; stroke:none;" d="M188 76L189 77L188 76z"/>
<path style="fill:#7e6960; stroke:none;" d="M189 77L190 81L191 81L189 77z"/>
<path style="fill:#44444e; stroke:none;" d="M208.667 78.3333L209.333 78.6667L208.667 78.3333z"/>
<path style="fill:#908b83; stroke:none;" d="M189 79L190 80L189 79M0 80L0 155L37 157L36 83L0 80M54 81L54 84L49 86L70.8302 86.7145L117 91L116 87L113 87L114 89L106 88L106 87L120 85L120 84L60 82L60 81L64 81L54 81z"/>
<path style="fill:#7e6960; stroke:none;" d="M138.333 80.6667L138.667 81.3333L138.333 80.6667z"/>
<path style="fill:#908b83; stroke:none;" d="M190.333 81.6667L190.667 82.3333L190.333 81.6667M170.667 84.3333L171.333 84.6667L170.667 84.3333z"/>
<path style="fill:#a79689; stroke:none;" d="M50 85L50 91L59 90L59 91L52 91L52 92L72 93L72 94L69 94L69 95C77.4555 94.3327 92.8845 91.6093 100 97L102 96L117 98L102 95L102 94L117 95C115.906 88.4629 106.5 89.6906 101 88.706C84.8979 85.8235 66.3686 85 50 85z"/>
<path style="fill:#908b83; stroke:none;" d="M121 85L125 88L121 85M191 85L191 88L192 88L191 85z"/>
<path style="fill:#7e6960; stroke:none;" d="M134 99C141.398 102.33 145.618 105.46 154 103C154.654 106.054 156.007 105.936 159 106C159.145 101.439 159.769 95.2066 157.022 91.2284C153.203 85.6981 140.924 84.2637 136.606 89.6335C134.631 92.0903 134.965 96.0486 134 99z"/>
<path style="fill:#908b83; stroke:none;" d="M118 87L118 96L122 99C126.023 93.2111 124.88 88.5187 118 87z"/>
<path style="fill:#44444e; stroke:none;" d="M139 91L156 93C152.919 88.2589 142.637 85.8575 139 91M291 88L291 89L294 89L291 88z"/>
<path style="fill:#7e6960; stroke:none;" d="M119 89L123 95L121 89L119 89M299 89L300 90L299 89z"/>
<path style="fill:#cad1d1; stroke:none;" d="M51 90L51 91L59 91L51 90z"/>
<path style="fill:#a79689; stroke:none;" d="M121 91L121 92L124 92L124 91L121 91M130 90L130 96L131 96L130 90z"/>
<path style="fill:#908b83; stroke:none;" d="M48 91C45.2552 109.67 42.1166 130.625 49 149L50 149C49.0537 130.232 43.5767 108.257 52 91L48 91z"/>
<path style="fill:#cad1d1; stroke:none;" d="M61 91L61 92L69 92L61 91z"/>
<path style="fill:#908b83; stroke:none;" d="M120 91L121 92L120 91z"/>
<path style="fill:#cad1d1; stroke:none;" d="M122 91L123 92L122 91z"/>
<path style="fill:#7e6960; stroke:none;" d="M168 97C158.996 104.618 183.022 106.183 178 104L178 103L185 103L176 97L176 96L187 99C184.744 93.9913 181.653 91.3582 176 91.0432C171.766 90.8073 164.553 91.3581 168 97z"/>
<path style="fill:#908b83; stroke:none;" d="M195 91L193 103L195 101L196 101L199 104L197 92L200 93L195 91z"/>
<path style="fill:#7e6960; stroke:none;" d="M52 92L52 93L56 93L52 92z"/>
<path style="fill:#908b83; stroke:none;" d="M56 92L56 93L72 94L56 92z"/>
<path style="fill:#cad1d1; stroke:none;" d="M74 92L74 93L80 93L74 92z"/>
<path style="fill:#7e6960; stroke:none;" d="M124 92L124 95L125 95L124 92z"/>
<path style="fill:#44444e; stroke:none;" d="M170 93L170 94L182 95C179.101 91.4151 174.103 91.7985 170 93z"/>
<path style="fill:#908b83; stroke:none;" d="M209.667 92.3333L210.333 92.6667L209.667 92.3333z"/>
<path style="fill:#a79689; stroke:none;" d="M49 93L49 145L50 145L50 110L49 93z"/>
<path style="fill:#cad1d1; stroke:none;" d="M50 93L50 160L104 161L104 160L106 156L105 161C108.583 162.059 117.184 163.703 119.972 160.258C122.779 156.788 121 147.257 121 143L121 98L120 98L119 105L118 105L117 98L102 96C86.1642 99.7265 66.1994 93.6956 50 93z"/>
<path style="fill:#a79689; stroke:none;" d="M55 93L55 94L60 94L55 93z"/>
<path style="fill:#cad1d1; stroke:none;" d="M87 93L88 94L87 93M90 93L91 94L90 93z"/>
<path style="fill:#908b83; stroke:none;" d="M102 94L102 95L117 96L102 94M73 94L73 95L82 96L73 94z"/>
<path style="fill:#7e6960; stroke:none;" d="M81 94L83 96L83 94L81 94z"/>
<path style="fill:#908b83; stroke:none;" d="M83 96L87 96C85.4444 94.1871 84.5556 94.1871 83 96z"/>
<path style="fill:#44444e; stroke:none;" d="M120 94L121 95L120 94z"/>
<path style="fill:#908b83; stroke:none;" d="M200 94L200 95L204 95L200 94z"/>
<path style="fill:#a79689; stroke:none;" d="M80 95L81 96L80 95M84.6667 95.3333L85.3333 95.6667L84.6667 95.3333z"/>
<path style="fill:#7e6960; stroke:none;" d="M87 95L87 96L90 96L87 95z"/>
<path style="fill:#908b83; stroke:none;" d="M90 95L90 96L94 96L90 95z"/>
<path style="fill:#7e6960; stroke:none;" d="M94 95L94 96L98 96L94 95z"/>
<path style="fill:#908b83; stroke:none;" d="M97 97L100 95L97 97z"/>
<path style="fill:#44444e; stroke:none;" d="M140 97C143.918 98.1551 147.595 98.71 150 95L140 97M152 95C152.513 97.4752 152.604 97.5746 155 97L152 95z"/>
<path style="fill:#a79689; stroke:none;" d="M163 95C161.399 101.134 162.17 104.511 157 109L160 112L166 110L171 113L171 112L170 105L163 95z"/>
<path style="fill:#908b83; stroke:none;" d="M185 95L186 96L185 95z"/>
<path style="fill:#44444e; stroke:none;" d="M193 95L193 98L194 98L193 95z"/>
<path style="fill:#a79689; stroke:none;" d="M82 96L83 97L82 96M93 96L93 97L97 97L93 96M119 99C122.503 99 121 106.039 121 109L122 109L122 96L119 99z"/>
<path style="fill:#908b83; stroke:none;" d="M186.333 96.6667L186.667 97.3333L186.333 96.6667M207 96L207 140L208 140L209 123L210 123L210 127L211 127L212 125L217 128L220 150C224.953 138.192 216.194 121.96 215.09 110C214.466 103.248 215.28 96.2753 207 96M302 96L303 97L302 96M112 97L112 98L116 98L112 97z"/>
<path style="fill:#a79689; stroke:none;" d="M130 97L131 109L132 109L130 97z"/>
<path style="fill:#44444e; stroke:none;" d="M172 97L177 101L172 97z"/>
<path style="fill:#908b83; stroke:none;" d="M117 98L118 102L119 102L117 98z"/>
<path style="fill:#a79689; stroke:none;" d="M117 99L118 105L119 105L117 99z"/>
<path style="fill:#908b83; stroke:none;" d="M125 99L122 115L123 115L124 113L127 116L125 99M186 99L187 100L186 99z"/>
<path style="fill:#7e6960; stroke:none;" d="M241 101L246 100L241 101z"/>
<path style="fill:#908b83; stroke:none;" d="M260 107L259 107L257 103L255 107L253 107L252 100C236.637 100.002 239.865 115.151 243 127L244 127L244 120L246 120L246 125C250.148 122.767 250.79 119.513 251 115L252 115L253 118L257 118L259 117L260 122L257 121L257 172L258 172L261 161L262 164L263 164L260 158L262 152C265.456 151.568 265.387 148.182 266 145L263 144L269 113L267 111L271 101L272 101L272 128L273 128L272 99C266.289 100.178 260.527 100.235 260 107z"/>
<path style="fill:#44444e; stroke:none;" d="M179.667 100.333L180.333 100.667L179.667 100.333z"/>
<path style="fill:#908b83; stroke:none;" d="M301.667 100.333L302.333 100.667L301.667 100.333M191.333 101.667L191.667 102.333L191.333 101.667z"/>
<path style="fill:#44444e; stroke:none;" d="M192 101L193 102L192 101z"/>
<path style="fill:#a79689; stroke:none;" d="M195 101L194 106L196 104L197 104L197 107L198 107L195 101M242 101L243 102L242 101M271 101L269 113C264.208 116.107 266.886 121.192 266.687 126C266.477 131.058 264.952 139.302 263 144L266 145L262 152L260 158L263 164L262 164L261 161L258 172L257 172C257 159.298 257.044 146.667 257 134C256.985 129.792 254.829 123.022 260 122L259 117L257 118L257 115L253 118L252 115L251 115L246 125L246 120L244 120L244 127L243 127L242 122L241 122L244 169L252 152L248 166L252 165L255 175L252 176L252 178L255 182L256 182L256 174L259 183C262.874 177.793 261.05 172.052 261 166L262 166L263 172C266.401 168.612 266.043 165.145 264 161L267 162L268 156L269 156L269 183L271 183L272 125L271 101M301.667 101.333L302.333 101.667L301.667 101.333z"/>
<path style="fill:#908b83; stroke:none;" d="M301.667 102.333L302.333 102.667L301.667 102.333z"/>
<path style="fill:#a79689; stroke:none;" d="M212 103L213 104L212 103z"/>
<path style="fill:#cad1d1; stroke:none;" d="M193 104L180.613 141L176.657 156L162 174L178 169L181 155C187.592 162.478 198.463 169.655 209 167L202 154L200 154L197 157L197 104L196 104L193 104z"/>
<path style="fill:#7e6960; stroke:none;" d="M241.333 104.667L241.667 105.333L241.333 104.667z"/>
<path style="fill:#908b83; stroke:none;" d="M192 105L193 106L192 105z"/>
<path style="fill:#a79689; stroke:none;" d="M245 105L245 108L246 108L245 105M192.333 106.667L192.667 107.333L192.333 106.667z"/>
<path style="fill:#908b83; stroke:none;" d="M198.333 106.667L198.667 107.333L198.333 106.667z"/>
<path style="fill:#a79689; stroke:none;" d="M250.333 106.667L250.667 107.333L250.333 106.667M139 119C143.437 115.872 147.146 112.532 148 107C139.096 107.612 138.383 110.268 139 119z"/>
<path style="fill:#7e6960; stroke:none;" d="M152 109L155 108L152 109z"/>
<path style="fill:#908b83; stroke:none;" d="M191.333 107.667L191.667 108.333L191.333 107.667z"/>
<path style="fill:#a79689; stroke:none;" d="M150 108L151 109L150 108M154.667 109.333L155.333 109.667L154.667 109.333M213 109L213 112L214 112L213 109z"/>
<path style="fill:#7e6960; stroke:none;" d="M152 110L143 120L148 119L146 123L172 124L172 123L165 121L165 120L177 121L168 117L169 114C165.508 111.664 163.913 111.651 160 113L152 110z"/>
<path style="fill:#908b83; stroke:none;" d="M159 110L160 111L159 110M164.667 110.333L165.333 110.667L164.667 110.333M172.667 110.333L173.333 110.667L172.667 110.333z"/>
<path style="fill:#a79689; stroke:none;" d="M255 110L256 111L255 110M123 111L123 112L126 113L123 111z"/>
<path style="fill:#44444e; stroke:none;" d="M156.667 111.333L157.333 111.667L156.667 111.333z"/>
<path style="fill:#908b83; stroke:none;" d="M160 113L163 111L160 113M166 111L167 112L166 111z"/>
<path style="fill:#a79689; stroke:none;" d="M193 111L194 112L193 111M242.333 112.667L242.667 113.333L242.333 112.667M118 113L118 117L119 117L118 113M123 113L127 120L123 113z"/>
<path style="fill:#908b83; stroke:none;" d="M190.333 113.667L190.667 114.333L190.333 113.667z"/>
<path style="fill:#a79689; stroke:none;" d="M105.333 114.667L105.667 115.333L105.333 114.667M121.333 114.667L121.667 115.333L121.333 114.667z"/>
<path style="fill:#44444e; stroke:none;" d="M156 114L156 118L164 118L164 117L156 114z"/>
<path style="fill:#908b83; stroke:none;" d="M300.333 114.667L300.667 115.333L300.333 114.667z"/>
<path style="fill:#a79689; stroke:none;" d="M97 115L98 116L97 115z"/>
<path style="fill:#7e6960; stroke:none;" d="M122 115L122 159L128 152L129 152L129 155L130 155C130 142.745 130.814 124.667 122 115z"/>
<path style="fill:#a79689; stroke:none;" d="M193 115L194 116L193 115z"/>
<path style="fill:#cad1d1; stroke:none;" d="M124 116L125 117L124 116z"/>
<path style="fill:#908b83; stroke:none;" d="M189 116L189 120L190 120L189 116z"/>
<path style="fill:#a79689; stroke:none;" d="M209 116L209 120L210 120L209 116z"/>
<path style="fill:#908b83; stroke:none;" d="M126.333 117.667L126.667 118.333L126.333 117.667z"/>
<path style="fill:#a79689; stroke:none;" d="M212 117L212 120L213 120L212 117z"/>
<path style="fill:#908b83; stroke:none;" d="M268 117L269 118L268 117z"/>
<path style="fill:#a79689; stroke:none;" d="M99 118L100 119L99 118z"/>
<path style="fill:#908b83; stroke:none;" d="M124 118L125 119L124 118z"/>
<path style="fill:#44444e; stroke:none;" d="M128 118L130 121L128 118z"/>
<path style="fill:#908b83; stroke:none;" d="M199 118L199 147L197 155L198 155L200 155L202 152L199 118z"/>
<path style="fill:#a79689; stroke:none;" d="M121 119L121 159L122 159C122 147.566 125.411 129.512 121 119z"/>
<path style="fill:#908b83; stroke:none;" d="M127 119L126 125L127 125L127 119M150.667 119.333L151.333 119.667L150.667 119.333M160 119L161 120L160 119M123 120L123 124L124 124L123 120M188 120L189 121L188 120z"/>
<path style="fill:#a79689; stroke:none;" d="M193 120L193 125L194 125L193 120M214 120L215 128L216 128L216 120L214 120M169.667 121.333L170.333 121.667L169.667 121.333z"/>
<path style="fill:#908b83; stroke:none;" d="M252 121L254 125L252 121z"/>
<path style="fill:#a79689; stroke:none;" d="M127 122L127 126L128 126L127 122M143 122L141 126L143 122M209 123L207 151L209 149L210 149L212 152L216 150L221 157L217 128L212 125L211 127L210 127L209 123M262 124L262 126L264 124L262 124M93 125L94 126L93 125z"/>
<path style="fill:#44444e; stroke:none;" d="M134 125L136 133L133 133L132 129L131 129C131.355 137.254 139.68 157.315 151.586 153.288C153.998 152.472 155.983 148.625 158 147L159 152L170 149L174 140C168.866 140.299 163.048 139.175 160 144L159 144L153 142C150.916 133.69 145.366 131.702 138 137C137.951 132.582 137.678 127.872 134 125z"/>
<path style="fill:#a79689; stroke:none;" d="M187 125L187 128L188 128L187 125M258 125L259 126L258 125z"/>
<path style="fill:#908b83; stroke:none;" d="M127 126L129 130L129 137L130 137L127 126M231 127L233 135L234 135L235 126L231 127z"/>
<path style="fill:#7e6960; stroke:none;" d="M240 126L240 136L241 136L240 126z"/>
<path style="fill:#908b83; stroke:none;" d="M251 126L251 135L251 136L253 144L254 144L255 126L251 126z"/>
<path style="fill:#a79689; stroke:none;" d="M148 127L149 128L148 127z"/>
<path style="fill:#908b83; stroke:none;" d="M236 127L237 128L236 127z"/>
<path style="fill:#a79689; stroke:none;" d="M101 128L102 129L101 128M186.333 128.667L186.667 129.333L186.333 128.667z"/>
<path style="fill:#908b83; stroke:none;" d="M211 128L211 132L212 132L211 128M246 128L245 136L246 136C246.653 134.04 247 133.446 247 136L248 136L246 128z"/>
<path style="fill:#a79689; stroke:none;" d="M259 128L260 129L259 128M197 129L197 146L198 146L197 129z"/>
<path style="fill:#908b83; stroke:none;" d="M268.333 129.667L268.667 130.333L268.333 129.667z"/>
<path style="fill:#a79689; stroke:none;" d="M128 130L129 131L128 130M185 130L185 133L186 133L185 130z"/>
<path style="fill:#44444e; stroke:none;" d="M273 130L273 136L274 136L273 130z"/>
<path style="fill:#cad1d1; stroke:none;" d="M241 132L241 152L242 152L241 132z"/>
<path style="fill:#a79689; stroke:none;" d="M262 132L261 137L262 132M89.3333 133.667L89.6667 134.333L89.3333 133.667M184 134L185 135L184 134z"/>
<path style="fill:#908b83; stroke:none;" d="M216 134L216 137L217 137L216 134z"/>
<path style="fill:#a79689; stroke:none;" d="M95 135L97 138L97 135L95 135M105 135L106 136L105 135z"/>
<path style="fill:#908b83; stroke:none;" d="M235 135L236 136L235 135M123.667 136.333L124.333 136.667L123.667 136.333z"/>
<path style="fill:#a79689; stroke:none;" d="M130 136L130 153L131 153L134 150L134 153L136 153L130 136z"/>
<path style="fill:#908b83; stroke:none;" d="M240 136L240 142L241 142L240 136z"/>
<path style="fill:#a79689; stroke:none;" d="M92 137L93 140L94 140L94 137L92 137M107.667 137.333L108.333 137.667L107.667 137.333z"/>
<path style="fill:#908b83; stroke:none;" d="M131 137L132 138L131 137z"/>
<path style="fill:#a79689; stroke:none;" d="M182 137L183 138L182 137z"/>
<path style="fill:#908b83; stroke:none;" d="M234 137L233 147C225.749 148.003 234.758 161.809 224 161L226 159L222 159L221 153L221 164L222 164L222 160L223 160L224 171L223 171L223 168L222 168L224 172L223 175L238 180L238 144L237 144L237 150L234 137z"/>
<path style="fill:#a79689; stroke:none;" d="M102 139L101 141L103 141L102 139M260 139L260 142L263 141L263 140L260 139z"/>
<path style="fill:#44444e; stroke:none;" d="M273 139L271.434 191L275 213L280.727 203L293 172L292 172L286 182L291 142L288 147L285 150L278 148L278 144L274 143L273 139z"/>
<path style="fill:#a79689; stroke:none;" d="M180 140L181 141L180 140z"/>
<path style="fill:#908b83; stroke:none;" d="M130 141L130 149L131 149L130 141M132 141L132 144L133 144L132 141z"/>
<path style="fill:#a79689; stroke:none;" d="M88 142L88 147L89 147L90 142L88 142M91 142L92 143L91 142M179 142L179 145L180 145L179 142z"/>
<path style="fill:#7e6960; stroke:none;" d="M240.333 142.667L240.667 143.333L240.333 142.667z"/>
<path style="fill:#a79689; stroke:none;" d="M79.6667 143.333L80.3333 143.667L79.6667 143.333z"/>
<path style="fill:#908b83; stroke:none;" d="M91 143L92 144L91 143z"/>
<path style="fill:#a79689; stroke:none;" d="M94 143L95 144L94 143z"/>
<path style="fill:#908b83; stroke:none;" d="M236 143L237 144L236 143z"/>
<path style="fill:#a79689; stroke:none;" d="M67 144L68 145L67 144M91 144L92 145L91 144z"/>
<path style="fill:#7e6960; stroke:none;" d="M198 144L198 147L199 147L198 144z"/>
<path style="fill:#908b83; stroke:none;" d="M204 144L205 145L204 144M240 144L240 150L241 150L240 144z"/>
<path style="fill:#a79689; stroke:none;" d="M262 144L263 145L262 144M178 145L170 158L177 154L175 158C178.684 154.596 179.977 149.723 178 145z"/>
<path style="fill:#908b83; stroke:none;" d="M215 145L216 146L215 145M253 145L254 150L253 145z"/>
<path style="fill:#a79689; stroke:none;" d="M76 146L77 147L76 146z"/>
<path style="fill:#908b83; stroke:none;" d="M202.333 146.667L202.667 147.333L202.333 146.667M206 147L209 149L206 147M271 147L271 161L272 161L271 147z"/>
<path style="fill:#a79689; stroke:none;" d="M80.3333 148.667L80.6667 149.333L80.3333 148.667z"/>
<path style="fill:#908b83; stroke:none;" d="M215 148L216 149L215 148M248 148L248 152L249 152L250 148L248 148z"/>
<path style="fill:#a79689; stroke:none;" d="M82 149L83 150L82 149z"/>
<path style="fill:#908b83; stroke:none;" d="M123 149L123 157L127 152L124 153L123 149z"/>
<path style="fill:#cad1d1; stroke:none;" d="M209 149L206 158L210 157C207.677 161.545 209.115 163.8 214 165L212 170L212 171L219 173L218 169L222 171L216 150L212 152L209 149z"/>
<path style="fill:#908b83; stroke:none;" d="M211.667 149.333L212.333 149.667L211.667 149.333z"/>
<path style="fill:#a79689; stroke:none;" d="M85.3333 150.667L85.6667 151.333L85.3333 150.667z"/>
<path style="fill:#908b83; stroke:none;" d="M133 150L132 152L134 152L133 150z"/>
<path style="fill:#7e6960; stroke:none;" d="M151 150L150 153L151 150z"/>
<path style="fill:#908b83; stroke:none;" d="M206.333 150.667L206.667 151.333L206.333 150.667M217.333 150.667L217.667 151.333L217.333 150.667z"/>
<path style="fill:#a79689; stroke:none;" d="M240 150L240 172L241 172C242.326 165.751 243.748 155.486 240 150z"/>
<path style="fill:#44444e; stroke:none;" d="M302 150L300 155L302 150z"/>
<path style="fill:#a79689; stroke:none;" d="M66 151L67 152L66 151z"/>
<path style="fill:#cad1d1; stroke:none;" d="M131 151L139 175L156 173L156 172C149.698 168.505 140.261 159.45 133 160L131 151z"/>
<path style="fill:#7e6960; stroke:none;" d="M198 151L199 152L198 151z"/>
<path style="fill:#cad1d1; stroke:none;" d="M219.333 151.667L219.667 152.333L219.333 151.667z"/>
<path style="fill:#7e6960; stroke:none;" d="M232 151L233 152L232 151z"/>
<path style="fill:#908b83; stroke:none;" d="M242 151L240.153 177.981L249.08 189.005L258 219L261 218C257.475 230.095 264.94 244.836 267 257L269 257L270 193C263.485 191.962 264.867 187.539 271 188L269 184L271 184L269 156L268 156L267 162L264 161L266 163L263 172L262 166L261 166L259 183L256 174L256 182L255 182L252 178L252 176L255 175L253 173L252 165L248 166L252 152L244 169L242 151M48 152L49 153L48 152z"/>
<path style="fill:#a79689; stroke:none;" d="M132 152L133 160L136 159L132 152z"/>
<path style="fill:#7e6960; stroke:none;" d="M133 152L134 156L135 156L133 152z"/>
<path style="fill:#908b83; stroke:none;" d="M202 152L204 155L202 152M205 152L205 155L207 154L207 153L205 152z"/>
<path style="fill:#a79689; stroke:none;" d="M209 152L208 156L209 152z"/>
<path style="fill:#7e6960; stroke:none;" d="M198 153L197 156L198 153z"/>
<path style="fill:#a79689; stroke:none;" d="M200.667 153.333L201.333 153.667L200.667 153.333M204 153L205 154L204 153z"/>
<path style="fill:#7e6960; stroke:none;" d="M232 153L232 161L236 161L234 153L232 153M236.333 153.667L236.667 154.333L236.333 153.667z"/>
<path style="fill:#908b83; stroke:none;" d="M48 154L49 155L48 154z"/>
<path style="fill:#a79689; stroke:none;" d="M60 154L58 155L58 156L60 154M83.3333 154.667L83.6667 155.333L83.3333 154.667M87 154L87 157L88 157L87 154z"/>
<path style="fill:#908b83; stroke:none;" d="M133 154L134 155L133 154z"/>
<path style="fill:#a79689; stroke:none;" d="M202 154L203 155L202 154z"/>
<path style="fill:#cad1d1; stroke:none;" d="M204.333 154.667L204.667 155.333L204.333 154.667z"/>
<path style="fill:#a79689; stroke:none;" d="M206 154L207 155L206 154M181 155L182 156L181 155M199 155L200 156L199 155M203.333 155.667L203.667 156.333L203.333 155.667z"/>
<path style="fill:#7e6960; stroke:none;" d="M205.333 155.667L205.667 156.333L205.333 155.667z"/>
<path style="fill:#a79689; stroke:none;" d="M104 160L104 161L101 161L101 162L106 162L106 156C103.923 157.102 102.195 157.96 104 160M130.333 156.667L130.667 157.333L130.333 156.667z"/>
<path style="fill:#7e6960; stroke:none;" d="M135 156L137 158L135 156z"/>
<path style="fill:#a79689; stroke:none;" d="M168 156L160 160L159 157L153 161L152 159L152 158C147.733 157.754 144.606 157.213 142 161L149 165L149 166L140 162L140 163L156 172L156 173L148 173L148 174L158 177L158 176L155 176L155 175L164 175L162 173L175 158L169 163L168 156z"/>
<path style="fill:#908b83; stroke:none;" d="M181.667 156.333L182.333 156.667L181.667 156.333M197.667 156.333L198.333 156.667L197.667 156.333M204 156L206 162L207 162L208 159L204 156z"/>
<path style="fill:#44444e; stroke:none;" d="M299 156L293 172L294 172L299 156z"/>
<path style="fill:#908b83; stroke:none;" d="M49 157L48 159L49 157z"/>
<path style="fill:#a79689; stroke:none;" d="M85.3333 157.667L85.6667 158.333L85.3333 157.667z"/>
<path style="fill:#7e6960; stroke:none;" d="M181 157L187 168L193 167L193 166L190 166L190 165L192 165L192 164L181 157z"/>
<path style="fill:#a79689; stroke:none;" d="M183 157L184 158L183 157M209 157L206 158L206 159L209 157z"/>
<path style="fill:#7e6960; stroke:none;" d="M236.333 157.667L236.667 158.333L236.333 157.667z"/>
<path style="fill:#a79689; stroke:none;" d="M49.3333 158.667L49.6667 159.333L49.3333 158.667M88 158L89 159L88 158M108 158L108 160L110 160L110 158L108 158z"/>
<path style="fill:#908b83; stroke:none;" d="M130 158L131 159L130 158M183 158L184 159L183 158z"/>
<path style="fill:#a79689; stroke:none;" d="M204 158L205 159L204 158z"/>
<path style="fill:#908b83; stroke:none;" d="M121 159L122 160L121 159z"/>
<path style="fill:#7e6960; stroke:none;" d="M130 159L131 160L130 159z"/>
<path style="fill:#a79689; stroke:none;" d="M131 159L132 160L131 159M136 159L140 162L140 161L136 159z"/>
<path style="fill:#7e6960; stroke:none;" d="M138 159L139 160L138 159z"/>
<path style="fill:#a79689; stroke:none;" d="M140 159L141 160L140 159M180 159L181 160L180 159z"/>
<path style="fill:#908b83; stroke:none;" d="M184 159L185 160L184 159z"/>
<path style="fill:#a79689; stroke:none;" d="M201 159L202 160L201 159M212.333 159.667L212.667 160.333L212.333 159.667z"/>
<path style="fill:#908b83; stroke:none;" d="M50 160L50 161L62 161L62 162L59 162L59 163L68 161L50 160z"/>
<path style="fill:#a79689; stroke:none;" d="M68 160L68 161L79 161L68 160M80 160L80 161L83 161L80 160M84.6667 160.333L85.3333 160.667L84.6667 160.333z"/>
<path style="fill:#7e6960; stroke:none;" d="M121 160L122 161L121 160z"/>
<path style="fill:#908b83; stroke:none;" d="M131 160L132 161L131 160z"/>
<path style="fill:#a79689; stroke:none;" d="M134 160L139 165L134 160z"/>
<path style="fill:#908b83; stroke:none;" d="M180 160L181 161L180 160M185 160L188 163L185 160z"/>
<path style="fill:#a79689; stroke:none;" d="M205.333 160.667L205.667 161.333L205.333 160.667z"/>
<path style="fill:#7e6960; stroke:none;" d="M206 160L207 161L206 160M222 160L223 171L224 171L222 160z"/>
<path style="fill:#908b83; stroke:none;" d="M79.6667 161.333L80.3333 161.667L79.6667 161.333M82 161L82 162L96 163L82 161z"/>
<path style="fill:#a79689; stroke:none;" d="M95 161L95 162L100 162L95 161M119 161L120 162L119 161z"/>
<path style="fill:#7e6960; stroke:none;" d="M120 161L121 162L120 161M131 161L132 162L131 161z"/>
<path style="fill:#a79689; stroke:none;" d="M179 161L178 163L179 161z"/>
<path style="fill:#7e6960; stroke:none;" d="M180 161L181 162L180 161z"/>
<path style="fill:#a79689; stroke:none;" d="M197 161L197 162L200 162L197 161M207 161L211 165L211 164L207 161M215.333 161.667L215.667 162.333L215.333 161.667M218 161L220 166L218 161z"/>
<path style="fill:#7e6960; stroke:none;" d="M271 161L271 185L272 185L271 161z"/>
<path style="fill:#908b83; stroke:none;" d="M104 162L104 163L114 163L104 162z"/>
<path style="fill:#a79689; stroke:none;" d="M114 162L114 163L117 163L114 162z"/>
<path style="fill:#908b83; stroke:none;" d="M117 162L118 163L117 162z"/>
<path style="fill:#7e6960; stroke:none;" d="M118 162L119 163L118 162z"/>
<path style="fill:#a79689; stroke:none;" d="M132 162L135 165L132 162z"/>
<path style="fill:#7e6960; stroke:none;" d="M179 162L180 163L179 162z"/>
<path style="fill:#a79689; stroke:none;" d="M188 162L189 163L188 162z"/>
<path style="fill:#908b83; stroke:none;" d="M197 162L200 164L197 162z"/>
<path style="fill:#7e6960; stroke:none;" d="M199 162L200 163L199 162z"/>
<path style="fill:#44444e; stroke:none;" d="M35 163L37 165L37 163L35 163z"/>
<path style="fill:#7e6960; stroke:none;" d="M132 163L133 164L132 163z"/>
<path style="fill:#908b83; stroke:none;" d="M178 163L179 164L178 163z"/>
<path style="fill:#7e6960; stroke:none;" d="M181 163L182 164L181 163z"/>
<path style="fill:#908b83; stroke:none;" d="M189 163L190 164L189 163z"/>
<path style="fill:#a79689; stroke:none;" d="M190 163L191 164L190 163z"/>
<path style="fill:#7e6960; stroke:none;" d="M197 163L198 164L197 163M233 163L233 165L235 163L233 163M133 164L134 165L133 164z"/>
<path style="fill:#908b83; stroke:none;" d="M167 164L168 165L167 164z"/>
<path style="fill:#a79689; stroke:none;" d="M177 164L178 165L177 164z"/>
<path style="fill:#908b83; stroke:none;" d="M192 164L193 165L192 164z"/>
<path style="fill:#a79689; stroke:none;" d="M193 164L195 166L193 164M197 164L198 165L197 164M202.333 164.667L202.667 165.333L202.333 164.667z"/>
<path style="fill:#908b83; stroke:none;" d="M209 164L213 168L214 168L209 164z"/>
<path style="fill:#a79689; stroke:none;" d="M215 164L217 168L215 164M221 164L221 169L222 169L221 164z"/>
<path style="fill:#7e6960; stroke:none;" d="M230 164L230 168L231 168L230 164M238 164L238 172L239 172L238 164z"/>
<path style="fill:#908b83; stroke:none;" d="M135 165L138 168L135 165z"/>
<path style="fill:#a79689; stroke:none;" d="M136 165L137 166L136 165z"/>
<path style="fill:#908b83; stroke:none;" d="M177 165L178 166L177 165z"/>
<path style="fill:#7e6960; stroke:none;" d="M193 165L194 166L193 165z"/>
<path style="fill:#a79689; stroke:none;" d="M213 165L214 166L213 165M137 166L138 167L137 166M177 166L178 167L177 166z"/>
<path style="fill:#7e6960; stroke:none;" d="M182 166L181 168L183 168L182 166M195.667 166.333L196.333 166.667L195.667 166.333z"/>
<path style="fill:#908b83; stroke:none;" d="M197 166L198 167L197 166z"/>
<path style="fill:#a79689; stroke:none;" d="M198 166L198 167L206 169L206 168L198 166z"/>
<path style="fill:#7e6960; stroke:none;" d="M212 166L209 167L209 168C211.235 168.545 213.017 168.666 212 166z"/>
<path style="fill:#908b83; stroke:none;" d="M150 167L150 168L153 169L150 167z"/>
<path style="fill:#7e6960; stroke:none;" d="M178.333 167.667L178.667 168.333L178.333 167.667M199 167L200 168L199 167z"/>
<path style="fill:#a79689; stroke:none;" d="M208 167L210 170L208 167z"/>
<path style="fill:#7e6960; stroke:none;" d="M236 167L235 171L236 171L236 167M242 167L243 168L242 167z"/>
<path style="fill:#a79689; stroke:none;" d="M138.333 168.667L138.667 169.333L138.333 168.667z"/>
<path style="fill:#7e6960; stroke:none;" d="M202.667 168.333L203.333 168.667L202.667 168.333z"/>
<path style="fill:#908b83; stroke:none;" d="M206.667 168.333L207.333 168.667L206.667 168.333M209 168L210 169L209 168z"/>
<path style="fill:#a79689; stroke:none;" d="M213 168L211 171L213 168M177 169L178 170L177 169z"/>
<path style="fill:#7e6960; stroke:none;" d="M205 169L206 170L205 169M207 169L208 170L207 169z"/>
<path style="fill:#908b83; stroke:none;" d="M210.333 169.667L210.667 170.333L210.333 169.667z"/>
<path style="fill:#a79689; stroke:none;" d="M218 169L218 174L222 173L221 175L222 175L223 175L218 169z"/>
<path style="fill:#908b83; stroke:none;" d="M138.333 170.667L138.667 171.333L138.333 170.667z"/>
<path style="fill:#a79689; stroke:none;" d="M174 170L175 171L174 170z"/>
<path style="fill:#908b83; stroke:none;" d="M175 170L176 171L175 170z"/>
<path style="fill:#7e6960; stroke:none;" d="M176.667 170.333L177.333 170.667L176.667 170.333M208.667 170.333L209.333 170.667L208.667 170.333z"/>
<path style="fill:#a79689; stroke:none;" d="M171 171L172 172L171 171z"/>
<path style="fill:#908b83; stroke:none;" d="M172 171L173 172L172 171z"/>
<path style="fill:#7e6960; stroke:none;" d="M173 171L174 172L173 171M211.667 171.333L212.333 171.667L211.667 171.333z"/>
<path style="fill:#908b83; stroke:none;" d="M213 171L214 172L213 171z"/>
<path style="fill:#a79689; stroke:none;" d="M214 171L215 172L214 171z"/>
<path style="fill:#7e6960; stroke:none;" d="M138 172L138 175L139 175L138 172z"/>
<path style="fill:#908b83; stroke:none;" d="M159 172L160 173L159 172z"/>
<path style="fill:#a79689; stroke:none;" d="M168 172L169 173L168 172z"/>
<path style="fill:#908b83; stroke:none;" d="M169 172L170 173L169 172z"/>
<path style="fill:#7e6960; stroke:none;" d="M170 172L171 173L170 172M214 172L215 173L214 172z"/>
<path style="fill:#908b83; stroke:none;" d="M215 172L216 173L215 172z"/>
<path style="fill:#7e6960; stroke:none;" d="M223.333 172.667L223.667 173.333L223.333 172.667z"/>
<path style="fill:#908b83; stroke:none;" d="M0 173L0 175L11 174L11 175L0 176L0 181L32 177L32 176L16 176L16 175C25.0361 175 35.8601 172.166 36 184L35 184L34 179L33 179L16 181L16 182L35 184L34 270L33 270L33 268L32 268L33 280L32 280L29 279L32 280L29 305L31 307L28 307L37 309C36.1369 299.481 37.894 289.574 37.9961 280C38.2451 256.679 38 233.328 38 210C38 202.764 41.6506 180.857 36.3966 175.603C33.9707 173.178 29.1008 174 26 174C17.2815 173.999 8.71334 173 0 173z"/>
<path style="fill:#a79689; stroke:none;" d="M166 173L167 174L166 173z"/>
<path style="fill:#908b83; stroke:none;" d="M167 173L168 174L167 173z"/>
<path style="fill:#7e6960; stroke:none;" d="M168 173L169 174L168 173M216 173L217 174L216 173z"/>
<path style="fill:#908b83; stroke:none;" d="M217 173L218 174L217 173z"/>
<path style="fill:#cad1d1; stroke:none;" d="M220.667 173.333L221.333 173.667L220.667 173.333z"/>
<path style="fill:#a79689; stroke:none;" d="M0 175L0 176L11 175L0 175z"/>
<path style="fill:#7e6960; stroke:none;" d="M132 174L132 179L133 179L132 174z"/>
<path style="fill:#908b83; stroke:none;" d="M133 174L135 176L133 174z"/>
<path style="fill:#a79689; stroke:none;" d="M143 174L144 175L143 174z"/>
<path style="fill:#908b83; stroke:none;" d="M144.667 174.333L145.333 174.667L144.667 174.333z"/>
<path style="fill:#7e6960; stroke:none;" d="M146 174L146 175L153 175L146 174z"/>
<path style="fill:#908b83; stroke:none;" d="M153.333 174.667L153.667 175.333L153.333 174.667M164 174L165 175L164 174z"/>
<path style="fill:#7e6960; stroke:none;" d="M165 174L166 175L165 174M219 174L220 175L219 174z"/>
<path style="fill:#908b83; stroke:none;" d="M220 174L221 175L220 174z"/>
<path style="fill:#7e6960; stroke:none;" d="M231 174L234 177L231 174M238 174L238 180L226 177L226 178L239 181L238 174z"/>
<path style="fill:#a79689; stroke:none;" d="M16 175L16 176L32 176L32 177L0 181L0 264C19.7056 267.076 22.4095 294.293 26 310L30 309L28 307L31 307L31 304L29 305C31.1665 300.355 33.0906 281.706 29 279L32 280L33 280L32 268L33 268L33 270L34 270L35 184L16 182L16 181L33 179L34 179L35 184C40.0004 172.054 22.9379 175 16 175z"/>
<path style="fill:#908b83; stroke:none;" d="M65 175L65 176L68 176L65 175z"/>
<path style="fill:#a79689; stroke:none;" d="M133 175L135 200L137 200L137 196L140 200L152 197L153 193C150.009 194.24 147.219 196.531 144.093 197.37C134.135 200.043 137.677 178.386 133 175z"/>
<path style="fill:#7e6960; stroke:none;" d="M135 175L136 176L135 175z"/>
<path style="fill:#908b83; stroke:none;" d="M139 175L140 176L139 175z"/>
<path style="fill:#a79689; stroke:none;" d="M140 175L141 176L140 175z"/>
<path style="fill:#908b83; stroke:none;" d="M141 175L142 176L141 175z"/>
<path style="fill:#7e6960; stroke:none;" d="M142 175L143 176L142 175z"/>
<path style="fill:#cad1d1; stroke:none;" d="M155 175L155 176L160 176L155 175z"/>
<path style="fill:#7e6960; stroke:none;" d="M162 175L163 176L162 175M221 175L221 176L224 176L221 175M236 175L236 178L237 178L236 175z"/>
<path style="fill:#908b83; stroke:none;" d="M33.3333 176.667L33.6667 177.333L33.3333 176.667z"/>
<path style="fill:#a79689; stroke:none;" d="M64 176L65 181L75 177L64 176z"/>
<path style="fill:#908b83; stroke:none;" d="M75 176L76 177L75 176z"/>
<path style="fill:#7e6960; stroke:none;" d="M136 176L136 180L137 180L136 176M154 176L155 177L154 176z"/>
<path style="fill:#908b83; stroke:none;" d="M158 176L159 177L158 176z"/>
<path style="fill:#7e6960; stroke:none;" d="M159 176L159 177L162 177L159 176M224.667 176.333L225.333 176.667L224.667 176.333z"/>
<path style="fill:#908b83; stroke:none;" d="M73 177L74 178L73 177z"/>
<path style="fill:#7e6960; stroke:none;" d="M74 177L75 178L74 177z"/>
<path style="fill:#908b83; stroke:none;" d="M64 178L64 181L65 181L64 178M70 178L71 179L70 178z"/>
<path style="fill:#7e6960; stroke:none;" d="M71 178L72 179L71 178z"/>
<path style="fill:#908b83; stroke:none;" d="M133 178L133 184L134 184L133 178z"/>
<path style="fill:#a79689; stroke:none;" d="M265.333 178.667L265.667 179.333L265.333 178.667z"/>
<path style="fill:#908b83; stroke:none;" d="M68 179L69 180L68 179z"/>
<path style="fill:#7e6960; stroke:none;" d="M69 179L70 180L69 179z"/>
<path style="fill:#a79689; stroke:none;" d="M246 179L247 180L246 179z"/>
<path style="fill:#908b83; stroke:none;" d="M66 180L67 181L66 180z"/>
<path style="fill:#7e6960; stroke:none;" d="M67 180L68 181L67 180z"/>
<path style="fill:#a79689; stroke:none;" d="M241 180L242 181L241 180z"/>
<path style="fill:#7e6960; stroke:none;" d="M64.6667 181.333L65.3333 181.667L64.6667 181.333z"/>
<path style="fill:#908b83; stroke:none;" d="M135 181L135 184L136 184L135 181M302 181L301 183L302 181z"/>
<path style="fill:#a79689; stroke:none;" d="M246 182L249 185L246 182M253.333 182.667L253.667 183.333L253.333 182.667M302 182L301 184L302 182z"/>
<path style="fill:#7e6960; stroke:none;" d="M285 183L284 187L285 187L285 183z"/>
<path style="fill:#cad1d1; stroke:none;" d="M302 183L301 187L302 187L302 183z"/>
<path style="fill:#7e6960; stroke:none;" d="M133 184L133 187L134 187L133 184z"/>
<path style="fill:#a79689; stroke:none;" d="M259 184L259 189L260 189L259 184M269.667 184.333L270.333 184.667L269.667 184.333M300 185L298 193L299 193L300 190L303 192L303 185L302 185L300 185z"/>
<path style="fill:#908b83; stroke:none;" d="M57 186L55 201L59 186L57 186z"/>
<path style="fill:#7e6960; stroke:none;" d="M136.333 186.667L136.667 187.333L136.333 186.667z"/>
<path style="fill:#a79689; stroke:none;" d="M264.667 186.333L265.333 186.667L264.667 186.333M269 186L270 187L269 186z"/>
<path style="fill:#7e6960; stroke:none;" d="M156 189L165 188C161.911 186.704 158.307 186.359 156 189z"/>
<path style="fill:#a79689; stroke:none;" d="M253.333 187.667L253.667 188.333L253.333 187.667z"/>
<path style="fill:#908b83; stroke:none;" d="M134 188L134 191L135 191L134 188M136.333 188.667L136.667 189.333L136.333 188.667M157 188L157 189L163 189L157 188z"/>
<path style="fill:#a79689; stroke:none;" d="M163.667 188.333L164.333 188.667L163.667 188.333z"/>
<path style="fill:#908b83; stroke:none;" d="M165 188L166 189L165 188z"/>
<path style="fill:#7e6960; stroke:none;" d="M166 188L167 189L166 188z"/>
<path style="fill:#44444e; stroke:none;" d="M266 188L267 193L270 192L266 188z"/>
<path style="fill:#908b83; stroke:none;" d="M299 188L300 189L299 188z"/>
<path style="fill:#7e6960; stroke:none;" d="M154 189L155 190L154 189z"/>
<path style="fill:#908b83; stroke:none;" d="M155 189L156 190L155 189z"/>
<path style="fill:#a79689; stroke:none;" d="M154 190L157 194C156.856 191.338 156.181 190.364 159 190L154 190z"/>
<path style="fill:#cad1d1; stroke:none;" d="M156 190L157 194L155 191L152 192L152 197L140 200L137 196C134.826 213.589 141.54 232.516 143.715 250C146.02 268.525 148.702 287.362 149.625 306C150.041 314.399 147.265 323.674 149.43 332C150.45 335.925 153.378 339.288 155 343L150 338L149 338C148.968 349.682 144.889 364.704 148.815 376C152.72 387.238 163.09 392.474 170.525 380.41C172.817 376.691 172.212 371.246 173 367L174 367L175 373L176 373C176 356.636 180.881 331.126 172 317C178.855 312.545 176.987 292.785 177 285C177.048 254.94 182 225.128 182 195L156 190z"/>
<path style="fill:#a79689; stroke:none;" d="M166 189L168 191L166 189z"/>
<path style="fill:#908b83; stroke:none;" d="M167 189L168 190L167 189z"/>
<path style="fill:#7e6960; stroke:none;" d="M137 190L138 191L137 190z"/>
<path style="fill:#908b83; stroke:none;" d="M153 190L154 191L153 190M168 190L169 191L168 190z"/>
<path style="fill:#7e6960; stroke:none;" d="M169 190L170 191L169 190z"/>
<path style="fill:#908b83; stroke:none;" d="M298 190L299 191L298 190z"/>
<path style="fill:#cad1d1; stroke:none;" d="M300 190L298 200C303.04 197.861 304.105 193.905 300 190z"/>
<path style="fill:#7e6960; stroke:none;" d="M134 191L134 198L135 198L134 191z"/>
<path style="fill:#908b83; stroke:none;" d="M137.333 191.667L137.667 192.333L137.333 191.667M152 191L153 192L152 191z"/>
<path style="fill:#a79689; stroke:none;" d="M169 191C172.402 194.544 177.322 197.275 182 195L182 194L169 191z"/>
<path style="fill:#908b83; stroke:none;" d="M170 191L171 192L170 191z"/>
<path style="fill:#7e6960; stroke:none;" d="M171.667 191.333L172.333 191.667L171.667 191.333z"/>
<path style="fill:#908b83; stroke:none;" d="M151 192L152 193L151 192M172 192L172 193L179 195L172 192z"/>
<path style="fill:#7e6960; stroke:none;" d="M176 192L177 193L176 192z"/>
<path style="fill:#a79689; stroke:none;" d="M254 192L255 193L254 192z"/>
<path style="fill:#908b83; stroke:none;" d="M297.333 192.667L297.667 193.333L297.333 192.667z"/>
<path style="fill:#7e6960; stroke:none;" d="M138 193L139 194L138 193z"/>
<path style="fill:#908b83; stroke:none;" d="M150 193L151 194L150 193z"/>
<path style="fill:#7e6960; stroke:none;" d="M177 193L177 194L182 194L177 193z"/>
<path style="fill:#908b83; stroke:none;" d="M138 194L139 195L138 194M149 194L150 195L149 194z"/>
<path style="fill:#cad1d1; stroke:none;" d="M151 194L152 195L151 194z"/>
<path style="fill:#7e6960; stroke:none;" d="M182.333 194.667L182.667 195.333L182.333 194.667z"/>
<path style="fill:#a79689; stroke:none;" d="M297.333 194.667L297.667 195.333L297.333 194.667M300 194L302 197L300 194z"/>
<path style="fill:#7e6960; stroke:none;" d="M139 195L140 196L139 195M147 195L148 196L147 195z"/>
<path style="fill:#908b83; stroke:none;" d="M148 195L149 196L148 195z"/>
<path style="fill:#a79689; stroke:none;" d="M252 195L252 198L253 198L252 195z"/>
<path style="fill:#908b83; stroke:none;" d="M139 196L140 197L139 196z"/>
<path style="fill:#7e6960; stroke:none;" d="M145 196L146 197L145 196z"/>
<path style="fill:#908b83; stroke:none;" d="M146 196L147 197L146 196M182 196L182 209L183 209L182 196M297 196L298 201L297 196z"/>
<path style="fill:#7e6960; stroke:none;" d="M140 197L141 198L140 197M142.667 197.333L143.333 197.667L142.667 197.333z"/>
<path style="fill:#908b83; stroke:none;" d="M144 197L145 198L144 197z"/>
<path style="fill:#7e6960; stroke:none;" d="M275 197L276 198L275 197z"/>
<path style="fill:#908b83; stroke:none;" d="M141 198L142 199L141 198z"/>
<path style="fill:#a79689; stroke:none;" d="M155 198L155 201L156 201L155 198M302 198C295.502 202.05 297.235 208.194 296.925 215C296.27 229.363 296 243.609 296 258C296 262.901 294.101 272.593 298 276L298 277L298 278L296 278L298 283L296 282C297.573 285.564 299.148 286.559 303 287C301.916 270.169 303 252.881 303 236C303 231.099 304.899 221.407 301 218L303 214L299 212L302 212L302 206L299 205L302 198z"/>
<path style="fill:#908b83; stroke:none;" d="M135 200L135 203L136 203L135 200z"/>
<path style="fill:#cad1d1; stroke:none;" d="M302 200L299 205L302 206L302 212L299 212C300.476 218.747 304.613 204.535 302 200z"/>
<path style="fill:#a79689; stroke:none;" d="M161 201L161 202L164 204L165 204L161 201z"/>
<path style="fill:#cad1d1; stroke:none;" d="M298 201L298 204L299 204L298 201z"/>
<path style="fill:#7e6960; stroke:none;" d="M161 202L163 205L161 202z"/>
<path style="fill:#44444e; stroke:none;" d="M162 202L162 204L164 204L162 202z"/>
<path style="fill:#7e6960; stroke:none;" d="M163 202L164 203L163 202M135.333 203.667L135.667 204.333L135.333 203.667z"/>
<path style="fill:#a79689; stroke:none;" d="M138 203L138 206L139 206L138 203M136 204L136 207L137 207L136 204z"/>
<path style="fill:#908b83; stroke:none;" d="M161 204L162 205L161 204M163 204L164 205L163 204M295 204C292.821 209.219 292.31 214.994 286 216L286 217L289 218C287.344 222.713 284.852 223.842 280 224L280 223C281.813 221.444 281.813 220.556 280 219L280 218L282 215L272 213L275 278L283 279C282.204 275.284 279.363 276 276 276L276 275C281.597 273.187 281.98 270.561 282 265L283 265L284 273L290 268L290 260L289 260L288 263L287 263L286 260L284 261L283 256L279 258C279.202 253.51 281.931 252.214 286 251L288 257L289 257L289 253C291.736 252.223 294.39 251.139 295.268 248.07C296.021 245.437 294.096 242.73 294.429 239.985C295.228 233.393 300.714 215.993 295 211L295 204M136.333 207.667L136.667 208.333L136.333 207.667z"/>
<path style="fill:#cad1d1; stroke:none;" d="M298 207L300 210L298 207z"/>
<path style="fill:#908b83; stroke:none;" d="M52 208L52 214L53 214L54 208L52 208z"/>
<path style="fill:#7e6960; stroke:none;" d="M136 209L136 212L137 212L136 209M182 209L182 216L183 216L182 209z"/>
<path style="fill:#a79689; stroke:none;" d="M137 210L137 214L138 214L137 210z"/>
<path style="fill:#7e6960; stroke:none;" d="M251 212L252 213L251 212M294 212L296 214L296 212L294 212z"/>
<path style="fill:#908b83; stroke:none;" d="M137.333 214.667L137.667 215.333L137.333 214.667z"/>
<path style="fill:#7e6960; stroke:none;" d="M295 215L296 216L295 215z"/>
<path style="fill:#cad1d1; stroke:none;" d="M302 215L301 218L302 215z"/>
<path style="fill:#7e6960; stroke:none;" d="M137 216L137 220L138 220L137 216z"/>
<path style="fill:#a79689; stroke:none;" d="M138.333 218.667L138.667 219.333L138.333 218.667M181 218L181 222L182 222L181 218z"/>
<path style="fill:#908b83; stroke:none;" d="M138.333 220.667L138.667 221.333L138.333 220.667z"/>
<path style="fill:#7e6960; stroke:none;" d="M138 222L138 225L139 225L138 222z"/>
<path style="fill:#908b83; stroke:none;" d="M181 222L181 229L182 229L181 222z"/>
<path style="fill:#a79689; stroke:none;" d="M139.333 224.667L139.667 225.333L139.333 224.667z"/>
<path style="fill:#cad1d1; stroke:none;" d="M299.333 224.667L299.667 225.333L299.333 224.667z"/>
<path style="fill:#908b83; stroke:none;" d="M139.333 226.667L139.667 227.333L139.333 226.667z"/>
<path style="fill:#7e6960; stroke:none;" d="M139 228L139 231L140 231L139 228z"/>
<path style="fill:#a79689; stroke:none;" d="M140 229L140 232L141 232L140 229z"/>
<path style="fill:#7e6960; stroke:none;" d="M181 229L181 232L182 232L181 229z"/>
<path style="fill:#908b83; stroke:none;" d="M140.333 232.667L140.667 233.333L140.333 232.667z"/>
<path style="fill:#a79689; stroke:none;" d="M274.667 232.333L275.333 232.667L274.667 232.333M180 233L180 237L181 237L180 233z"/>
<path style="fill:#7e6960; stroke:none;" d="M140.333 234.667L140.667 235.333L140.333 234.667z"/>
<path style="fill:#a79689; stroke:none;" d="M141 235L141 238L142 238L141 235z"/>
<path style="fill:#7e6960; stroke:none;" d="M276 235L280 238L276 235M295 236L294 245L296 245L295 236z"/>
<path style="fill:#908b83; stroke:none;" d="M180 237L180 241L181 241L180 237M141.333 238.667L141.667 239.333L141.333 238.667z"/>
<path style="fill:#a79689; stroke:none;" d="M165 238L164 240L165 238z"/>
<path style="fill:#7e6960; stroke:none;" d="M165.667 239.333L166.333 239.667L165.667 239.333z"/>
<path style="fill:#a79689; stroke:none;" d="M167 239L167 242L168 242L167 239z"/>
<path style="fill:#7e6960; stroke:none;" d="M141 240L142 241L141 240z"/>
<path style="fill:#908b83; stroke:none;" d="M164 240L165 241L164 240z"/>
<path style="fill:#44444e; stroke:none;" d="M165.667 240.333L166.333 240.667L165.667 240.333z"/>
<path style="fill:#cad1d1; stroke:none;" d="M297.333 240.667L297.667 241.333L297.333 240.667M300 240L301 241L300 240z"/>
<path style="fill:#a79689; stroke:none;" d="M142.333 241.667L142.667 242.333L142.333 241.667M164 241L166 243L164 241z"/>
<path style="fill:#7e6960; stroke:none;" d="M165.667 241.333L166.333 241.667L165.667 241.333M180 241L180 246L181 246L180 241z"/>
<path style="fill:#908b83; stroke:none;" d="M142.333 243.667L142.667 244.333L142.333 243.667z"/>
<path style="fill:#7e6960; stroke:none;" d="M142 245L142 250L143 250L142 245z"/>
<path style="fill:#a79689; stroke:none;" d="M179 245L179 248L180 248L179 245z"/>
<path style="fill:#7e6960; stroke:none;" d="M287 246L284 247L284 248L287 246z"/>
<path style="fill:#cad1d1; stroke:none;" d="M297 248L297 249L300 249L297 248z"/>
<path style="fill:#a79689; stroke:none;" d="M143 248L143 252L144 252L143 248z"/>
<path style="fill:#908b83; stroke:none;" d="M179 248L179 252L180 252L179 248M12 251L11 256L19 259L18 251L12 251z"/>
<path style="fill:#7e6960; stroke:none;" d="M16 251C16.4901 255.022 17.0267 257.443 21 259L21 258L19 258L19 257L25 258C24.9199 251.239 22.6613 249.436 16 251z"/>
<path style="fill:#908b83; stroke:none;" d="M24 250L25 251L24 250z"/>
<path style="fill:#44444e; stroke:none;" d="M18.6667 251.333L19.3333 251.667L18.6667 251.333M23 251L24 252L23 251z"/>
<path style="fill:#cad1d1; stroke:none;" d="M297 251L297 266L298 266L297 251z"/>
<path style="fill:#7e6960; stroke:none;" d="M15 252L16 253L15 252z"/>
<path style="fill:#908b83; stroke:none;" d="M25 252L25 258L26 258L25 252z"/>
<path style="fill:#7e6960; stroke:none;" d="M141.333 252.667L141.667 253.333L141.333 252.667z"/>
<path style="fill:#908b83; stroke:none;" d="M143.333 252.667L143.667 253.333L143.333 252.667z"/>
<path style="fill:#7e6960; stroke:none;" d="M179 252L179 258L180 258L179 252z"/>
<path style="fill:#a79689; stroke:none;" d="M19 253L19 256L24 256L19 253z"/>
<path style="fill:#908b83; stroke:none;" d="M23 253L24 254L23 253z"/>
<path style="fill:#7e6960; stroke:none;" d="M143 254L143 258L144 258L143 254z"/>
<path style="fill:#908b83; stroke:none;" d="M295 254L292 258L293 255L292 268L293 268L294 260L295 260L295 267L296 267L295 254z"/>
<path style="fill:#7e6960; stroke:none;" d="M48 255L49 256L48 255z"/>
<path style="fill:#44444e; stroke:none;" d="M19 257L19 258L23 258L19 257z"/>
<path style="fill:#a79689; stroke:none;" d="M144 257L144 260L145 260L144 257z"/>
<path style="fill:#908b83; stroke:none;" d="M21 258L21 259L24 259L21 258z"/>
<path style="fill:#a79689; stroke:none;" d="M178 258L178 263L179 263L178 258z"/>
<path style="fill:#908b83; stroke:none;" d="M27 259L28 260L27 259M41 260L41 265L42 265L41 260M144.333 260.667L144.667 261.333L144.333 260.667M25 262L26 263L25 262z"/>
<path style="fill:#7e6960; stroke:none;" d="M144 262L144 266L145 266L144 262M284 262L283 264L285 264L284 262M141 263L142 267L143 267L141 263z"/>
<path style="fill:#908b83; stroke:none;" d="M178 263L178 267L179 267L178 263z"/>
<path style="fill:#7e6960; stroke:none;" d="M0 264L0 265L3 265L0 264z"/>
<path style="fill:#908b83; stroke:none;" d="M3 264L4 265L3 264z"/>
<path style="fill:#44444e; stroke:none;" d="M0 265L0 388L17 388C17.8839 381.006 16.1183 365.393 24 363L24 364L21 364L20 375L21 375L22 366L23 366C22.6673 370.221 20.9936 374.393 25 377L29 333L27 338L26 338L28 319L25 317C28.0889 316.611 27.597 314.84 27 312L31 312L31 311L24 310L24 305L17 305L15 297L21 295C18.7251 283.276 13.9048 266.433 0 265z"/>
<path style="fill:#7e6960; stroke:none;" d="M4 265L4 266L8 267L8 266L4 265z"/>
<path style="fill:#908b83; stroke:none;" d="M6 265L7 266L6 265M12 266L13 267L12 266z"/>
<path style="fill:#a79689; stroke:none;" d="M145.333 266.667L145.667 267.333L145.333 266.667z"/>
<path style="fill:#7e6960; stroke:none;" d="M8 267L10 269L8 267z"/>
<path style="fill:#908b83; stroke:none;" d="M9 267L10 268L9 267z"/>
<path style="fill:#7e6960; stroke:none;" d="M178 267L178 272L179 272L178 267M143 268L144 284L145 284L143 268z"/>
<path style="fill:#908b83; stroke:none;" d="M145 268L145 271L146 271L145 268z"/>
<path style="fill:#7e6960; stroke:none;" d="M277 268L277 272L278 272L277 268M10 269L11 270L10 269M11 270L12 271L11 270M12 271L19 288L20 288L12 271M145 271L145 278L146 278L145 271z"/>
<path style="fill:#908b83; stroke:none;" d="M13 272L14 273L13 272z"/>
<path style="fill:#a79689; stroke:none;" d="M177 272L177 276L178 276L177 272z"/>
<path style="fill:#908b83; stroke:none;" d="M14 273L15 274L14 273M15 274L16 275L15 274M20.3333 274.667L20.6667 275.333L20.3333 274.667z"/>
<path style="fill:#a79689; stroke:none;" d="M146 274L146 277L147 277L146 274z"/>
<path style="fill:#908b83; stroke:none;" d="M16.3333 275.667L16.6667 276.333L16.3333 275.667M295 275L295 278L296 278L295 275M177 276L177 282L178 282L177 276z"/>
<path style="fill:#cad1d1; stroke:none;" d="M296 276L296 278L298 278L298 276L296 276z"/>
<path style="fill:#908b83; stroke:none;" d="M17 277L17 280L18 280L17 277M146 277L146 280L147 280L146 277z"/>
<path style="fill:#a79689; stroke:none;" d="M168 277L168 278L171 281L172 281L168 277z"/>
<path style="fill:#7e6960; stroke:none;" d="M168.333 278.667L168.667 279.333L168.333 278.667z"/>
<path style="fill:#44444e; stroke:none;" d="M169 278L169 280L171 280L169 278z"/>
<path style="fill:#7e6960; stroke:none;" d="M170 278L171 279L170 278z"/>
<path style="fill:#cad1d1; stroke:none;" d="M300 278L299 281L302 281L300 278z"/>
<path style="fill:#908b83; stroke:none;" d="M287 279L288 280L287 279M26 280L28 283L28 280L26 280z"/>
<path style="fill:#7e6960; stroke:none;" d="M146 280L146 286L147 286L146 280z"/>
<path style="fill:#a79689; stroke:none;" d="M168.667 280.333L169.333 280.667L168.667 280.333z"/>
<path style="fill:#908b83; stroke:none;" d="M170 280L171 281L170 280M276 280L277 281L276 280M296 280L298 283L296 280M18.3333 281.667L18.6667 282.333L18.3333 281.667z"/>
<path style="fill:#7e6960; stroke:none;" d="M177 282L177 294L178 294L177 282z"/>
<path style="fill:#908b83; stroke:none;" d="M277 282L278 283L277 282M295.333 282.667L295.667 283.333L295.333 282.667z"/>
<path style="fill:#cad1d1; stroke:none;" d="M301.333 282.667L301.667 283.333L301.333 282.667z"/>
<path style="fill:#908b83; stroke:none;" d="M19.3333 283.667L19.6667 284.333L19.3333 283.667z"/>
<path style="fill:#cad1d1; stroke:none;" d="M296 283C295.626 287.744 292.993 295.498 297 299L296 296L298 298L299 298L301 296L302 300L303 300L303 287L296 283z"/>
<path style="fill:#a79689; stroke:none;" d="M147 284L147 287L148 287L147 284z"/>
<path style="fill:#7e6960; stroke:none;" d="M229.667 284.333L230.333 284.667L229.667 284.333z"/>
<path style="fill:#908b83; stroke:none;" d="M278 284L279 285L278 284z"/>
<path style="fill:#a79689; stroke:none;" d="M295 284L295 288L296 288L295 284z"/>
<path style="fill:#908b83; stroke:none;" d="M298 284L300 286L300 284L298 284z"/>
<path style="fill:#a79689; stroke:none;" d="M229 285L230 290L231 290L229 285z"/>
<path style="fill:#908b83; stroke:none;" d="M230 285L231 286L230 285M302 285L303 286L302 285z"/>
<path style="fill:#7e6960; stroke:none;" d="M145 286L146 287L145 286z"/>
<path style="fill:#908b83; stroke:none;" d="M147.333 287.667L147.667 288.333L147.333 287.667z"/>
<path style="fill:#cad1d1; stroke:none;" d="M229 287L229 304L230 304L229 287z"/>
<path style="fill:#908b83; stroke:none;" d="M20 288L21 289L20 288z"/>
<path style="fill:#7e6960; stroke:none;" d="M231.333 288.667L231.667 289.333L231.333 288.667M0 289L0 293L1 293L0 289M20 289L20 293L21 293L20 289M147 289L147 292L148 292L147 289M228.333 289.667L228.667 290.333L228.333 289.667z"/>
<path style="fill:#908b83; stroke:none;" d="M230 290L233 306L234 306C233.986 300.896 234.53 293.197 230 290M228 291L228 295L229 295L228 291z"/>
<path style="fill:#7e6960; stroke:none;" d="M230.333 291.667L230.667 292.333L230.333 291.667M232 291L233 292L232 291z"/>
<path style="fill:#908b83; stroke:none;" d="M21 292L21 295L22 295L21 292z"/>
<path style="fill:#a79689; stroke:none;" d="M148.333 292.667L148.667 293.333L148.333 292.667M176 293L176 307L177 307L176 293z"/>
<path style="fill:#7e6960; stroke:none;" d="M83 294L84 299L85 299L83 294z"/>
<path style="fill:#908b83; stroke:none;" d="M148.333 294.667L148.667 295.333L148.333 294.667z"/>
<path style="fill:#7e6960; stroke:none;" d="M231 294L231 299L232 299L231 294M15 297L17 305L24 308L25 308L21 301L24 301C22.2713 295.665 20.1525 294.87 15 297z"/>
<path style="fill:#cad1d1; stroke:none;" d="M83 295L82 306L83 306L83 295z"/>
<path style="fill:#7e6960; stroke:none;" d="M181 295L181 300L182 300L181 295z"/>
<path style="fill:#a79689; stroke:none;" d="M228 295L229 296L228 295z"/>
<path style="fill:#7e6960; stroke:none;" d="M233 295L233 298L234 298L233 295z"/>
<path style="fill:#908b83; stroke:none;" d="M26 296L28 299L26 296z"/>
<path style="fill:#7e6960; stroke:none;" d="M82 296L83 297L82 296M148 296L148 301L149 301L148 296z"/>
<path style="fill:#908b83; stroke:none;" d="M228 296L228 302L229 302L228 296z"/>
<path style="fill:#a79689; stroke:none;" d="M296 296L295 299L295 300L301 299L302 306L303 306L301 296L299 298L298 298L296 296M302 296L303 297L302 296M82 297L83 298L82 297z"/>
<path style="fill:#7e6960; stroke:none;" d="M179 297L179 356L177 355L177 359L179 358L179 368L180 368L180 360L181 360L181 376L182 376L183 365L186 366L188 359L184 357L183 357L183 360L182 360L182 352L186 353L185 312L184 312L184 316L183 316L183 304L182 304L182 309L181 309L179 297z"/>
<path style="fill:#44444e; stroke:none;" d="M21.3333 298.667L21.6667 299.333L21.3333 298.667z"/>
<path style="fill:#908b83; stroke:none;" d="M23.3333 298.667L23.6667 299.333L23.3333 298.667z"/>
<path style="fill:#a79689; stroke:none;" d="M230 299L230 318L231 318L230 299z"/>
<path style="fill:#908b83; stroke:none;" d="M299.667 299.333L300.333 299.667L299.667 299.333z"/>
<path style="fill:#a79689; stroke:none;" d="M33 300L34 301L33 300z"/>
<path style="fill:#7e6960; stroke:none;" d="M231 300L233 335L232 335L229 302L228 302C228 314.662 229.117 326.5 229.757 339C230.041 344.547 229.809 351.046 236 353L236 329L237 329L240 335L235 301L234 301L234 306L233 306L233 300L231 300z"/>
<path style="fill:#908b83; stroke:none;" d="M301 300L301 303L302 303L301 300M21 301C21.6624 304.15 23.3376 304.15 24 301L21 301z"/>
<path style="fill:#a79689; stroke:none;" d="M83 301L83 312L84 312L83 301z"/>
<path style="fill:#44444e; stroke:none;" d="M295 301L298 356L297 357L294 356L299 384L293 384L294 388L303 388L302 318L301 318L301 324L300 324L295 301z"/>
<path style="fill:#7e6960; stroke:none;" d="M264 302L271 308L271 304L264 302z"/>
<path style="fill:#a79689; stroke:none;" d="M31.6667 303.333L32.3333 303.667L31.6667 303.333z"/>
<path style="fill:#908b83; stroke:none;" d="M39 303L38 305L39 303z"/>
<path style="fill:#a79689; stroke:none;" d="M40.6667 303.333L41.3333 303.667L40.6667 303.333z"/>
<path style="fill:#908b83; stroke:none;" d="M24 304L25 305L24 304z"/>
<path style="fill:#a79689; stroke:none;" d="M34 304L35 305L34 304z"/>
<path style="fill:#cad1d1; stroke:none;" d="M39 304L39 305L42 305L39 304z"/>
<path style="fill:#a79689; stroke:none;" d="M149 304L149 310L150 310L149 304z"/>
<path style="fill:#44444e; stroke:none;" d="M38 305L41 307L41 306L38 305z"/>
<path style="fill:#7e6960; stroke:none;" d="M39 305L40 306L39 305z"/>
<path style="fill:#908b83; stroke:none;" d="M40.6667 305.333L41.3333 305.667L40.6667 305.333M302 306L302 309L303 309L302 306M25 307L25 310L26 310L25 307z"/>
<path style="fill:#a79689; stroke:none;" d="M31.6667 307.333L32.3333 307.667L31.6667 307.333z"/>
<path style="fill:#908b83; stroke:none;" d="M39 307L40 308L39 307z"/>
<path style="fill:#a79689; stroke:none;" d="M40 307L41 308L40 307z"/>
<path style="fill:#908b83; stroke:none;" d="M41 307L42 308L41 307M83 307L84 308L83 307M176 307L176 313L177 313L176 307M231 307L232 335L233 335L231 307z"/>
<path style="fill:#a79689; stroke:none;" d="M37 308L38 309L37 308z"/>
<path style="fill:#cad1d1; stroke:none;" d="M28 309L28 310C33.5898 311.475 37.7002 312.652 42 308L28 309M82 308L82 314L83 314L82 308z"/>
<path style="fill:#7e6960; stroke:none;" d="M24 309L25 310L24 309z"/>
<path style="fill:#a79689; stroke:none;" d="M32 309L32 310L36 310L32 309M41 309L42 310L41 309M302.333 309.667L302.667 310.333L302.333 309.667z"/>
<path style="fill:#7e6960; stroke:none;" d="M25 310L25 311L29 311L25 310z"/>
<path style="fill:#908b83; stroke:none;" d="M29 310L30 311L29 310z"/>
<path style="fill:#a79689; stroke:none;" d="M30 310L31 311L30 310z"/>
<path style="fill:#908b83; stroke:none;" d="M40 310L32 312L32 322L32 318L31 318L32 327L36 326L35 328L40 326L38 324L41 324L40 310z"/>
<path style="fill:#7e6960; stroke:none;" d="M41 310C41 322.27 31.7001 331.181 36 343L37 343C36.9492 336.859 33.8403 329.632 41 327L38 357L40 356L40 361L41 361L42.0748 323L41 310M81 310L82 311L81 310z"/>
<path style="fill:#44444e; stroke:none;" d="M181 310L181 313L182 313L181 310z"/>
<path style="fill:#908b83; stroke:none;" d="M229 310L229 314L230 314L229 310z"/>
<path style="fill:#7e6960; stroke:none;" d="M24 311L26 314L24 311M31 311L27 312C27.4076 314.581 28.1909 317 25 317L28 319L26 338L27 338L29 333L27 351L29 353L30 353L29 337L30 337L30 344L31 344L32 336L31 311z"/>
<path style="fill:#a79689; stroke:none;" d="M32 311L33 312L32 311M37.6667 311.333L38.3333 311.667L37.6667 311.333z"/>
<path style="fill:#7e6960; stroke:none;" d="M39 311L40 312L39 311M148 311L148 328L149 328L148 311z"/>
<path style="fill:#908b83; stroke:none;" d="M233 311L234 312L233 311z"/>
<path style="fill:#cad1d1; stroke:none;" d="M302.333 311.667L302.667 312.333L302.333 311.667z"/>
<path style="fill:#a79689; stroke:none;" d="M33 312L33 313L36 313L33 312z"/>
<path style="fill:#7e6960; stroke:none;" d="M37 312L38 313L37 312z"/>
<path style="fill:#908b83; stroke:none;" d="M83 312L84 313L83 312z"/>
<path style="fill:#7e6960; stroke:none;" d="M0 313L0 317L1 317L0 313M83 313L84 314L83 313M176 313L176 316L177 316L176 313z"/>
<path style="fill:#a79689; stroke:none;" d="M302 313L302 319L303 319L302 313M82 314L82 317L83 317L82 314M175 314L176 315L175 314z"/>
<path style="fill:#908b83; stroke:none;" d="M235 314L235 317L236 317L235 314M175 315L176 316L175 315z"/>
<path style="fill:#44444e; stroke:none;" d="M180 315L181 316L180 315M29 316L30 317L29 316z"/>
<path style="fill:#908b83; stroke:none;" d="M173 316L174 317L173 316z"/>
<path style="fill:#7e6960; stroke:none;" d="M174 316L175 317L174 316z"/>
<path style="fill:#a79689; stroke:none;" d="M32 317L32 322L35 321L32 317z"/>
<path style="fill:#908b83; stroke:none;" d="M82 317L82 320L83 320L82 317z"/>
<path style="fill:#a79689; stroke:none;" d="M172.333 317.667L172.667 318.333L172.333 317.667z"/>
<path style="fill:#44444e; stroke:none;" d="M182 318L183 319L182 318M29 319L29 322L30 322L29 319z"/>
<path style="fill:#908b83; stroke:none;" d="M173 319L174 320L173 319z"/>
<path style="fill:#44444e; stroke:none;" d="M299 319L300 320L299 319z"/>
<path style="fill:#908b83; stroke:none;" d="M302 319L302 322L303 322L302 319z"/>
<path style="fill:#7e6960; stroke:none;" d="M82.3333 320.667L82.6667 321.333L82.3333 320.667z"/>
<path style="fill:#a79689; stroke:none;" d="M174 320L176 322L174 320z"/>
<path style="fill:#908b83; stroke:none;" d="M175 320L176 321L175 320z"/>
<path style="fill:#7e6960; stroke:none;" d="M176 321L176 344L177 344L176 321z"/>
<path style="fill:#44444e; stroke:none;" d="M183 321L183 326L184 326L183 321z"/>
<path style="fill:#7e6960; stroke:none;" d="M24 322L24 330L25 330L26 322L24 322z"/>
<path style="fill:#44444e; stroke:none;" d="M181.333 322.667L181.667 323.333L181.333 322.667z"/>
<path style="fill:#7e6960; stroke:none;" d="M302 322L302 327L303 327L302 322z"/>
<path style="fill:#a79689; stroke:none;" d="M33 323L38 326L38 325L37 323L33 323M39 323L38 325L40 325L39 323z"/>
<path style="fill:#908b83; stroke:none;" d="M238 323L239 324L238 323z"/>
<path style="fill:#44444e; stroke:none;" d="M28 325L28 332L29 332L28 325z"/>
<path style="fill:#a79689; stroke:none;" d="M175 325L176 326L175 325M31 326L32 329L36 326L31 326z"/>
<path style="fill:#908b83; stroke:none;" d="M30 327L30 337L31 337L31 332L32 332L33 336L34 336L35 332L32 329L35 331L30 327z"/>
<path style="fill:#44444e; stroke:none;" d="M38 346L39 346L41 327C33.205 328.701 36.2683 340.154 38 346z"/>
<path style="fill:#908b83; stroke:none;" d="M148 328L149 329L148 328z"/>
<path style="fill:#7e6960; stroke:none;" d="M32 329L33 333L34 333L32 329M148 329L149 330L148 329z"/>
<path style="fill:#908b83; stroke:none;" d="M148 330L148 333L149 333L148 330M294 330L294 333L295 333L294 330z"/>
<path style="fill:#a79689; stroke:none;" d="M34 331L35 332L34 331M31 332L36 344L31 332z"/>
<path style="fill:#7e6960; stroke:none;" d="M148 333L148 338L149 338L148 333z"/>
<path style="fill:#a79689; stroke:none;" d="M149 333C149.456 337.766 150.531 340.773 155 343L149 333M294 333L294 352L295 352L294 333z"/>
<path style="fill:#908b83; stroke:none;" d="M295 334L295 339L296 339L295 334z"/>
<path style="fill:#7e6960; stroke:none;" d="M23 335L25 340L23 335z"/>
<path style="fill:#908b83; stroke:none;" d="M149 335L150 336L149 335M29 337L29 350L30 350L29 337M232 337L233 338L232 337z"/>
<path style="fill:#44444e; stroke:none;" d="M31 338L29 356L30 356L32 351L33 351L27 377L28 377C33.7943 364.757 40.2809 350.407 31 338z"/>
<path style="fill:#908b83; stroke:none;" d="M32 338L33 339L32 338M148 338L148 341L149 341L148 338z"/>
<path style="fill:#7e6960; stroke:none;" d="M238 338L235 363L236 372C242.718 367.645 241.364 345.347 240 338L238 338M32 339L33 340L32 339z"/>
<path style="fill:#908b83; stroke:none;" d="M34 339L35 340L34 339M33 340L34 341L33 340z"/>
<path style="fill:#7e6960; stroke:none;" d="M33.3333 341.667L33.6667 342.333L33.3333 341.667z"/>
<path style="fill:#908b83; stroke:none;" d="M35 341L36 342L35 341z"/>
<path style="fill:#a79689; stroke:none;" d="M148 341L148 347L149 347L148 341z"/>
<path style="fill:#44444e; stroke:none;" d="M183 341L183 344L184 344L183 341z"/>
<path style="fill:#7e6960; stroke:none;" d="M25 342L25 350L23 345L22 345L22 356L23 356L23 352C27.1931 351.473 26.9842 344.993 25 342z"/>
<path style="fill:#908b83; stroke:none;" d="M295 342L295 345L296 345L295 342M36 343L35 347L36 347L36 343M39.3333 343.667L39.6667 344.333L39.3333 343.667z"/>
<path style="fill:#a79689; stroke:none;" d="M155.333 343.667L155.667 344.333L155.333 343.667z"/>
<path style="fill:#908b83; stroke:none;" d="M232.333 343.667L232.667 344.333L232.333 343.667z"/>
<path style="fill:#44444e; stroke:none;" d="M25 344L26 345L25 344z"/>
<path style="fill:#7e6960; stroke:none;" d="M34.3333 344.667L34.6667 345.333L34.3333 344.667z"/>
<path style="fill:#908b83; stroke:none;" d="M176 344L176 354L177 354L176 344z"/>
<path style="fill:#a79689; stroke:none;" d="M36 345L36 348L37 348L36 345z"/>
<path style="fill:#7e6960; stroke:none;" d="M37 345L37 349L38 349L37 345z"/>
<path style="fill:#a79689; stroke:none;" d="M39 345L37 358L38 358L39 345z"/>
<path style="fill:#7e6960; stroke:none;" d="M35 347L35 350L36 350L35 347z"/>
<path style="fill:#908b83; stroke:none;" d="M36 348L36 351L38 350L38 349L36 348M38 348L39 349L38 348z"/>
<path style="fill:#7e6960; stroke:none;" d="M213 348L213 351L214 351L215 348L213 348z"/>
<path style="fill:#908b83; stroke:none;" d="M295 348L295 355L296 355L295 348M39 349L40 350L39 349z"/>
<path style="fill:#7e6960; stroke:none;" d="M147 349L147 355L148 355L147 349z"/>
<path style="fill:#908b83; stroke:none;" d="M28.3333 350.667L28.6667 351.333L28.3333 350.667z"/>
<path style="fill:#a79689; stroke:none;" d="M174 350L174 356L175 356L174 350z"/>
<path style="fill:#44444e; stroke:none;" d="M24 351L25 352L24 351z"/>
<path style="fill:#7e6960; stroke:none;" d="M32 351L33 352L32 351M36 351L36 357L37 357L36 351M27 352L25 377L23 366L22 366L21 375L20 375L21 364L24 364L24 363C16.1091 364.317 17.5242 381.358 17 388L23 388L23 384L24 384L24 388L26 388L27 377L29 370C24.1458 370 29.9459 357.67 31 355L28 357L27 352z"/>
<path style="fill:#a79689; stroke:none;" d="M28 352L29 353L28 352M32 352L32 357L33 357L32 352z"/>
<path style="fill:#908b83; stroke:none;" d="M38 352L39 353L38 352M28 353L28 357L29 357L28 353M31 353L32 354L31 353z"/>
<path style="fill:#a79689; stroke:none;" d="M295 353L296 354L295 353M176 354L176 359L177 359L176 354z"/>
<path style="fill:#cad1d1; stroke:none;" d="M31 355L29 365L30 365L31 355z"/>
<path style="fill:#908b83; stroke:none;" d="M147 355L147 361L148 361L147 355M30 356L31 357L30 356M39 356L36 357L39 361L39 356z"/>
<path style="fill:#7e6960; stroke:none;" d="M184 356L185 357L184 356z"/>
<path style="fill:#908b83; stroke:none;" d="M280 356L281 357L280 356z"/>
<path style="fill:#7e6960; stroke:none;" d="M0 357L0 362L1 362L2 357L0 357z"/>
<path style="fill:#a79689; stroke:none;" d="M30 357L31 358L30 357z"/>
<path style="fill:#908b83; stroke:none;" d="M32.3333 357.667L32.6667 358.333L32.3333 357.667M29 358L28 360L29 358z"/>
<path style="fill:#7e6960; stroke:none;" d="M35 358L37 364L38 364L38 359L35 358z"/>
<path style="fill:#a79689; stroke:none;" d="M174.333 358.667L174.667 359.333L174.333 358.667M29 359L29 367L30 367L29 359z"/>
<path style="fill:#7e6960; stroke:none;" d="M32.3333 359.667L32.6667 360.333L32.3333 359.667z"/>
<path style="fill:#a79689; stroke:none;" d="M36 359L37 360L36 359M39 359L38 378L39 378L39 359z"/>
<path style="fill:#908b83; stroke:none;" d="M176 359L177 360L176 359z"/>
<path style="fill:#7e6960; stroke:none;" d="M209.333 359.667L209.667 360.333L209.333 359.667M23 360L26 362L26 361L23 360z"/>
<path style="fill:#a79689; stroke:none;" d="M31.3333 360.667L31.6667 361.333L31.3333 360.667M35 360L35 363L36 363L35 360M176 360L176 373L175 373L174 367L173 367C170.936 375.67 171.261 385.49 160 387L160 388L177 388L176 360z"/>
<path style="fill:#908b83; stroke:none;" d="M280 362L285 361L280 362z"/>
<path style="fill:#7e6960; stroke:none;" d="M34 361L35 362L34 361z"/>
<path style="fill:#908b83; stroke:none;" d="M40.3333 361.667L40.6667 362.333L40.3333 361.667z"/>
<path style="fill:#a79689; stroke:none;" d="M147 361L149 388L150 388L150 384L151 384L151 388L155 388L148.498 374L147 361z"/>
<path style="fill:#7e6960; stroke:none;" d="M31 362L32 363L31 362z"/>
<path style="fill:#908b83; stroke:none;" d="M34.3333 362.667L34.6667 363.333L34.3333 362.667z"/>
<path style="fill:#44444e; stroke:none;" d="M36 362L31 381C36.9718 376.652 38.9111 368.938 36 362z"/>
<path style="fill:#908b83; stroke:none;" d="M38 362L37 366L38 362M289 362L290 363L289 362z"/>
<path style="fill:#a79689; stroke:none;" d="M30 363L31 364L30 363z"/>
<path style="fill:#7e6960; stroke:none;" d="M35.3333 363.667L35.6667 364.333L35.3333 363.667z"/>
<path style="fill:#908b83; stroke:none;" d="M280 363L277 378L278 378L280 377L280 370L285 371C286.267 366.203 284.814 364.029 280 363M30 364L31 365L30 364z"/>
<path style="fill:#7e6960; stroke:none;" d="M33 364L32 368L33 368L33 364z"/>
<path style="fill:#a79689; stroke:none;" d="M34.3333 364.667L34.6667 365.333L34.3333 364.667z"/>
<path style="fill:#7e6960; stroke:none;" d="M299 364L300 365L299 364M30 365L31 366L30 365z"/>
<path style="fill:#44444e; stroke:none;" d="M272 365L272 368L274 368L274 365L272 365z"/>
<path style="fill:#908b83; stroke:none;" d="M27.3333 366.667L27.6667 367.333L27.3333 366.667z"/>
<path style="fill:#cad1d1; stroke:none;" d="M28.3333 366.667L28.6667 367.333L28.3333 366.667z"/>
<path style="fill:#908b83; stroke:none;" d="M33 366L30 380L31 380L35 366L33 366z"/>
<path style="fill:#a79689; stroke:none;" d="M37.3333 366.667L37.6667 367.333L37.3333 366.667z"/>
<path style="fill:#7e6960; stroke:none;" d="M38.3333 366.667L38.6667 367.333L38.3333 366.667z"/>
<path style="fill:#908b83; stroke:none;" d="M288.667 366.333L289.333 366.667L288.667 366.333M29 367L30 368L29 367z"/>
<path style="fill:#7e6960; stroke:none;" d="M34 367L35 368L34 367M233.667 367.333L234.333 367.667L233.667 367.333M24.3333 368.667L24.6667 369.333L24.3333 368.667z"/>
<path style="fill:#a79689; stroke:none;" d="M27 368L27 370L29 368L27 368z"/>
<path style="fill:#908b83; stroke:none;" d="M37 368L38 372L39 372L37 368M28 369L29 370L28 369z"/>
<path style="fill:#7e6960; stroke:none;" d="M31.3333 369.667L31.6667 370.333L31.3333 369.667M33.3333 369.667L33.6667 370.333L33.3333 369.667z"/>
<path style="fill:#908b83; stroke:none;" d="M27 370L28 371L27 370z"/>
<path style="fill:#7e6960; stroke:none;" d="M37 370L30 383L35 379L34 388L37 388L37 370z"/>
<path style="fill:#908b83; stroke:none;" d="M40 370L40 373L41 373L40 370z"/>
<path style="fill:#7e6960; stroke:none;" d="M30.3333 371.667L30.6667 372.333L30.3333 371.667M146 371L146 374L147 374L146 371M32 372L33 373L32 372z"/>
<path style="fill:#cad1d1; stroke:none;" d="M39 372L37 388L41 388L39 372z"/>
<path style="fill:#7e6960; stroke:none;" d="M177 372L177 380L178 380L177 372M29.3333 373.667L29.6667 374.333L29.3333 373.667z"/>
<path style="fill:#a79689; stroke:none;" d="M40.3333 373.667L40.6667 374.333L40.3333 373.667z"/>
<path style="fill:#7e6960; stroke:none;" d="M236 373L236 379L237 379L236 373M23.3333 374.667L23.6667 375.333L23.3333 374.667M31 374L32 375L31 374M41 374L41 383L42 383L41 374z"/>
<path style="fill:#44444e; stroke:none;" d="M20 376L20 387L21 387L20 376z"/>
<path style="fill:#a79689; stroke:none;" d="M29.3333 376.667L29.6667 377.333L29.3333 376.667z"/>
<path style="fill:#7e6960; stroke:none;" d="M184.667 376.333L185.333 376.667L184.667 376.333M146 377L146 381L147 381L146 377M181 377L181 385L183 388L188 388C187.409 384.586 186.467 383.645 183 384L181 377z"/>
<path style="fill:#cad1d1; stroke:none;" d="M29 378L28 382L29 382L29 378z"/>
<path style="fill:#908b83; stroke:none;" d="M37 378L37 382L38 382L37 378z"/>
<path style="fill:#7e6960; stroke:none;" d="M188 378L188 382L192 380L188 378z"/>
<path style="fill:#44444e; stroke:none;" d="M24 379L24 382L25 382L24 379z"/>
<path style="fill:#908b83; stroke:none;" d="M28 379L27 381L28 379z"/>
<path style="fill:#a79689; stroke:none;" d="M34 379L30 384C32.7548 382.995 34.6813 382.113 34 379z"/>
<path style="fill:#44444e; stroke:none;" d="M36.3333 379.667L36.6667 380.333L36.3333 379.667z"/>
<path style="fill:#a79689; stroke:none;" d="M28 380L29 381L28 380z"/>
<path style="fill:#cad1d1; stroke:none;" d="M176.333 380.667L176.667 381.333L176.333 380.667z"/>
<path style="fill:#908b83; stroke:none;" d="M177 380L177 388L178 388L177 380z"/>
<path style="fill:#a79689; stroke:none;" d="M27 384L30 381L28 381L27 384z"/>
<path style="fill:#908b83; stroke:none;" d="M146 381L146 384L147 384L146 381z"/>
<path style="fill:#cad1d1; stroke:none;" d="M147 381L146 388C149.876 387.165 148.797 383.74 147 381z"/>
<path style="fill:#908b83; stroke:none;" d="M26 382L26 388L27 388L30 388L35 387L35 386L33 387L33 386L35 382L29 382L28 384L26 382z"/>
<path style="fill:#a79689; stroke:none;" d="M37 382L37 387L38 387L37 382z"/>
<path style="fill:#908b83; stroke:none;" d="M41 383L41 388L42 388L41 383z"/>
<path style="fill:#cad1d1; stroke:none;" d="M149 383L150 384L149 383z"/>
<path style="fill:#908b83; stroke:none;" d="M275 383L277 385L277 383L275 383z"/>
<path style="fill:#44444e; stroke:none;" d="M23 384L23 388L24 388L23 384z"/>
<path style="fill:#a79689; stroke:none;" d="M146.333 384.667L146.667 385.333L146.333 384.667z"/>
<path style="fill:#cad1d1; stroke:none;" d="M150 384L150 388L151 388L150 384z"/>
<path style="fill:#a79689; stroke:none;" d="M33 385L33 387L35 385L33 385z"/>
<path style="fill:#7e6960; stroke:none;" d="M27 386L27 388L30 388L30 386L27 386M145.333 386.667L145.667 387.333L145.333 386.667z"/>
<path style="fill:#a79689; stroke:none;" d="M32 387L33 388L32 387z"/>
<path style="fill:#44444e; stroke:none;" d="M35 387L36 388L35 387z"/>
<path style="fill:#cad1d1; stroke:none;" d="M152 387L153 388L152 387z"/>
<path style="fill:#908b83; stroke:none;" d="M275 387L276 388L275 387z"/>
</svg>
