<?xml version="1.0" standalone="yes"?>
<svg xmlns="http://www.w3.org/2000/svg" width="303" height="388">
<path style="fill:#2f1a0e; stroke:none;" d="M0 0L0 3L112 3L112 4C105.295 6.14099 100.328 11.2979 94.8302 15.4992C83.644 24.0479 72.2722 32.4932 62.1551 42.277C56.0666 48.165 48.4468 50.062 50 60L42 73L43 77L46 76L42 93L45 94L46 102L46 109L48 114L49 114L49 112L50 112C47.5849 132.766 65.062 153.728 67.9522 173.999C69.1009 182.057 58.218 190.914 70 197L73 193L75 207L76 207L72 172L70 172C72.9449 162.037 70.9993 149.369 71 139C71.0003 133.742 72.6305 128.122 72.2438 123C71.6317 114.891 68.4114 106.194 69.8364 97.9962C71.5974 87.8661 75.5115 75.1642 87 73C87 61.6993 102.551 68 108 68L108 71L114 72L112 74L116 73L125 79L127 77L128 77L137 80L137 81L134 82L134 84L135 85L147 87L146 84C160.293 89.4878 170.505 85.6046 185 81L184 78L186 75L192 75C198.001 82.1328 209.661 77.3542 211 69L220.581 70.8318L230 83C227.891 85.7381 231.109 96.0932 235 96L237 113L234 114C239.456 136.762 244.264 160.104 243.996 184C243.82 199.75 240 215.141 240 231L241 231L245 217L245 216L245 215L243 215L246 187L248 187L247 195L248 195C252.886 183.87 244.753 171.678 246.289 160C248.812 140.822 249.986 122.625 250.291 103C250.424 94.4147 251.707 85.5268 249.443 77C243.073 53.0076 219.838 30.8509 200.04 17.5857C194.013 13.5475 190.847 6.92233 184 4L184 3L303 3L303 0L0 0z"/>
<path style="fill:#cbc0ac; stroke:none;" d="M0 3C0 82.125 13.7568 160.259 20.0856 239C21.6953 259.027 24.4754 278.966 26.0856 299C26.5728 305.061 29.7514 314.855 26 320L26 321C44.0597 317.225 71.8718 310.881 80 293L68 304L68 299L70 298L70 297C65.456 291.002 65.0009 271.787 65 264L64 264L63 276L65 275L65 276L65 297L64 297L63 285C55.045 277.298 56.9788 255.658 55 245L54 245C55.2857 261.286 56.1377 277.652 57.5 294C57.87 298.44 59.6824 307.624 56 310L38.2593 135L34.6157 93.7407L32 81L29 39L26 38L28 33L24 33L25 26L23 28L20 22L20 29L18 29L18 24L14 23L14 16L10 17C12.3571 11.197 13.9368 7.26059 6 7L6 6L14 6L0 3z"/>
<path style="fill:#c69a7b; stroke:none;" d="M6 3L6 4L14 5L14 6L6 6L6 7C13.6497 7.58392 11.4284 11.4578 10 17L14 16L14 23L18 24L18 29L20 29L20 22L23 23C22.2486 25.4553 22.0459 28.0509 25 26L24 33L28 33L26 38L29 39L32 81L34.3333 94L38 135L49 243L56 310L59 309L54 245L55 245C56.1787 254.327 57.8189 263.658 58.8341 273C59.3211 277.481 58.8965 282.37 63 285L64 297L65 297L65 275L63 276L64 264L65 264C65 272.409 65.283 291.266 70 298L68 299L68 300L68 304L82 292L81 289L85 285L87 285L86 283L88 283L96 273L96 278L97 278L94 269L96 269L95 266L93 268L88 256L87 247L86 247L87 255L84 246L80 247L81 244L78 245L79 238L76 240L74 224C63.9254 214.277 61.6839 202.697 58.0255 190C56.2974 184.003 52.9216 178.231 52.0509 172.039C50.8241 163.314 47.1155 148.693 61 154L54 137L54 132L50 121L44 112L44 103L40 79L42 68L39 65L39 64L41 62L43 63L44 60L40 60L41 53L46 54L46 49L47 48L51 49L50 45L57 47L53 41C57.5174 31.0661 51.0073 13.9818 51 3L6 3z"/>
<path style="fill:#cbc0ac; stroke:none;" d="M10 3L10 4L16 4L10 3z"/>
<path style="fill:#b67057; stroke:none;" d="M51 3L53 41L56 42L56 48L58 43L57 43L58 45L57 45L57 39L62 40L66 38L67 34C71.2643 34.0821 73.813 32.6635 76 29L72 32L76 21L75 24L78 19L77 18L71 20C73.9695 16.8723 75.9786 16.4578 80 18L81 18L83 16L82 19L84 22L85 22L84 13L75 14L75 13C78.5639 11.4272 79.5588 9.85202 80 6L75 9L73 11L76 8L76 7L72 6L69 10L74 14L72 14L72 15L74 15L74 16L68 18L71 13L65 16L63 10L66 10L66 7L61 8C59.1988 3.47531 55.5138 3.19742 51 3z"/>
<path style="fill:#8a542d; stroke:none;" d="M56 3L56 4L61 8L66 7L63 10L65 16L71 13L68 18L74 16L74 15L72 14L74 14L69 10L72 6L76 7L76 8L75 9L80 6L75 13L75 14L84 13L85 22L84 22L82 19L83 16L81 18L80 18C76.4359 15.5253 73.3312 16.469 71 20L77 18L78 19L75 24L76 21L72 32L76 29L75 32L112 4L112 3C102.392 3.49509 83.7739 -0.889526 76 5L56 3z"/>
<path style="fill:#b67057; stroke:none;" d="M75 3L75 5L77 3L75 3M108 3L109 4L108 3z"/>
<path style="fill:#8a542d; stroke:none;" d="M184 3L184 4C189.648 7.55878 192.954 13.0693 198.188 16.9491C217.996 31.6306 244.401 53.0941 249.664 79C252.822 94.5498 249.999 112.19 250 128C250 133.689 248.335 143.394 252 148L252 145C255.001 149.051 252.391 152.198 250 156L253 155L253 162L254 162L254 154L255 154L256 165C252.655 164.981 250.35 173 255 173L255 181L256 181L256 177L259 179L261 173L256 174L255 169L256 169L256 172L265 170L266 173L272 171L272 170L267 170L274 169L274 168L272 168L272 167L277 167L277 166L274 165L274 164L283 166L283 161L286 165L288 165L288 160L289 160L291 163L292 156L293 156L293 163L298 156L303 157L303 3L184 3M55 4L56 5L55 4z"/>
<path style="fill:#b67057; stroke:none;" d="M68.3333 4.66666L68.6667 5.33334L68.3333 4.66666z"/>
<path style="fill:#8a542d; stroke:none;" d="M55 6L56 7L55 6z"/>
<path style="fill:#b67057; stroke:none;" d="M85 6L86 7L85 6M82 8L83 9L82 8M88 8L89 9L88 8M90 8L91 9L90 8z"/>
<path style="fill:#8a542d; stroke:none;" d="M107 9L106 11L107 9z"/>
<path style="fill:#b67057; stroke:none;" d="M192 9L193 10L192 9z"/>
<path style="fill:#cbc0ac; stroke:none;" d="M19 11L20 12L19 11z"/>
<path style="fill:#c69a7b; stroke:none;" d="M6.66667 14.3333L7.33333 14.6667L6.66667 14.3333z"/>
<path style="fill:#8a542d; stroke:none;" d="M80 14L80 16L82 16L80 14M100.333 14.6667L100.667 15.3333L100.333 14.6667M76 15L77 16L76 15M65 16L66 17L65 16z"/>
<path style="fill:#b67057; stroke:none;" d="M86.3333 16.6667L86.6667 17.3333L86.3333 16.6667z"/>
<path style="fill:#8a542d; stroke:none;" d="M105 16L101 23L102 23L105 16z"/>
<path style="fill:#cbc0ac; stroke:none;" d="M20 17L20 21L24 18L20 17z"/>
<path style="fill:#b67057; stroke:none;" d="M89 17L88 19L89 17z"/>
<path style="fill:#8a542d; stroke:none;" d="M107 17L108 18L107 17z"/>
<path style="fill:#b67057; stroke:none;" d="M80 19L80 23L83 22L83 20L80 19z"/>
<path style="fill:#8a542d; stroke:none;" d="M97 19L98 20L97 19M94 21L94 24L96 21L94 21M98 22L97 26L98 26L100 22L98 22M68 26L69 26L71 25C69.1883 23.4993 68.9776 23.8421 68 26z"/>
<path style="fill:#b67057; stroke:none;" d="M78 24L77 29L78 29L81 24L78 24M76 25L75 27L76 25z"/>
<path style="fill:#8a542d; stroke:none;" d="M90 25L85 30L86 33L79 41L85 36L90 25M95 25L94 27L95 25M67 28L66 33L67 33L67 28M94 31L97 28L94 31M83 43L92 35L93 29L83 43M74 32L75 33L74 32z"/>
<path style="fill:#b67057; stroke:none;" d="M85 32L86 33L85 32z"/>
<path style="fill:#8a542d; stroke:none;" d="M109 32L110 33L109 32M69 34L69 35L74 34L69 34z"/>
<path style="fill:#2f1a0e; stroke:none;" d="M90.3333 33.6667L90.6667 34.3333L90.3333 33.6667z"/>
<path style="fill:#8a542d; stroke:none;" d="M67 34L66 38L63 37L62 40L57 39L58 45L57 43L58 43L59 46L60 46L69 35L67 34M133 36L134 37L133 36M138 37L139 38L138 37M113 38L114 39L113 38M131.667 38.3333L132.333 38.6667L131.667 38.3333z"/>
<path style="fill:#b67057; stroke:none;" d="M64 39L65 40L64 39z"/>
<path style="fill:#8a542d; stroke:none;" d="M126 42L130 39L126 42M89 40L90 41L89 40M138 42L139 43L138 42z"/>
<path style="fill:#b67057; stroke:none;" d="M50 45L51 49L47 48L46 49L48 53L41 53L41 54L48 56L47 54L50 55L53 49L53 45L50 45z"/>
<path style="fill:#c69a7b; stroke:none;" d="M0 46L0 49L1 49L0 46z"/>
<path style="fill:#8a542d; stroke:none;" d="M52 46L54 49L55 46L52 46z"/>
<path style="fill:#b67057; stroke:none;" d="M55 46L56 47L55 46z"/>
<path style="fill:#8a542d; stroke:none;" d="M58 46L59 47L58 46z"/>
<path style="fill:#b67057; stroke:none;" d="M49 47L50 48L49 47z"/>
<path style="fill:#8a542d; stroke:none;" d="M57 47L58 48L57 47z"/>
<path style="fill:#b67057; stroke:none;" d="M0 49L0 55L1 55L0 49z"/>
<path style="fill:#8a542d; stroke:none;" d="M51 49L52 50L51 49M50 50L49 53L50 50M47 52L48 53L47 52M115.333 52.6667L115.667 53.3333L115.333 52.6667M137 54L140 52L137 54z"/>
<path style="fill:#c69a7b; stroke:none;" d="M47 54L48 55L47 54z"/>
<path style="fill:#8a542d; stroke:none;" d="M48 54L42 55L42 56L46 57L46 64L42 65C41.1219 69.8612 40.2134 74.3376 44 78L44 79L42 91L46 76L43 77L42 73L50 60L48 54M0 55L0 60L1 60L0 55z"/>
<path style="fill:#c69a7b; stroke:none;" d="M1 55L1 61L2 61L1 55z"/>
<path style="fill:#8a542d; stroke:none;" d="M162 55L163 56L162 55M164 55L164 56L168 56L164 55z"/>
<path style="fill:#b67057; stroke:none;" d="M42 56L40 60L44 60L43 63L41 62L39 64L39 65L40 67L42 65L44 66L46 64L46 57L42 56z"/>
<path style="fill:#8a542d; stroke:none;" d="M134 56L135 57L134 56z"/>
<path style="fill:#c69a7b; stroke:none;" d="M3 59L4 60L3 59z"/>
<path style="fill:#b67057; stroke:none;" d="M0 60L0 67L1 67L0 60z"/>
<path style="fill:#8a542d; stroke:none;" d="M92.3333 60.6667L92.6667 61.3333L92.3333 60.6667M143 60L144 61L143 60z"/>
<path style="fill:#b67057; stroke:none;" d="M39 62L40 63L39 62z"/>
<path style="fill:#8a542d; stroke:none;" d="M149.667 63.3333L150.333 63.6667L149.667 63.3333M95 64L96 65L95 64M1 65C0.0888711 68.442 -1.30324 73.1527 3 74L1 65M87 73L84 72C81.115 75.2466 76.8517 77.1238 74.7647 81.0903C67.4242 95.041 70.5598 108.333 71.8225 123C73.0368 137.104 73.2821 158.214 70 172C74.2365 168.298 72 156.373 72 151C72 139.63 76.052 128.97 76.2114 118C76.3098 111.23 72.8017 105.895 73.6829 99C74.706 90.9933 75.1005 77.3286 86 77L88 72L91 74L94 69L106 76L107 76L108 76L108 74L111 78L114 77C114.621 81.7158 128.492 85.8814 132.981 87.2778C154.601 94.0021 177.367 90.3482 197 79L202 79L202 78L192 75L186 75L184 78L185 81L168.129 84.1829L160.946 88.1034L146 84L147 87L145 85L135 85L134 84L134 82L137 81L137 80L128 77L127 77L125 79L116 73L112 74L114 72L108 71L108 68C100.969 67.0859 88.8035 61.6276 87 73z"/>
<path style="fill:#c69a7b; stroke:none;" d="M2 66L2 70L3 70L2 66z"/>
<path style="fill:#2f1a0e; stroke:none;" d="M93 67L94 68L93 67M91.3333 68.6667L91.6667 69.3333L91.3333 68.6667z"/>
<path style="fill:#b67057; stroke:none;" d="M40 69L40 76L41 76L40 69M94 69L91 74L88 72L86 77C81.2506 76.8359 78.7084 79.2697 76 83L79 86L80 86L81 78L88 77L89 80L90 80L89 77L92 78L95 75L93 79L96 75L103 77L103 76L101 76L101 75L105 79L125 88L135 90L147 92L148 95L167.001 92.6945L180 87L180 86C172.548 86 172.943 90.0192 167 92C166.161 92.2798 160.402 89.3994 158 90C148.887 92.2782 143.166 89.9695 135 87C132.562 86.1133 129.296 87.1479 127 86C124.815 84.9073 124.681 82.0087 123 81C120.489 79.4933 112.757 81.9738 114 77L111 78C110.794 75.7566 109.932 73.7724 108 76L107 76L106 76L94 69z"/>
<path style="fill:#8a542d; stroke:none;" d="M110 69L111 70L110 69M211 69L219 71L222 74C221.482 78.0656 222.35 80.0795 226 82L224 85L225 88L227 88L227 107L230 107L230 108C228.591 112.641 231.079 119.261 235 122L233 126L239 135L240 140L239 149L241 149C240.711 136.306 238.341 125.701 234 114L237 113L235 96C231.606 96 228.763 85.3866 230 83C221.699 75.2235 222.993 70.7195 211 69z"/>
<path style="fill:#b67057; stroke:none;" d="M2 70L3 71L2 70M0 71L1 72L0 71z"/>
<path style="fill:#c69a7b; stroke:none;" d="M2 71L3 72L2 71z"/>
<path style="fill:#b67057; stroke:none;" d="M206 80L197 79L193 81L193 82C196.774 81.9221 210.989 82.399 209 77L212 76L211 73L217 72C211.381 69.7071 208.23 75.539 206 80M218 71L221 77L222 74L218 71M2 72L3 73L2 72z"/>
<path style="fill:#8a542d; stroke:none;" d="M210 72L211 73L210 72z"/>
<path style="fill:#c69a7b; stroke:none;" d="M211 73L212 76L209 77L211 79L192 81L186 84L186 85L188 86L166 92.6945L148 95L147 92L145 94L136 93C135.512 88.9596 131.427 89.366 128 88.2222C120.239 85.6322 112.921 80.7794 105 79L101 75L101 76L103 76L103 77L96 75L93 79L95 75L92 78L89 77L90 80L89 80L88 77L81 78L80 86L79 86L77 82L79 120L81 120C70.175 137.467 68.1628 165.885 74 186L75 186L76 177L77 177L80 190L78 194L79 194L80 192L82 196L80 204L83 210L85 208L109 212L110 212L114 209C117.684 212.981 135.59 203.537 137.713 198.816C139.607 194.603 134.792 185.032 133 181L115 184.816L97 186L103 181L103 180L95 181L88 180L87 177L82 183L81 183L80 175L82 175C81.1599 166.117 81.2432 159.062 85 151L83 152L83 151L85 145L88 147L89 147C95.887 143.196 109.528 141.803 111 133L112 133L112 137C123.162 136.758 138.955 133.573 147 143C153.014 141.551 165.596 140.131 167 133C184.91 129.807 202.054 136.065 220 138L225 118L223 118L226 101L221 85C222.464 77.3886 219.248 71.1125 211 73z"/>
<path style="fill:#b67057; stroke:none;" d="M214 73L215 74L214 73M0 74L0 92L5 92L2 79L3 75L0 74z"/>
<path style="fill:#8a542d; stroke:none;" d="M194 74L195 75L194 74z"/>
<path style="fill:#c69a7b; stroke:none;" d="M1.66667 75.3333L2.33333 75.6667L1.66667 75.3333z"/>
<path style="fill:#8a542d; stroke:none;" d="M209 75L210 76L209 75z"/>
<path style="fill:#b67057; stroke:none;" d="M41 76L42 77L41 76z"/>
<path style="fill:#8a542d; stroke:none;" d="M207.667 76.3333L208.333 76.6667L207.667 76.3333M2.33333 77.6667L2.66667 78.3333L2.33333 77.6667z"/>
<path style="fill:#c69a7b; stroke:none;" d="M3.33333 77.6667L3.66667 78.3333L3.33333 77.6667z"/>
<path style="fill:#b67057; stroke:none;" d="M42 77L40 79L41 83L42 83L42 77z"/>
<path style="fill:#2f1a0e; stroke:none;" d="M187 80L191 77L187 80z"/>
<path style="fill:#8a542d; stroke:none;" d="M203 80L207 77L203 80z"/>
<path style="fill:#b67057; stroke:none;" d="M221.333 78.6667L221.667 79.3333L221.333 78.6667M85 79L85 84L86 84L85 79M219 79L220 80L219 79M222 80L221 85L226 101L223 118L225 118L220 138C203.385 134.844 183.621 128.461 167 133C164.946 139.726 152.883 141.209 147 143C141.274 132.794 121.874 136.096 112 137L112 133L111 133C108.105 142.926 95.1387 140.508 89 147L88 147L85 145L83 152L85 151L84 153L85 153L86 149L87 149L88 151C92.9163 147.43 95.9884 145.715 102 147L103 146L102 143C113.954 142.992 139.184 137.89 145.968 152.174C149.546 159.708 147.624 168.091 147 176L146 176L146 173L145 173C141.08 178.467 137.595 179.977 131 180L131 181C141.56 191.029 137.43 202.038 125 206.601C121.291 207.963 117.662 211.084 114 209L110 212L109 212C104.31 207.497 88.6723 206.85 83 210L80 203L79 194L78 194L80 190L77 177L76 177L73 185L76 193L85 232L88 240L90 240L91 235C93.4731 240.538 91.9809 246.666 98 250L98 253L99 250L100 250L104 256L103 247C108.681 251.539 113.174 261.037 121 262L128 268L131 275L129 274L129 275L135 274L135 279L138 278L137 282L141 281L141 287L144 285L143 288L144 288L146 286L148 287C148.276 289.631 151.543 298.661 153 292L154 292L154 295L155 295L160 290L160 296L161 296L164 285L163 288L165 288L164 295L165 295L170 283L168 282L167 282L167 286L166 286L164 285L167 280L165 276L164 276L163 281L162 281L161 278L158 281L156 279L157 274L156 274L153 275L153 283L154 283L157 281L153 287L156 286L155 292L152 287L151 287L151 290L150 290L146 278L153 280L152 273L151 273L150 276L149 276L149 272L147 273C146.791 270.142 146.826 269 144 269L145 264L148 265L153 263C149.351 258.3 140.856 253.926 135 253L138 258L137 259L131 253L124 255L123 255L119 250L118 250L116 251L117 258L109 247L112 248C112.21 243.633 110.794 239.363 107 237L108 240L104 241L105 238L101 241L99 233L97 233L95 237L91 234C91.3107 232.291 91.0865 230.501 90 233L89 233L90 228C85.8984 220.292 96.2725 219.653 101 219C102.809 224.145 109.349 223.13 113.91 222.066C123.004 219.945 132.916 208.114 141 203L139 210L140 210C142.619 207.042 144.245 206.908 148 208C153.516 192.814 148.72 179.616 151.742 164.428C152.719 159.516 156.312 157.51 161 158L171 208L175 208L175 209L173 216L170 214C163.829 219.893 156.79 217.138 150 214C146.434 218.78 142.254 219.465 138 215L123 226L123 235C126.803 232.162 128.501 228.855 133 233L129 231L126 237L131 237L131 235L142 233L138 220C148.778 223.927 161.067 221.774 172 220.554C177.826 219.904 181.645 221.281 187 218L190 224L187 223L189 228L195 228L196 224C206.367 219.817 189.433 214.015 186 212C176.773 225.773 171.202 199.74 185 208L184 203L216 221L220 218L221 221L229 215L236 225L238 225L239 224L238 215L241 214L240 200L240 199C246.045 194.678 243.408 176.651 242.384 169.986C241.96 167.222 242.88 161.465 240 161L240 140L239 135L233 126L235 122C231.095 117.994 229.43 112.547 230 107L227 107L227 106L227 88L225 88L224 85L224 83L226 82L222 80M181 87L186 85L186 84L192 83C188.472 79.0253 183.158 83.4828 181 87z"/>
<path style="fill:#8a542d; stroke:none;" d="M142 82L143 83L142 82z"/>
<path style="fill:#b67057; stroke:none;" d="M42 83L41 89L42 89L42 83z"/>
<path style="fill:#8a542d; stroke:none;" d="M121 83L122 84L121 83z"/>
<path style="fill:#b67057; stroke:none;" d="M76.3333 84.6667L76.6667 85.3333L76.3333 84.6667z"/>
<path style="fill:#cbc0ac; stroke:none;" d="M86 84L87 85L86 84z"/>
<path style="fill:#c69a7b; stroke:none;" d="M4 85L4 91L5 91L4 85M32 85L33 86L32 85z"/>
<path style="fill:#8a542d; stroke:none;" d="M52 86L53 87L52 86M183 86L184 87L183 86z"/>
<path style="fill:#b67057; stroke:none;" d="M75 87L75 91L76 91L75 87M139 87L141 89L139 87M145.333 88.6667L145.667 89.3333L145.333 88.6667M149 88L149 90L151 88L149 88M167 90L168 91L167 90z"/>
<path style="fill:#8a542d; stroke:none;" d="M0 92L0 93L5 93L0 92z"/>
<path style="fill:#b67057; stroke:none;" d="M41 91L42 92L41 91z"/>
<path style="fill:#8a542d; stroke:none;" d="M41 92L42 93L41 92z"/>
<path style="fill:#cbc0ac; stroke:none;" d="M136.667 92.3333L137.333 92.6667L136.667 92.3333z"/>
<path style="fill:#8a542d; stroke:none;" d="M159 92L160 93L159 92z"/>
<path style="fill:#b67057; stroke:none;" d="M0 93L2 108L2 109L0 111L7 111L5 93L0 93z"/>
<path style="fill:#8a542d; stroke:none;" d="M42 93L42 103L46 103L46 102L42 93z"/>
<path style="fill:#b67057; stroke:none;" d="M74 93L76.0224 117.576L73 133L74 133L81 120L79 120C80.385 114.619 77.5212 96.8792 74 93z"/>
<path style="fill:#cbc0ac; stroke:none;" d="M155 96L159 95L155 96M41 94L42 95L41 94z"/>
<path style="fill:#b67057; stroke:none;" d="M42 94L43 95L42 94z"/>
<path style="fill:#8a542d; stroke:none;" d="M4.33333 95.6667L4.66667 96.3333L4.33333 95.6667z"/>
<path style="fill:#c69a7b; stroke:none;" d="M5 96L5 99L6 99L5 96z"/>
<path style="fill:#b67057; stroke:none;" d="M42 96L43 97L42 96z"/>
<path style="fill:#8a542d; stroke:none;" d="M1.33333 99.6667L1.66667 100.333L1.33333 99.6667M4 99L1 106L2 106L2 103L5 104L4 99z"/>
<path style="fill:#b67057; stroke:none;" d="M42.3333 99.6667L42.6667 100.333L42.3333 99.6667z"/>
<path style="fill:#cbc0ac; stroke:none;" d="M148 100L149 101L148 100z"/>
<path style="fill:#8a542d; stroke:none;" d="M0.333333 101.667L0.666667 102.333L0.333333 101.667z"/>
<path style="fill:#c69a7b; stroke:none;" d="M5 101L6 102L5 101z"/>
<path style="fill:#cbc0ac; stroke:none;" d="M151 101L152 102L151 101z"/>
<path style="fill:#b67057; stroke:none;" d="M44 103L43 106L44 106L44 103z"/>
<path style="fill:#8a542d; stroke:none;" d="M44 104C43.8526 109.008 45.7284 113.283 50 116L50 112L49 112L49 114L48 114L46 109L44 104M5.33333 105.667L5.66667 106.333L5.33333 105.667z"/>
<path style="fill:#c69a7b; stroke:none;" d="M6 105L6 109L7 109L6 105z"/>
<path style="fill:#8a542d; stroke:none;" d="M3 107L4 108L3 107z"/>
<path style="fill:#b67057; stroke:none;" d="M43 107L44 108L43 107M45 107L46 108L45 107z"/>
<path style="fill:#8a542d; stroke:none;" d="M0.666667 108.333L1.33333 108.667L0.666667 108.333z"/>
<path style="fill:#b67057; stroke:none;" d="M44 108L45 109L44 108z"/>
<path style="fill:#8a542d; stroke:none;" d="M249 108L250 109L249 108M5 110L0 111L0 113C2.48435 112.882 5.48777 112.959 5 110z"/>
<path style="fill:#c69a7b; stroke:none;" d="M6 111L7 112L6 111z"/>
<path style="fill:#b67057; stroke:none;" d="M44 111L45 112L44 111M0 113L0 131L7 131L8 121L7 121L7 123L6 123C6.65547 119.533 8.25504 115.912 4 115L4 114L7 113L0 113M46 112L46 115L47 115L46 112z"/>
<path style="fill:#c69a7b; stroke:none;" d="M6 113L4 114L4 115L6 113M1 114L2 115L1 114z"/>
<path style="fill:#b67057; stroke:none;" d="M47 115L48 118L49 118L49 115L47 115z"/>
<path style="fill:#c69a7b; stroke:none;" d="M7 117L7 121L8 121L7 117z"/>
<path style="fill:#8a542d; stroke:none;" d="M48 118L51 121L48 118M6 120L6 123L7 123L6 120z"/>
<path style="fill:#cbc0ac; stroke:none;" d="M48 121L49 122L48 121z"/>
<path style="fill:#b67057; stroke:none;" d="M50 121L49 123L50 121z"/>
<path style="fill:#8a542d; stroke:none;" d="M50.6667 122.333L51.3333 122.667L50.6667 122.333z"/>
<path style="fill:#b67057; stroke:none;" d="M85 133L86 129L83 128L84 122C78.1772 125.344 80.3844 129.512 85 133M51.3333 123.667L51.6667 124.333L51.3333 123.667M93 130L98 124L93 130z"/>
<path style="fill:#8a542d; stroke:none;" d="M7 125L7 131L0 131L0 132L8 132L7 125M51 125L53 127L51 125z"/>
<path style="fill:#b67057; stroke:none;" d="M103 125L102 127L104 127L103 125M182.333 125.667L182.667 126.333L182.333 125.667M51 126L52 127L51 126M52 127L52 132L53 132L52 127M101.667 128.333L102.333 128.667L101.667 128.333z"/>
<path style="fill:#c69a7b; stroke:none;" d="M0 129L1 130L0 129M8 130L7 136L8 136L8 130z"/>
<path style="fill:#8a542d; stroke:none;" d="M53.3333 130.667L53.6667 131.333L53.3333 130.667z"/>
<path style="fill:#b67057; stroke:none;" d="M188 130L188 131L192 131L188 130M115.667 131.333L116.333 131.667L115.667 131.333M192 133L195 131L192 133M0 132L0 133L2 134L0 150L7 150L7 151L1 151L1 152L10 154C1.95169 151.627 -4.94189 159.879 1.02778 167.258C3.09403 169.812 8.1125 168.998 11 169L12 160L11 152L8 151L9 135L7 136L8 132L0 132z"/>
<path style="fill:#c69a7b; stroke:none;" d="M0.666667 133.333L1.33333 133.667L0.666667 133.333M4.66667 133.333L5.33333 133.667L4.66667 133.333z"/>
<path style="fill:#8a542d; stroke:none;" d="M54 133L54 136L55 136L54 133z"/>
<path style="fill:#c69a7b; stroke:none;" d="M223 133L223 137L224 137L223 133z"/>
<path style="fill:#b67057; stroke:none;" d="M72 134L72 140L73 140L72 134z"/>
<path style="fill:#8a542d; stroke:none;" d="M8 136L9 137L8 136z"/>
<path style="fill:#b67057; stroke:none;" d="M54.3333 136.667L54.6667 137.333L54.3333 136.667z"/>
<path style="fill:#8a542d; stroke:none;" d="M197 181L197 180L191 180L191 179L207 181L207 180L205 180L205 179L215 180L215 179L189 176L189 175L230 166L230 165L226 155L228 152L227 148L223 148L223 147L226 146L214 138C197.865 140.404 184.051 132.75 168.482 143.558C159.492 149.799 162.08 170.776 170.62 176.57C176.614 180.637 189.882 180.941 197 181M55 137L56 138L55 137M8 138L9 139L8 138z"/>
<path style="fill:#c69a7b; stroke:none;" d="M128 138L129 139L128 138M132 138L133 139L132 138M221 138L222 139L221 138z"/>
<path style="fill:#b67057; stroke:none;" d="M250 138L251 139L250 138z"/>
<path style="fill:#c69a7b; stroke:none;" d="M9.33333 139.667L9.66667 140.333L9.33333 139.667z"/>
<path style="fill:#8a542d; stroke:none;" d="M56 139L57 140L56 139z"/>
<path style="fill:#2f1a0e; stroke:none;" d="M174 146L176 149L176 150L174 155C168.199 158.108 164.723 166.331 172.058 170.192C176.129 172.335 181.762 171.012 186 170L185 166L186 166C190.336 173.137 201.038 171.538 202 163L207 164L205 168L224 166L224 165L205 156L205 155L207 155L207 154C201.812 154.534 198.519 154.088 195 150L189 152C191.964 146.923 201.506 144.803 207 143L207 142L195 139L189 141L189 139L174 146z"/>
<path style="fill:#c69a7b; stroke:none;" d="M223 139L224 140L223 139M237 140L238 141L237 140z"/>
<path style="fill:#b67057; stroke:none;" d="M72 141L72 149L73 149L72 141z"/>
<path style="fill:#8a542d; stroke:none;" d="M102 143L103 146L102 147C89.1431 143.234 75.6125 160.304 85.689 171.312C96.2754 182.878 114.704 178.159 128 177C122.227 183.247 110.895 182 103 182L103 183L122 184L122 183L120 183L120 182C128.086 183.329 141.219 180.871 145 173L146 173L146 176C147.857 172.508 147.924 168.905 148.013 165C148.638 137.719 121.079 142.945 102 143z"/>
<path style="fill:#c69a7b; stroke:none;" d="M9.33333 142.667L9.66667 143.333L9.33333 142.667z"/>
<path style="fill:#cbc0ac; stroke:none;" d="M56.3333 142.667L56.6667 143.333L56.3333 142.667z"/>
<path style="fill:#b67057; stroke:none;" d="M251 142L252 143L251 142z"/>
<path style="fill:#8a542d; stroke:none;" d="M9 144L9 148L10 148L9 144z"/>
<path style="fill:#b67057; stroke:none;" d="M57 144L58 145L57 144z"/>
<path style="fill:#8a542d; stroke:none;" d="M97.6667 144.333L98.3333 144.667L97.6667 144.333M101 144L102 145L101 144z"/>
<path style="fill:#2f1a0e; stroke:none;" d="M209.667 144.333L210.333 144.667L209.667 144.333z"/>
<path style="fill:#b67057; stroke:none;" d="M220 144L221 145L220 144M250 144L251 145L250 144z"/>
<path style="fill:#8a542d; stroke:none;" d="M58.3333 145.667L58.6667 146.333L58.3333 145.667z"/>
<path style="fill:#2f1a0e; stroke:none;" d="M103 154L120 152C120.843 155.936 123.683 154.627 127 154L127 155L119 159C106.866 156.316 98.0169 164.519 90 172L90 173L128 173L128 174L126 174L126 175C129.773 174.571 132.489 174.814 133 179L137 177C137.663 180.65 142.464 175.602 143.801 173.995C149.898 166.669 145.39 160.282 138 157L138 149C127.798 148.254 107.851 137.473 103 154M217 145L218 146L217 145M220 145L221 146L220 145z"/>
<path style="fill:#b67057; stroke:none;" d="M222 145L223 146L222 145z"/>
<path style="fill:#c69a7b; stroke:none;" d="M237.333 145.667L237.667 146.333L237.333 145.667z"/>
<path style="fill:#b67057; stroke:none;" d="M252 145L250 147L248 161L247 158C251.22 155.738 256.808 149.207 252 145z"/>
<path style="fill:#c69a7b; stroke:none;" d="M86 146L87 147L86 146z"/>
<path style="fill:#8a542d; stroke:none;" d="M128 146L129 147L128 146z"/>
<path style="fill:#2f1a0e; stroke:none;" d="M209 147L209 148L213 148L209 147z"/>
<path style="fill:#8a542d; stroke:none;" d="M59 148L60 149L59 148z"/>
<path style="fill:#c69a7b; stroke:none;" d="M87 148L88 149L87 148M86.3333 149.667L86.6667 150.333L86.3333 149.667z"/>
<path style="fill:#8a542d; stroke:none;" d="M249.333 149.667L249.667 150.333L249.333 149.667z"/>
<path style="fill:#c69a7b; stroke:none;" d="M250 149L251 150L250 149z"/>
<path style="fill:#8a542d; stroke:none;" d="M0 152L7 151L0 152M8 150L8 151L11 152L8 150z"/>
<path style="fill:#c69a7b; stroke:none;" d="M10 150L11 151L10 150z"/>
<path style="fill:#cbc0ac; stroke:none;" d="M59 150L60 151L59 150z"/>
<path style="fill:#8a542d; stroke:none;" d="M60.3333 150.667L60.6667 151.333L60.3333 150.667z"/>
<path style="fill:#2f1a0e; stroke:none;" d="M97 151L97 153L99 153L99 151L97 151z"/>
<path style="fill:#c69a7b; stroke:none;" d="M238 151L239 152L238 151z"/>
<path style="fill:#8a542d; stroke:none;" d="M240 151L240 155L241 155L240 151M248.333 151.667L248.667 152.333L248.333 151.667z"/>
<path style="fill:#c69a7b; stroke:none;" d="M0 154L10 154C7.55162 151.198 2.44838 151.198 0 154z"/>
<path style="fill:#b67057; stroke:none;" d="M50 160L55 163L56 163L55 159L65 170L66 170L64 159L61 157L56 158L54 152C50.4422 153.92 49.6826 156.02 50 160z"/>
<path style="fill:#8a542d; stroke:none;" d="M54 152L56 158L61 157L64 159L64 158L54 152z"/>
<path style="fill:#b67057; stroke:none;" d="M55 152L56 153L55 152M57.6667 152.333L58.3333 152.667L57.6667 152.333M60 152L61 153L60 152M81 152L81 155L82 155L83 152L81 152z"/>
<path style="fill:#8a542d; stroke:none;" d="M192 152L193 153L192 152z"/>
<path style="fill:#2f1a0e; stroke:none;" d="M91 156L94 153L91 156z"/>
<path style="fill:#8a542d; stroke:none;" d="M247.333 153.667L247.667 154.333L247.333 153.667z"/>
<path style="fill:#b67057; stroke:none;" d="M287 153L288 154L287 153z"/>
<path style="fill:#8a542d; stroke:none;" d="M10 154L10 160L11 160L10 154z"/>
<path style="fill:#b67057; stroke:none;" d="M60 154L61 155L60 154M83 154C79.9357 159.58 80.3365 168.833 82 175L80 175L81 183L82 183L87 177L88 180L95 181L103 180L103 181L97 186L105 184L105 183L103 183L103 182L117 182L117 181L109 181L109 180L116 180L116 179C106.565 179.019 89.488 179.288 84.6574 168.892C82.4743 164.194 84.1454 158.75 83 154M254 154L255 165L256 165L254 154M57 155L58 156L57 155z"/>
<path style="fill:#2f1a0e; stroke:none;" d="M87 155L86 157L88 157L87 155M95 155L98 159L99 156L95 155M104 155L105 156L104 155M117 155L118 156L117 155z"/>
<path style="fill:#8a542d; stroke:none;" d="M131.667 155.333L132.333 155.667L131.667 155.333M241 155L241 160L242 160L241 155z"/>
<path style="fill:#2f1a0e; stroke:none;" d="M252 155C247.872 159.826 250.719 164.462 252 170L253 170L252 155z"/>
<path style="fill:#8a542d; stroke:none;" d="M128 156L129 157L128 156M135 156L136 157L135 156z"/>
<path style="fill:#b67057; stroke:none;" d="M283 156L283 158L285 156L283 156M287 156L288 157L287 156M292 156L291 163L289 160L288 160L288 165L286 165L283 161L283 166L274 164L274 165L277 166L277 167L272 167L272 168L274 168L274 169C270.915 167.845 269.067 167.197 267 170L272 170L272 171L266 173L265 170C261.491 171.948 258.374 172.658 256 169L255 169L256 174L261 173L259 175L259 179L256 177L256 181L255 181L255 173C251.167 172.499 250.701 166.405 250 163L249 163L249 167L247 166L247 172C251.03 172 253.282 179.408 252.833 183C252.118 188.724 252.397 194.597 249.5 200C246.871 204.903 243.313 205.591 245 212L252 210C250.993 214.845 247.846 217.233 243 218L243 225L245 223L249 224L248 221L253 219L251 222L255 221L257 223L255 221L255 220L264 220C266.527 211.7 281.817 204.304 289 200.036C293.221 197.528 298.757 195.335 299 190L303 190L303 157L298 156L293 163L292 156z"/>
<path style="fill:#8a542d; stroke:none;" d="M123 157L123 158L127 158L123 157z"/>
<path style="fill:#c69a7b; stroke:none;" d="M148 208C131.784 200.701 141.71 230.467 150 214C155.755 217.509 165.254 220.66 170 214L173 216L175 209L175 208L171 208L161 158C156.225 156.908 152.706 158.831 151.599 163.845C149.488 173.399 152.523 183.66 152.112 193.285C151.88 198.723 149.177 202.854 148 208z"/>
<path style="fill:#8a542d; stroke:none;" d="M249 157L250 158L249 157M54 158L55 159L54 158z"/>
<path style="fill:#2f1a0e; stroke:none;" d="M90 158L91 159L90 158z"/>
<path style="fill:#c69a7b; stroke:none;" d="M247 158L248 159L247 158z"/>
<path style="fill:#8a542d; stroke:none;" d="M248 158L246 172L247 172L247 166L249 167L248 158z"/>
<path style="fill:#c69a7b; stroke:none;" d="M11 159L12 160L11 159z"/>
<path style="fill:#8a542d; stroke:none;" d="M51 162C57.0452 163.543 59.3178 168.18 58 174L60 183L59 183L59 176L58 176L58 183L57 183L53 165L52 165C52.67 180.604 59.9355 197.777 66 212L70 213L66 203L73 205C73.7418 209.326 76.2936 214.184 72 217C73.3488 220.867 74.7348 225.078 79 226L85 240L78 217L79 217L93 256L92 256L86 243L85 243L85 249L86 249L86 246L87 246L94 265L95 265L93 256L94 256L100 267L101 264L102 264L101 269L105 269L103 267L103 266L106 271L107 271L108 266L114 271L113 266L121 272L126 273L127 280L130 279C130.043 280.992 130.721 286.363 133 283L134 283L135 290L138 289L139 293L142 292L142 300L143 300L143 296L144 296L144 300L145 300L145 295L146 295L147 301L152 302L152 300L153 300L153 302L157 300L159 303L157 306L160 303L167 303L167 299C170.339 298.529 174.25 298.567 175 295L176 295C176.275 298.828 180.728 303.935 182 298L183 298L183 302L185 299L189 303L190 303L190 299L194 298L195 298L197 300L204 289L206 285L205 281L208 278L211 279L213 277L216 263L222 258L234 257L236 249L240 251L240 242L239 242L238 249L237 249L239 235L240 235L240 240L241 240L242 233L239 234L243 229L240 231L241 218L238 219L239 224L238 225L236 225C234.387 220.821 233.552 216.474 229 215L221 221L220 218L216 221L184 203C184.486 206.289 185.069 210.728 187.702 213.076C190.845 215.88 204.357 218.676 196 224L195 228L189 228L187 223L190 224L187 218C173.952 224.088 151.701 223.616 138 220L142 227L141 224C145.616 224.485 159.054 231.323 160 227L161 227L166 229L165 232L183 223L181 226L181 227C187.103 235.763 175.032 239.336 169 241.651C157.268 246.154 144.538 239.821 142 228L141 228L142 233L131 235L131 237L126 237L129 231L133 233C129.401 227.91 126.048 231.637 123 235L123 226C133.141 221.085 138.241 213.497 141 203C130.912 207.271 124.632 217.558 114.87 221.487C110.28 223.334 103.616 223.462 101 219C96.9602 218.907 83.0979 221.393 90 228L89 233L90 233L91 231L91 234L95 237L97 233L99 233L101 241L105 238L104 241L107 237L114 244L115 244L116 251L119 250L123 255L124 255L131 253L137 259L138 258L135 253L153 263L148 265L145 264L144 269L147 273L149 272L149 276L150 276L151 273L152 273L152 278L153 278L153 275L156 274L157 274L156 279L158 281L161 278L162 281L163 281L164 276L165 276L167 280L164 285L166 286L167 286L167 282L168 282L170 283L165 295L164 295L165 288L163 288L164 285L161 296L160 296L160 290L155 295L154 295L154 292L153 292L153 295L148 287L146 286L144 286L144 288L143 288L144 285L141 287L141 281L137 282L138 278L135 279L135 274L129 275L129 274L131 275L131 274L128 268L121 262L103 247L104 256L100 250L99 250L98 253L98 250L91 235L90 240L88 240L85 232L77 200L76 200L76 207L75 207L72 202L73 193L70 197C66.3614 194.195 63.7469 189.88 64.6443 185.054C65.2881 181.591 70.2494 179.088 67 176L67 167L66 167L66 170L65 170L55 159L56 163L55 163L52 159L51 162z"/>
<path style="fill:#c69a7b; stroke:none;" d="M240.333 159.667L240.667 160.333L240.333 159.667M63.3333 160.667L63.6667 161.333L63.3333 160.667z"/>
<path style="fill:#2f1a0e; stroke:none;" d="M52 161L57 183L58 183C58.1908 173.502 61.0465 167.056 52 161z"/>
<path style="fill:#b67057; stroke:none;" d="M277 161L278 162L277 161z"/>
<path style="fill:#8a542d; stroke:none;" d="M11 162L12 163L11 162z"/>
<path style="fill:#b67057; stroke:none;" d="M51 162L51 167L52 167L51 162z"/>
<path style="fill:#cbc0ac; stroke:none;" d="M63 162L64 163L63 162z"/>
<path style="fill:#8a542d; stroke:none;" d="M64 162L64 165L65 165L64 162M242 162L243 172L244 172L242 162z"/>
<path style="fill:#b67057; stroke:none;" d="M280 162L281 163L280 162z"/>
<path style="fill:#c69a7b; stroke:none;" d="M63.3333 163.667L63.6667 164.333L63.3333 163.667z"/>
<path style="fill:#b67057; stroke:none;" d="M263 163L264 164L263 163z"/>
<path style="fill:#c69a7b; stroke:none;" d="M240 164L241 165L240 164z"/>
<path style="fill:#8a542d; stroke:none;" d="M250.333 164.667L250.667 165.333L250.333 164.667M11 165L11 169L0 168L0 171L13 171L11 165M65.3333 165.667L65.6667 166.333L65.3333 165.667z"/>
<path style="fill:#c69a7b; stroke:none;" d="M10 166L11 167L10 166M12 166L13 167L12 166z"/>
<path style="fill:#8a542d; stroke:none;" d="M128 166L127 171L128 166z"/>
<path style="fill:#b67057; stroke:none;" d="M256 166L255 168L256 166M262 166L262 167L267 168L267 167L262 166z"/>
<path style="fill:#8a542d; stroke:none;" d="M278 166L278 167L281 168L278 166z"/>
<path style="fill:#b67057; stroke:none;" d="M12 167L13 168L12 167z"/>
<path style="fill:#c69a7b; stroke:none;" d="M229 167L230 168L229 167z"/>
<path style="fill:#8a542d; stroke:none;" d="M251.333 167.667L251.667 168.333L251.333 167.667z"/>
<path style="fill:#b67057; stroke:none;" d="M51 168L52 169L51 168z"/>
<path style="fill:#8a542d; stroke:none;" d="M249.333 168.667L249.667 169.333L249.333 168.667z"/>
<path style="fill:#b67057; stroke:none;" d="M0 169L1 170L0 169z"/>
<path style="fill:#8a542d; stroke:none;" d="M109 169L109 171L112 171L112 169L109 169z"/>
<path style="fill:#b67057; stroke:none;" d="M5 170L5 171L8 171L5 170z"/>
<path style="fill:#c69a7b; stroke:none;" d="M0 171L0 177L1 177L1 173L7 186L7 187L14 187L14 189L1 189L3 206L13 206L15 205C15.5012 200.779 16.3338 179.722 12 179L14 175L12 176L12 175L13 172L0 171z"/>
<path style="fill:#b67057; stroke:none;" d="M9 170L9 171L12 171L9 170M52 170L52 176L53 176L52 170z"/>
<path style="fill:#2f1a0e; stroke:none;" d="M61 170L62 177L66 177L61 170z"/>
<path style="fill:#b67057; stroke:none;" d="M198 170L198 171L201 171L198 170z"/>
<path style="fill:#2f1a0e; stroke:none;" d="M203 170L204 171L203 170z"/>
<path style="fill:#b67057; stroke:none;" d="M12 171L13 172L12 171M50 171L51 172L50 171M65 171L66 172L65 171M192 171L192 172L196 172L192 171z"/>
<path style="fill:#2f1a0e; stroke:none;" d="M200 171L201 172L200 171z"/>
<path style="fill:#c69a7b; stroke:none;" d="M241 171L242 172L241 171z"/>
<path style="fill:#8a542d; stroke:none;" d="M248 171L248 195L247 195C248.098 191.795 248.79 189.3 246 187L245 204C255.253 198.252 255.428 178.942 248 171z"/>
<path style="fill:#b67057; stroke:none;" d="M8 174L11 173L8 174M72 172L72 178L73 178L72 172z"/>
<path style="fill:#8a542d; stroke:none;" d="M112 172L113 173L112 172z"/>
<path style="fill:#2f1a0e; stroke:none;" d="M186 172L186 173L191 174L191 173L186 172z"/>
<path style="fill:#b67057; stroke:none;" d="M202 172L201 174L203 174L202 172z"/>
<path style="fill:#c69a7b; stroke:none;" d="M230.667 172.333L231.333 172.667L230.667 172.333M234 172L233 174L235 174L234 172z"/>
<path style="fill:#b67057; stroke:none;" d="M1 173L2 200L3 200L2 187L9 186L9 185L3 173L1 173z"/>
<path style="fill:#8a542d; stroke:none;" d="M71.3333 173.667L71.6667 174.333L71.3333 173.667z"/>
<path style="fill:#b67057; stroke:none;" d="M112 173L115 175L112 173z"/>
<path style="fill:#8a542d; stroke:none;" d="M114 173L115 174L114 173M118.667 173.333L119.333 173.667L118.667 173.333z"/>
<path style="fill:#b67057; stroke:none;" d="M12.3333 174.667L12.6667 175.333L12.3333 174.667M59 174L59 183L60 183L59 174M67.3333 174.667L67.6667 175.333L67.3333 174.667z"/>
<path style="fill:#c69a7b; stroke:none;" d="M115 174L115 175L118 175L115 174z"/>
<path style="fill:#cbc0ac; stroke:none;" d="M118 174L119 175L118 174z"/>
<path style="fill:#c69a7b; stroke:none;" d="M119 174L119 175L122 175L119 174z"/>
<path style="fill:#b67057; stroke:none;" d="M122 174L123 175L122 174z"/>
<path style="fill:#c69a7b; stroke:none;" d="M229 174L230 176L231 176L232 174L229 174M242 174L243 175L242 174z"/>
<path style="fill:#8a542d; stroke:none;" d="M243 174L243 186L244 186L243 174z"/>
<path style="fill:#b67057; stroke:none;" d="M74 175L75 176L74 175M76 175L77 176L76 175M106 178L114 176L106 178M255 175L256 176L255 175M53.3333 176.667L53.6667 177.333L53.3333 176.667z"/>
<path style="fill:#8a542d; stroke:none;" d="M71 176L72 188L73 188L71 176z"/>
<path style="fill:#b67057; stroke:none;" d="M115 176L116 177L115 176z"/>
<path style="fill:#c69a7b; stroke:none;" d="M199 176L200 177L199 176M201 176L201 177L204 177L201 176M233.333 176.667L233.667 177.333L233.333 176.667z"/>
<path style="fill:#8a542d; stroke:none;" d="M262 176L263 177L262 176z"/>
<path style="fill:#b67057; stroke:none;" d="M12.3333 177.667L12.6667 178.333L12.3333 177.667M123 177L119 180L119 181L128 177L123 177M120.667 178.333L121.333 178.667L120.667 178.333z"/>
<path style="fill:#c69a7b; stroke:none;" d="M109 180L109 181L124 179L109 180z"/>
<path style="fill:#8a542d; stroke:none;" d="M143.333 178.667L143.667 179.333L143.333 178.667z"/>
<path style="fill:#2f1a0e; stroke:none;" d="M188 178L188 179L191 179L188 178z"/>
<path style="fill:#8a542d; stroke:none;" d="M247 178L248 179L247 178z"/>
<path style="fill:#c69a7b; stroke:none;" d="M0 179L1 180L0 179z"/>
<path style="fill:#b67057; stroke:none;" d="M54 179L55 180L54 179z"/>
<path style="fill:#c69a7b; stroke:none;" d="M106.667 179.333L107.333 179.667L106.667 179.333z"/>
<path style="fill:#2f1a0e; stroke:none;" d="M130 179L131 180L130 179z"/>
<path style="fill:#8a542d; stroke:none;" d="M145.333 179.667L145.667 180.333L145.333 179.667z"/>
<path style="fill:#2f1a0e; stroke:none;" d="M191 179L191 180L204 181L191 179M205 179L205 180L209 180L205 179z"/>
<path style="fill:#b67057; stroke:none;" d="M72.3333 180.667L72.6667 181.333L72.3333 180.667z"/>
<path style="fill:#2f1a0e; stroke:none;" d="M128 180L129 181L128 180z"/>
<path style="fill:#c69a7b; stroke:none;" d="M222 183C211.182 178.949 196.073 180.333 185 183L177 184L177 185L180 185L180 186L178 187L177 198L200 202C202.979 206.775 217.069 208.079 220 203L225 205L227 201L227 204L229 198L232 200C233.994 196.079 236.283 188.66 233.278 184.472C231.2 181.577 222.929 178.755 222 183z"/>
<path style="fill:#b67057; stroke:none;" d="M84 181L83 185L84 181M91 181L92 182L91 181M129 181L130 182L129 181z"/>
<path style="fill:#8a542d; stroke:none;" d="M143 181L144 182L143 181z"/>
<path style="fill:#b67057; stroke:none;" d="M202.667 181.333L203.333 181.667L202.667 181.333z"/>
<path style="fill:#8a542d; stroke:none;" d="M258 181L259 182L258 181z"/>
<path style="fill:#b67057; stroke:none;" d="M55 182L56 183L55 182z"/>
<path style="fill:#2f1a0e; stroke:none;" d="M120 182L120 183L123 183L120 182z"/>
<path style="fill:#b67057; stroke:none;" d="M126 182L127 183L126 182M195 182L196 183L195 182z"/>
<path style="fill:#c69a7b; stroke:none;" d="M0 183L1 184L0 183z"/>
<path style="fill:#8a542d; stroke:none;" d="M2.33333 183.667L2.66667 184.333L2.33333 183.667z"/>
<path style="fill:#b67057; stroke:none;" d="M73 183L74 184L73 183M90.6667 183.333L91.3333 183.667L90.6667 183.333z"/>
<path style="fill:#2f1a0e; stroke:none;" d="M110.667 183.333L111.333 183.667L110.667 183.333M113 183L113 184L118 184L113 183z"/>
<path style="fill:#b67057; stroke:none;" d="M122.667 183.333L123.333 183.667L122.667 183.333M193 183L194 184L193 183M197 183L198 184L197 183M56 184L56 187L57 187L56 184M88 184L89 185L88 184M109 184L109 185L118 185L109 184z"/>
<path style="fill:#8a542d; stroke:none;" d="M256.333 184.667L256.667 185.333L256.333 184.667z"/>
<path style="fill:#c69a7b; stroke:none;" d="M1.33333 185.667L1.66667 186.333L1.33333 185.667z"/>
<path style="fill:#b67057; stroke:none;" d="M13 185L14 186L13 185z"/>
<path style="fill:#8a542d; stroke:none;" d="M2 187L9 189L9 188L2 187z"/>
<path style="fill:#b67057; stroke:none;" d="M8 187L8 188L14 188L8 187M57 187L58 188L57 187z"/>
<path style="fill:#8a542d; stroke:none;" d="M243 187L243 191L244 191L243 187M13 188L14 189L13 188z"/>
<path style="fill:#b67057; stroke:none;" d="M55 188L56 193L57 193L55 188z"/>
<path style="fill:#8a542d; stroke:none;" d="M73 188L73 193L74 193L73 188z"/>
<path style="fill:#b67057; stroke:none;" d="M3 189L4 190L3 189M5 189L6 190L5 189M58 189L58 192L59 192L58 189M209 189L209 192L210 192L209 189M246 189L247 190L246 189z"/>
<path style="fill:#8a542d; stroke:none;" d="M70 190L72 193L70 190z"/>
<path style="fill:#c69a7b; stroke:none;" d="M299 190C298.474 194.679 293.747 196.538 290 198.844C282.779 203.288 265.5 211.088 264 220L255 220L255 221L257 223L255 221L251 222L253 219C249.988 220.102 248.93 220.766 249 224L245 223L243 226L245 227L245 228C240.087 232.133 240.759 246.903 241 253L240 253L239 251L238 252L242 254L242 255C231.642 258.353 231.131 279.051 230 288L234 288L235 289L237 293L235 290L239 291L238 293L241 294L240 297L243 300L244 300L246 297C244.951 301.461 246.431 303.188 251 303L250 307L253 307C253.361 310.245 254.849 310.242 258 310L259 313L262 310C260.955 315.616 265.21 316.628 270 316C270 320.492 279.232 316.6 280 313L272 315C273.2 310.108 275.022 309.149 280 309L280 310L278 311L281 312L284 304L288 304L289 310C291.498 307.613 292.1 305.845 290 303L290 302L289 296C294.061 294.618 296.668 291.249 296 286L302 284L299 278C304.817 273.02 303 260.907 303 254C303 232.838 301.549 211.093 303 190L299 190M235 191L236 192L235 191z"/>
<path style="fill:#b67057; stroke:none;" d="M302 191L303 192L302 191z"/>
<path style="fill:#8a542d; stroke:none;" d="M0 192C0 196.014 -1.13837 206.095 3 207L0 192z"/>
<path style="fill:#b67057; stroke:none;" d="M14.3333 192.667L14.6667 193.333L14.3333 192.667z"/>
<path style="fill:#8a542d; stroke:none;" d="M74 193L75 199L76 199L76 193L74 193M243 193L244 194L243 193z"/>
<path style="fill:#b67057; stroke:none;" d="M59 194L64 211L65 211L59 194z"/>
<path style="fill:#8a542d; stroke:none;" d="M242 194L240 199L240 200C243.331 199.286 243.591 196.762 242 194z"/>
<path style="fill:#c69a7b; stroke:none;" d="M252 194L253 195L252 194z"/>
<path style="fill:#8a542d; stroke:none;" d="M254 194L253 202L254 202L254 194z"/>
<path style="fill:#c69a7b; stroke:none;" d="M79 195L80 196L79 195z"/>
<path style="fill:#b67057; stroke:none;" d="M11 196L12 197L11 196M14 196L15 197L14 196M71.3333 196.667L71.6667 197.333L71.3333 196.667M248 196L249 197L248 196M4 198L4 203L5 203L4 198M9.33333 198.667L9.66667 199.333L9.33333 198.667M11.6667 198.333L12.3333 198.667L11.6667 198.333M14.3333 198.667L14.6667 199.333L14.3333 198.667M72 199L72 202L73 202L72 199z"/>
<path style="fill:#c69a7b; stroke:none;" d="M285 199L286 200L285 199z"/>
<path style="fill:#b67057; stroke:none;" d="M0 200L0 205L1 205L0 200M6.66667 200.333L7.33333 200.667L6.66667 200.333M11 200L12 201L11 200M65.3333 200.667L65.6667 201.333L65.3333 200.667M15 201L15 205L13 206L0 207C0 212.231 -1.85989 220.849 3 224L5 215L4 227L0 227L1 243L7 240L3 243L3 244L5 245L1 245C1.073 247.044 -1.25665 253.765 3 250L1 255L3 258C0.524894 258.513 0.425403 258.604 1 261C6.42802 257.711 7.94151 255.462 8 249L7 249L7 252L6 252L7 243L19 247L20 247L19 240L14 241L20 239L19 225L15 225L15 224L18 217L15 216L17 210L3 210L16 208L15 201z"/>
<path style="fill:#8a542d; stroke:none;" d="M240 201L241 202L240 201z"/>
<path style="fill:#b67057; stroke:none;" d="M2 202L2 206L3 206L2 202M8 202L7 204L8 202M66 203L70 213L65 211L74 224L76 240L79 238C77.4084 241.132 76.6607 244.091 81 244L80 247L84 246L87 255L85 240L79 226L72 217C76.996 215.929 74.2814 208.637 73 205L66 203z"/>
<path style="fill:#8a542d; stroke:none;" d="M241 203L240 213L241 213L241 203z"/>
<path style="fill:#c69a7b; stroke:none;" d="M178.475 205.176C172.611 207.915 175.836 219.766 182.606 216.611C188.143 214.031 183.784 202.695 178.475 205.176M246.333 204.667L246.667 205.333L246.333 204.667z"/>
<path style="fill:#8a542d; stroke:none;" d="M5 206L6 207L5 206M8 206L8 207L11 207L8 206M15 206L16 207L15 206z"/>
<path style="fill:#2f1a0e; stroke:none;" d="M65 206L67 208L65 206z"/>
<path style="fill:#c69a7b; stroke:none;" d="M72 206L71 210L72 210L72 206z"/>
<path style="fill:#8a542d; stroke:none;" d="M244.333 206.667L244.667 207.333L244.333 206.667z"/>
<path style="fill:#c69a7b; stroke:none;" d="M3 210C7.28417 209.506 15.8979 212.143 17 207C13.0513 207.514 3.83729 206.172 3 210M220 207L221 208L220 207M1 208L2 209L1 208M80 208L81 209L80 208z"/>
<path style="fill:#2f1a0e; stroke:none;" d="M68 209L69 210L68 209M75 209L77 214L78 214L75 209M137 209L137 213L138 213L139 209L137 209z"/>
<path style="fill:#b67057; stroke:none;" d="M185.333 209.667L185.667 210.333L185.333 209.667z"/>
<path style="fill:#8a542d; stroke:none;" d="M2 210L2 214L3 214L2 210z"/>
<path style="fill:#b67057; stroke:none;" d="M66 210L67 211L66 210z"/>
<path style="fill:#2f1a0e; stroke:none;" d="M69 210L70 211L69 210z"/>
<path style="fill:#8a542d; stroke:none;" d="M138 210L139 211L138 210M244 210L243 215C248.145 217.544 251.352 215.646 252 210L244 210M16 211L16 216L17 216L16 211z"/>
<path style="fill:#b67057; stroke:none;" d="M138 211L139 212L138 211M63 212L64 213L63 212z"/>
<path style="fill:#c69a7b; stroke:none;" d="M74 212L75 213L74 212M1 213L2 214L1 213M15 213L15 216L16 216L15 213z"/>
<path style="fill:#b67057; stroke:none;" d="M244 213L245 214L244 213M65 214L66 215L65 214z"/>
<path style="fill:#8a542d; stroke:none;" d="M240 214L241 215L240 214M3 215L3 224L0 223L4 226L3 215z"/>
<path style="fill:#c69a7b; stroke:none;" d="M4.33333 215.667L4.66667 216.333L4.33333 215.667M17.3333 215.667L17.6667 216.333L17.3333 215.667z"/>
<path style="fill:#8a542d; stroke:none;" d="M238.667 215.333L239.333 215.667L238.667 215.333z"/>
<path style="fill:#2f1a0e; stroke:none;" d="M247 215L248 216L247 215z"/>
<path style="fill:#8a542d; stroke:none;" d="M242 216L243 217L242 216z"/>
<path style="fill:#c69a7b; stroke:none;" d="M251 216L252 217L251 216M15 217L16 218L15 217z"/>
<path style="fill:#2f1a0e; stroke:none;" d="M78 217C78.9746 229.569 85.1742 245.518 92 256L93 256C90.2609 245.039 85.0734 225.751 78 217z"/>
<path style="fill:#8a542d; stroke:none;" d="M215.333 217.667L215.667 218.333L215.333 217.667M243 217L244 218L243 217z"/>
<path style="fill:#c69a7b; stroke:none;" d="M244 217L244 219L246 217L244 217M248 217L248 219L250 219L250 217L248 217M1 218L2 219L1 218z"/>
<path style="fill:#b67057; stroke:none;" d="M75.3333 218.667L75.6667 219.333L75.3333 218.667z"/>
<path style="fill:#c69a7b; stroke:none;" d="M5 219L7 223L5 219z"/>
<path style="fill:#8a542d; stroke:none;" d="M17 219L15 224L15 225C18.3315 224.286 18.5915 221.762 17 219M242 219L243 220L242 219z"/>
<path style="fill:#b67057; stroke:none;" d="M207.667 220.333L208.333 220.667L207.667 220.333z"/>
<path style="fill:#8a542d; stroke:none;" d="M243.333 220.667L243.667 221.333L243.333 220.667z"/>
<path style="fill:#c69a7b; stroke:none;" d="M133 221L133 224L134 224L133 221M191 221L192 222L191 221M246.333 221.667L246.667 222.333L246.333 221.667M2 222L3 223L2 222M10 222L11 223L10 222z"/>
<path style="fill:#2f1a0e; stroke:none;" d="M77.3333 223.667L77.6667 224.333L77.3333 223.667M165 232L166 229L161 227L160 227L141 224C141.647 228.635 142.34 234.826 145.768 238.347C153.079 245.859 171.983 243.348 179.686 237.988C182.914 235.741 183.855 229.534 181 227L181 226L183 223L165 232z"/>
<path style="fill:#b67057; stroke:none;" d="M224 223L225 224L224 223M233 223L234 229L232 233L233 233C234.883 229.357 235.146 226.586 233 223z"/>
<path style="fill:#8a542d; stroke:none;" d="M236.667 223.333L237.333 223.667L236.667 223.333M242 223L241 227L242 227L244 223L242 223M7 224L7 225L12 225L7 224z"/>
<path style="fill:#c69a7b; stroke:none;" d="M18 224L19 225L18 224z"/>
<path style="fill:#b67057; stroke:none;" d="M0.666667 225.333L1.33333 225.667L0.666667 225.333M246 225L247 226L246 225z"/>
<path style="fill:#c69a7b; stroke:none;" d="M0 226L0 227L4 227L0 226M5 226L6 230L7 230L7 227L18 228L18 226L5 226M75 226L76 227L75 226z"/>
<path style="fill:#b67057; stroke:none;" d="M238.333 226.667L238.667 227.333L238.333 226.667M242 229L245 227C242.604 226.425 242.513 226.525 242 229M186 227L186 229L188 227L186 227z"/>
<path style="fill:#8a542d; stroke:none;" d="M4 229L5 236L6 236L4 229M134 229L134 231L136 229L134 229z"/>
<path style="fill:#b67057; stroke:none;" d="M193 230L198 235L196 229L193 230M198 229L199 230L198 229z"/>
<path style="fill:#c69a7b; stroke:none;" d="M16 230L17 231L16 230M78.6667 230.333L79.3333 230.667L78.6667 230.333z"/>
<path style="fill:#b67057; stroke:none;" d="M200.667 230.333L201.333 230.667L200.667 230.333M244 230L245 231L244 230z"/>
<path style="fill:#8a542d; stroke:none;" d="M137 231L134 232L134 233L137 231z"/>
<path style="fill:#b67057; stroke:none;" d="M241 231L241 233L243 233L241 231z"/>
<path style="fill:#c69a7b; stroke:none;" d="M12 232L14 234L14 232L12 232M15 232L16 233L15 232M19.3333 232.667L19.6667 233.333L19.3333 232.667z"/>
<path style="fill:#2f1a0e; stroke:none;" d="M239 232L239 234L241 234L241 232L239 232z"/>
<path style="fill:#b67057; stroke:none;" d="M218 234L218 242L214 241L211 252L217 254L224 247L220 238L218 234z"/>
<path style="fill:#8a542d; stroke:none;" d="M19.3333 235.667L19.6667 236.333L19.3333 235.667z"/>
<path style="fill:#2f1a0e; stroke:none;" d="M239 235L237 249L238 249L239 235M183 236L184 237L183 236z"/>
<path style="fill:#b67057; stroke:none;" d="M241 237L241 244L241 237z"/>
<path style="fill:#c69a7b; stroke:none;" d="M7.33333 238.667L7.66667 239.333L7.33333 238.667M10 238L11 239L10 238M14 241L19 242L20 242L19 238L14 241z"/>
<path style="fill:#2f1a0e; stroke:none;" d="M114 238L113 244L114 244L116 238L114 238M121 239L120 242L121 239M204 239L204 241L206 241L204 239z"/>
<path style="fill:#8a542d; stroke:none;" d="M5 240L2 241C4.04649 243.261 5.48575 242.36 7 240L5 240z"/>
<path style="fill:#c69a7b; stroke:none;" d="M12 240L13 241L12 240z"/>
<path style="fill:#b67057; stroke:none;" d="M177 241L177 242C180.981 242.37 188.924 245.022 190 240L177 241z"/>
<path style="fill:#2f1a0e; stroke:none;" d="M200 240L201 243C189.204 247.299 170.269 248.137 158 245C151.567 249.266 130.703 248.549 125 243L124 243C123.022 245.158 122.812 245.501 121 244L116 249L117 249L117 246C135.427 253.283 154.641 253.52 174 250.729C181.725 249.615 200.546 244.899 207 250L208 250L208 242L200 240z"/>
<path style="fill:#8a542d; stroke:none;" d="M0.333333 241.667L0.666667 242.333L0.333333 241.667M8 241L8 242L14 243L14 242L8 241z"/>
<path style="fill:#c69a7b; stroke:none;" d="M80 241L81 242L80 241M84.3333 241.667L84.6667 242.333L84.3333 241.667z"/>
<path style="fill:#b67057; stroke:none;" d="M192 241L191 243L193 243L192 241z"/>
<path style="fill:#c69a7b; stroke:none;" d="M20 242L21 243L20 242z"/>
<path style="fill:#8a542d; stroke:none;" d="M100 242L100 243L102 244L100 246L103 247L104 246L100 242z"/>
<path style="fill:#2f1a0e; stroke:none;" d="M130 242L131 243L130 242z"/>
<path style="fill:#b67057; stroke:none;" d="M144 242L144 244L146 244L144 242z"/>
<path style="fill:#c69a7b; stroke:none;" d="M0 243L2 247L1 245L5 245L0 243M7 243C7.33021 250.14 11.4317 262.365 0 260L8 261C9.7524 268.34 15.5858 292.393 7 295L7 296L13 296C13.0081 308.184 13.2254 311 0 311L2 323L3 323C4.14948 328.364 14.0021 325.559 16 322C29.0956 325.175 29.9916 311.116 24 303L27 303L25 294C20.7621 294.535 16.6228 296.042 14 292L26 293L25 284L20.5664 261.349L9 261L13 257L22 259L21 244L20 244L20 247C16.782 242.324 12.1272 243.909 7 243M82 243L83 244L82 243z"/>
<path style="fill:#2f1a0e; stroke:none;" d="M114 244L114 247L115 247L114 244z"/>
<path style="fill:#b67057; stroke:none;" d="M138.667 244.333L139.333 244.667L138.667 244.333z"/>
<path style="fill:#8a542d; stroke:none;" d="M6 245L6 252L7 252L6 245z"/>
<path style="fill:#b67057; stroke:none;" d="M11 245L12 246L11 245M13 245L14 246L13 245M16 245L17 246L16 245z"/>
<path style="fill:#2f1a0e; stroke:none;" d="M211 245L212 246L211 245z"/>
<path style="fill:#b67057; stroke:none;" d="M86 246L87 247L86 246z"/>
<path style="fill:#c69a7b; stroke:none;" d="M112 246L109 247L117 258L114 246L112 246z"/>
<path style="fill:#b67057; stroke:none;" d="M7 247L8 248L7 247M11 247L10 257L11 257L11 247M81 247L83 249L81 247M91 247L92 248L91 247M240 247L240 253L241 253L240 247M19 248L20 249L19 248z"/>
<path style="fill:#cbc0ac; stroke:none;" d="M62 248L62 253L63 253L62 248z"/>
<path style="fill:#b67057; stroke:none;" d="M114 248L115 249L114 248M115 249L116 250L115 249z"/>
<path style="fill:#2f1a0e; stroke:none;" d="M236 249L234 257L222 258L216 263L213 277L208 278L205 281L206 285C203.149 285.614 203.146 286.303 204 289C199.713 290.249 197.82 295.876 197 300L195 298L194 298L190 299L190 303L189 303C187.278 299.317 185.951 299.682 183 302L183 298L182 298L182 301L176 295L175 295L175 298L167 299L167 303L160 303L157 306L157 300L153 300L152 300L152 302L151 302L147 301L146 295L145 295L145 300L144 300L144 296L143 296L143 300L142 300L142 292L139 293L135 290L134 283L133 283L132 285L130 279L127 280L128 277L126 273L121 272C119.718 267.59 117.404 266.565 113 266L114 271L108 266L107 271L106 271C105.936 268.007 106.054 266.654 103 266L103 267L105 269L101 269L102 264L101 264L100 267L94 256L93 256L102.885 281L111 296L117 313L127 321L126 324L143 334L143 330L148 332L146 327L158 332L159 328L160 328C164.037 332.919 169.679 328.18 174 326L173 330C176.972 331.242 183.413 330.883 184 326L188 326L188 325L180 325L180 324L193 326L196 322L195 321L188 321L192 322L192 321L189 320L195 319L203 313L197 314L197 313L201 311L209 310L209 311L207 311L207 312C210.687 310.777 210.88 308.692 211 305L212 305C216.554 309.315 221.975 292.749 225 290L223 287L227.694 280L239 254L236 255L236 249z"/>
<path style="fill:#b67057; stroke:none;" d="M242 249L243 250L242 249z"/>
<path style="fill:#c69a7b; stroke:none;" d="M2 250L0 251C0 254.363 -0.715841 257.204 3 258L1 255C4.34472 254.28 4.0365 252.332 2 250z"/>
<path style="fill:#b67057; stroke:none;" d="M82 250L83 251L82 250M87.3333 250.667L87.6667 251.333L87.3333 250.667z"/>
<path style="fill:#8a542d; stroke:none;" d="M175 250L175 251L182 251L175 250z"/>
<path style="fill:#b67057; stroke:none;" d="M167 255L187 254L187 255L181 259L182 264L192 262L193 267L187 267L188 272L183 272L182 277L178 277L179 281L175 280L173 281L171 285L177 292L181 292L182 289L183 289L189 296L188 292L193 291L194 294L195 294L197 291L192 286L192 285L195 281L194 281L198 279L197 273L202 272L198 264L202 267C208.194 264.379 207.069 260.632 206 255L197 250C190.94 251.373 168.637 247.323 167 255z"/>
<path style="fill:#8a542d; stroke:none;" d="M168 251L168 252L171 252L168 251z"/>
<path style="fill:#c69a7b; stroke:none;" d="M177 251L178 252L177 251z"/>
<path style="fill:#8a542d; stroke:none;" d="M180 252L180 253L188 251L180 252z"/>
<path style="fill:#b67057; stroke:none;" d="M238 251L239 252L238 251M88.3333 252.667L88.6667 253.333L88.3333 252.667z"/>
<path style="fill:#8a542d; stroke:none;" d="M109 252L110 253L109 252M102 253L103 254L102 253z"/>
<path style="fill:#b67057; stroke:none;" d="M146 256L159 256L160 259C162.624 251.434 149.059 251.758 146 256z"/>
<path style="fill:#c69a7b; stroke:none;" d="M154 253L155 254L154 253M156 253L157 254L156 253z"/>
<path style="fill:#b67057; stroke:none;" d="M207 254L207 255L214 261L215 255L212 253L207 254z"/>
<path style="fill:#8a542d; stroke:none;" d="M236 255L239 253L236 255z"/>
<path style="fill:#b67057; stroke:none;" d="M239.333 253.667L239.667 254.333L239.333 253.667z"/>
<path style="fill:#c69a7b; stroke:none;" d="M5 254L5 257L6 257L5 254z"/>
<path style="fill:#b67057; stroke:none;" d="M89 254L88 256L90 256L89 254z"/>
<path style="fill:#cbc0ac; stroke:none;" d="M240 254L241 255L240 254z"/>
<path style="fill:#b67057; stroke:none;" d="M241 254L242 255L241 254z"/>
<path style="fill:#8a542d; stroke:none;" d="M238 255L239 256L238 255M7 256L2 261L8 260L7 256z"/>
<path style="fill:#b67057; stroke:none;" d="M8 257L9 258L8 257M12 257L9 261L22 261L21 258L12 257z"/>
<path style="fill:#2f1a0e; stroke:none;" d="M219 257L220 258L219 257z"/>
<path style="fill:#8a542d; stroke:none;" d="M237 257L238 258L237 257z"/>
<path style="fill:#b67057; stroke:none;" d="M90 258L92 264L93 264L90 258z"/>
<path style="fill:#c69a7b; stroke:none;" d="M125 258C123.667 264.005 129.112 268.262 134 271C132.602 264.442 131.508 260.872 125 258z"/>
<path style="fill:#b67057; stroke:none;" d="M162.333 258.667L162.667 259.333L162.333 258.667M237 258L238 259L237 258z"/>
<path style="fill:#cbc0ac; stroke:none;" d="M63 259L64 260L63 259z"/>
<path style="fill:#c69a7b; stroke:none;" d="M119 259L120 260L119 259z"/>
<path style="fill:#8a542d; stroke:none;" d="M139 259L141 263L145 263L145 262L139 259M236.333 259.667L236.667 260.333L236.333 259.667z"/>
<path style="fill:#b67057; stroke:none;" d="M5.66667 260.333L6.33333 260.667L5.66667 260.333z"/>
<path style="fill:#8a542d; stroke:none;" d="M10 260L10 261L13 261L10 260z"/>
<path style="fill:#b67057; stroke:none;" d="M0 262L0 277C4.24506 276.26 6.62263 276.137 9 280L0 279C0.0121636 283.238 -0.532798 287.406 4 289L0 292C0.30993 297.229 -2.17401 307.353 2 311L2 303L5 304L5 300L8 299L11 311C15.5037 307.739 13.0138 301.017 13 296L7 296L7 295L12 294L12 293L7 294L7 293L10 293C12.069 288.489 11.089 286.587 8 283L11 283L8 275L10 270L9 270L9 274L8 274L8 261L0 262M154 261L152 266L156 265L154 261M160 261L162 264L162 261L160 261M179.333 261.667L179.667 262.333L179.333 261.667z"/>
<path style="fill:#8a542d; stroke:none;" d="M229 261L229 262L232 262L229 261z"/>
<path style="fill:#b67057; stroke:none;" d="M236 261L237 262L236 261M10 262L10 269L11 269L11 267L12 267L11 273L12 273C13.2328 270.534 15.5413 271.835 15 274L20 273L15 262L10 262z"/>
<path style="fill:#8a542d; stroke:none;" d="M235 262L236 263L235 262z"/>
<path style="fill:#b67057; stroke:none;" d="M20.6667 263.333L21.3333 263.667L20.6667 263.333M90.3333 263.667L90.6667 264.333L90.3333 263.667z"/>
<path style="fill:#2f1a0e; stroke:none;" d="M114 263L114 265L116 265L114 263z"/>
<path style="fill:#8a542d; stroke:none;" d="M199 263L200 264L199 263z"/>
<path style="fill:#b67057; stroke:none;" d="M235.333 263.667L235.667 264.333L235.333 263.667z"/>
<path style="fill:#8a542d; stroke:none;" d="M8 264L8 274L9 274L8 264z"/>
<path style="fill:#cbc0ac; stroke:none;" d="M59.3333 264.667L59.6667 265.333L59.3333 264.667z"/>
<path style="fill:#b67057; stroke:none;" d="M93 264L93 268L93 264z"/>
<path style="fill:#2f1a0e; stroke:none;" d="M112 264L113 265L112 264z"/>
<path style="fill:#8a542d; stroke:none;" d="M143 264L144 265L143 264z"/>
<path style="fill:#b67057; stroke:none;" d="M149 264L149 266L151 264L149 264M185 264L186 265L185 264z"/>
<path style="fill:#8a542d; stroke:none;" d="M234 264L235 265L234 264z"/>
<path style="fill:#c69a7b; stroke:none;" d="M134.333 265.667L134.667 266.333L134.333 265.667z"/>
<path style="fill:#2f1a0e; stroke:none;" d="M213 265L213 267L215 267L213 265z"/>
<path style="fill:#8a542d; stroke:none;" d="M222 265L223 266L222 265M233 265L232 269L233 269L233 265M95 266L96 269L97 269L95 266z"/>
<path style="fill:#2f1a0e; stroke:none;" d="M167 268L163 267L164 273L165 273L165 269L166 269L171 277C179.39 270.707 167.784 264.079 167 268M174 266L176 271L177 271L174 266z"/>
<path style="fill:#8a542d; stroke:none;" d="M227 266L228 267L227 266z"/>
<path style="fill:#b67057; stroke:none;" d="M95 267L96 268L95 267M203 267L203 269L205 269L203 267M233 267L234 268L233 267z"/>
<path style="fill:#2f1a0e; stroke:none;" d="M158 268L158 269L162 271L158 268z"/>
<path style="fill:#b67057; stroke:none;" d="M22 269L22 272L23 272L22 269M92 269L93 273L94 273L92 269M94 269L96 275L97 275L98 273L97 269L94 269z"/>
<path style="fill:#8a542d; stroke:none;" d="M196 269L197 270L196 269M216 269L217 270L216 269M231 269L223 287L225 290C220.171 293.112 218.229 306.825 212 305L211 305L207 312L207 311L209 311L209 310L201 311L197 313L197 314L203 313L195 319L189 320L192 321L192 322L188 321C190.235 323.51 192.249 322.455 195 321L196 322L193 326L180 324L180 325L188 325L188 326L184 326C183.398 330.633 176.736 330.942 173 330L174 326C168.947 327.733 164.95 332.155 160 328L159 328L158 332L146 327L148 332L143 330L143 334L126 324L127 321L117 313L111 296L99 273L98 273C97.0407 284.698 106.828 296.355 112.056 306.17C114.577 310.903 116.131 316.257 121 319L119 323C128.148 326.592 140.283 340.463 143 350L157.471 368L166 379C170.978 382.335 181.516 384.484 184 377L191 382L190 377L191 377L192 379L193 375C197.529 374.797 199.379 372.487 199 368L203 367L202 370L205 369L204 364C208.607 362.467 212.187 360.175 212 355C215.29 352.564 215.198 349.701 214 346L213 346L213 351L212 351L211 348L208 350C209.397 345.081 209.932 340.839 216 341C213.239 336.793 208.264 339.099 204 340L208 336L215 325L213 329L224 315L224 304C227.592 303.549 226.987 300.218 227 297L228 297L228 300L229 300L231 269M96 270L98 273L98 270L96 270M115 270L116 271L115 270M137 272L139 275L135 275L135 278L142 272L137 272z"/>
<path style="fill:#b67057; stroke:none;" d="M154.333 271.667L154.667 272.333L154.333 271.667M206 271L207 272L206 271M232.333 271.667L232.667 272.333L232.333 271.667z"/>
<path style="fill:#cbc0ac; stroke:none;" d="M302 271L299 278L302 284L296 286C295.922 291.01 293.524 293.987 289 296L290 302L290 303L289 310L288 304L284 304L280 310L280 309C274.923 309.061 272.746 309.746 272 315L280 313C279.37 316.778 268.924 320.304 270 316C265.602 316.069 261.577 315.145 262 310L259 313L255 310C261.407 321.403 290.669 327.925 303 329L303 323L299 325L300 320L302 322L303 322C303 307.709 307.5 284.106 302 271z"/>
<path style="fill:#8a542d; stroke:none;" d="M131.667 272.333L132.333 272.667L131.667 272.333M169.333 272.667L169.667 273.333L169.333 272.667z"/>
<path style="fill:#b67057; stroke:none;" d="M202 272L203 273L202 272M22.3333 273.667L22.6667 274.333L22.3333 273.667M89 273L90 274L89 273z"/>
<path style="fill:#8a542d; stroke:none;" d="M94 273L92 276L94 273z"/>
<path style="fill:#b67057; stroke:none;" d="M95 273L96 274L95 273M231 273L232 274L231 273z"/>
<path style="fill:#8a542d; stroke:none;" d="M7 274L8 275L7 274M9 274L8 276L10 276L9 274z"/>
<path style="fill:#b67057; stroke:none;" d="M12 274C13.0989 277.321 14.5902 277.737 18 278L18 277L17 275L12 274z"/>
<path style="fill:#2f1a0e; stroke:none;" d="M94 274L73.787 303.366L48 314.515L0 328L0 388L137 388C125.759 368.271 110.779 352.055 103.519 330C97.6652 312.215 101.215 291.035 94 274z"/>
<path style="fill:#b67057; stroke:none;" d="M127 274L128 275L127 274z"/>
<path style="fill:#c69a7b; stroke:none;" d="M1 275L2 276L1 275z"/>
<path style="fill:#b67057; stroke:none;" d="M158 275L159 276L158 275M231 275L232 276L231 275z"/>
<path style="fill:#8a542d; stroke:none;" d="M0 277L0 278L8 278L0 277M16 276L16 277L20 277L16 276z"/>
<path style="fill:#b67057; stroke:none;" d="M20 276L20 277L23 277L20 276z"/>
<path style="fill:#cbc0ac; stroke:none;" d="M90 276L91 277L90 276z"/>
<path style="fill:#b67057; stroke:none;" d="M95 276L95 279L96 279L95 276M97 276C97.0634 279.774 96.6837 287.311 101 288L101 289C95.3342 294.019 102.979 312.436 103 320L102 320L102 316L101 316C101.137 318.916 101.017 320.63 104 321L107 340C110.284 340 110.22 343.217 110 346L112 347L116 346L115 349L118 348L124 356L125 356C131.104 354.028 139.159 363.537 143 368C147.748 367.623 150.055 369.397 153 373L159 376L160 376L160 373L161 373L168 380L168 379C160.036 370.775 153.663 354.166 143 350C141.492 340.576 128.185 325.399 119 323L121 319L97 276M3 277L3 278L6 278L3 277M23 277L24 278L23 277z"/>
<path style="fill:#8a542d; stroke:none;" d="M91 277L92 278L91 277M140 277L141 278L140 277z"/>
<path style="fill:#c69a7b; stroke:none;" d="M153 277C151.004 279.71 149.067 278.886 146 278C143.45 283.233 148.114 285.263 150 290L151 290L151 287L152 287L152 290L153 290L157 281L154 283L153 283L153 277z"/>
<path style="fill:#b67057; stroke:none;" d="M159 277L160 278L159 277z"/>
<path style="fill:#c69a7b; stroke:none;" d="M189 277L186 279L186 287L187 287L186 283L193 280L189 277M0 278L0 279L9 280L0 278z"/>
<path style="fill:#8a542d; stroke:none;" d="M90 278L91 279L90 278z"/>
<path style="fill:#cbc0ac; stroke:none;" d="M96 278L97 279L96 278M88 279L87 282L88 279z"/>
<path style="fill:#b67057; stroke:none;" d="M89 279L90 280L89 279z"/>
<path style="fill:#8a542d; stroke:none;" d="M95 279L95 282L96 282L95 279z"/>
<path style="fill:#c69a7b; stroke:none;" d="M96 279L99 293L101 289L101 288L98 287L96 279M183 279C181.039 282.824 181.786 284.463 184 288L185 288L182 281L185 281L185 280L183 279z"/>
<path style="fill:#b67057; stroke:none;" d="M230 279L229 300L228 300L228 297L227 297C226.988 299.974 227.465 303.492 224 304L224 315L213 329L215 325C210.647 326.268 209.102 331.899 208 336L204 340L216 341C209.514 340.486 208.782 344.475 208 350L211 348L212 351L213 351L213 346L214 346L212 355C211.861 359.819 207.995 362.004 204 364L202 370L203 367L199 368C198.627 371.916 197.073 374.451 193 375L192 379L191 377L190 377L191 382L184 377L175 383L183 382L183 383L178 383L178 384L205 380L205 379L203 376L207 375L206 372L213 374C217.029 371.885 219.672 369.742 219 365L222 365L224 362L230 329L227.833 323L232 288L230 279M23 280L23 284L24 284L23 280M86 280L87 281L86 280z"/>
<path style="fill:#8a542d; stroke:none;" d="M89 280L90 281L89 280z"/>
<path style="fill:#b67057; stroke:none;" d="M147 280L146 283L147 283L147 280M88 281L89 282L88 281z"/>
<path style="fill:#8a542d; stroke:none;" d="M157 282L158 283L157 282z"/>
<path style="fill:#c69a7b; stroke:none;" d="M162 282L163 283L162 282M8 283L8 285L10 285L8 283z"/>
<path style="fill:#8a542d; stroke:none;" d="M10.3333 283.667L10.6667 284.333L10.3333 283.667z"/>
<path style="fill:#cbc0ac; stroke:none;" d="M86 283L87 284L86 283z"/>
<path style="fill:#8a542d; stroke:none;" d="M87 283L88 284L87 283M159 284L160 285L159 284z"/>
<path style="fill:#b67057; stroke:none;" d="M196 284L198 287L196 284z"/>
<path style="fill:#cbc0ac; stroke:none;" d="M85 285L86 286L85 285z"/>
<path style="fill:#8a542d; stroke:none;" d="M86 285L87 286L86 285z"/>
<path style="fill:#b67057; stroke:none;" d="M96.3333 285.667L96.6667 286.333L96.3333 285.667M24 286L24 291L25 291L24 286z"/>
<path style="fill:#cbc0ac; stroke:none;" d="M84 286L83 288L84 286z"/>
<path style="fill:#8a542d; stroke:none;" d="M154 286L154 292L156 286L154 286z"/>
<path style="fill:#c69a7b; stroke:none;" d="M0 287L0 292L4 289L0 287M7 287L7 288L9 290L10 290L7 287z"/>
<path style="fill:#8a542d; stroke:none;" d="M85 287L86 288L85 287M96.3333 287.667L96.6667 288.333L96.3333 287.667M157 287L157 288L161 288L161 287L157 287z"/>
<path style="fill:#b67057; stroke:none;" d="M168.333 287.667L168.667 288.333L168.333 287.667M171 287L173 290L171 287z"/>
<path style="fill:#c69a7b; stroke:none;" d="M181 287L182 288L181 287M197 287L198 288L197 287z"/>
<path style="fill:#cbc0ac; stroke:none;" d="M232 287L233 288L232 287M73 288L74 289L73 288M82 288L81 291L82 288z"/>
<path style="fill:#8a542d; stroke:none;" d="M133.333 288.667L133.667 289.333L133.333 288.667z"/>
<path style="fill:#2f1a0e; stroke:none;" d="M138 288L139 289L138 288z"/>
<path style="fill:#b67057; stroke:none;" d="M153 288L154 289L153 288M174 288L175 289L174 288z"/>
<path style="fill:#8a542d; stroke:none;" d="M189 288L190 291L191 291L189 288z"/>
<path style="fill:#b67057; stroke:none;" d="M197 288L198 289L197 288z"/>
<path style="fill:#cbc0ac; stroke:none;" d="M233 288L233 290L235 290L233 288M295.333 288.667L295.667 289.333L295.333 288.667z"/>
<path style="fill:#c69a7b; stroke:none;" d="M298 288L298 291L299 291L298 288M185.333 289.667L185.667 290.333L185.333 289.667z"/>
<path style="fill:#8a542d; stroke:none;" d="M222 289L221 291L222 289z"/>
<path style="fill:#c69a7b; stroke:none;" d="M229.333 289.667L229.667 290.333L229.333 289.667z"/>
<path style="fill:#2f1a0e; stroke:none;" d="M231 289L234 339L235 339L237 336L239.137 359.576L236 388L303 388L300 336L299 336L299 339L298 339L301 330L262 316.906L231 289z"/>
<path style="fill:#8a542d; stroke:none;" d="M232 289L233 290L232 289z"/>
<path style="fill:#c69a7b; stroke:none;" d="M7 290L8 291L7 290z"/>
<path style="fill:#8a542d; stroke:none;" d="M11 290L7 293L7 294C9.75829 293.549 11.6883 293.046 11 290z"/>
<path style="fill:#cbc0ac; stroke:none;" d="M74.3333 290.667L74.6667 291.333L74.3333 290.667z"/>
<path style="fill:#8a542d; stroke:none;" d="M82 290L83 291L82 290z"/>
<path style="fill:#b67057; stroke:none;" d="M97 290L98 291L97 290M167 290L168 291L167 290z"/>
<path style="fill:#8a542d; stroke:none;" d="M233 290L234 291L233 290z"/>
<path style="fill:#cbc0ac; stroke:none;" d="M235 290L241 296L238 293L239 291L235 290M80 291L81 292L80 291z"/>
<path style="fill:#8a542d; stroke:none;" d="M97 291L97 294L98 294L97 291z"/>
<path style="fill:#c69a7b; stroke:none;" d="M102 291L102 294L103 294L102 291z"/>
<path style="fill:#b67057; stroke:none;" d="M175 291L176 292L175 291z"/>
<path style="fill:#8a542d; stroke:none;" d="M202 291L203 292L202 291z"/>
<path style="fill:#b67057; stroke:none;" d="M14 292L25 296L26 296C25.0182 291.418 17.9816 293.071 14 292z"/>
<path style="fill:#cbc0ac; stroke:none;" d="M72 292L73 293L72 292z"/>
<path style="fill:#8a542d; stroke:none;" d="M81 292L82 293L81 292M110 292L112 294L110 292z"/>
<path style="fill:#b67057; stroke:none;" d="M182 292L182 295L183 295L182 292z"/>
<path style="fill:#c69a7b; stroke:none;" d="M229 292L229 297L230 297L229 292z"/>
<path style="fill:#8a542d; stroke:none;" d="M230 292L227.88 322.134L230 329L224 362L222 365L219 365L221 369C226.663 360.675 233.955 350.591 234.296 340C234.53 332.715 230.891 325.003 230.85 317.424C230.807 309.719 233.004 299.16 230 292M3.66667 293.333L4.33333 293.667L3.66667 293.333M80 293L81 294L80 293z"/>
<path style="fill:#b67057; stroke:none;" d="M237 293L238 294L237 293z"/>
<path style="fill:#c69a7b; stroke:none;" d="M0.333333 294.667L0.666667 295.333L0.333333 294.667z"/>
<path style="fill:#8a542d; stroke:none;" d="M18 294L19 295L18 294z"/>
<path style="fill:#c69a7b; stroke:none;" d="M79 294L80 295L79 294M104 294L106 296L104 294z"/>
<path style="fill:#8a542d; stroke:none;" d="M140 294L140 297L141 297L140 294z"/>
<path style="fill:#2f1a0e; stroke:none;" d="M180 294L181 298L182 298L180 294z"/>
<path style="fill:#b67057; stroke:none;" d="M193 294L194 295L193 294z"/>
<path style="fill:#c69a7b; stroke:none;" d="M238 294L239 295L238 294M2 295L2 296L6 296L2 295z"/>
<path style="fill:#8a542d; stroke:none;" d="M79 295L80 296L79 295M98 295L98 299L99 299L98 295z"/>
<path style="fill:#2f1a0e; stroke:none;" d="M169 295L170 296L169 295z"/>
<path style="fill:#b67057; stroke:none;" d="M239 295L240 296L239 295z"/>
<path style="fill:#cbc0ac; stroke:none;" d="M244 295L245 296L244 295z"/>
<path style="fill:#8a542d; stroke:none;" d="M25 296L26 297L25 296z"/>
<path style="fill:#c69a7b; stroke:none;" d="M78 296L79 297L78 296z"/>
<path style="fill:#b67057; stroke:none;" d="M150 296L151 297L150 296z"/>
<path style="fill:#2f1a0e; stroke:none;" d="M155 296L156 297L155 296z"/>
<path style="fill:#cbc0ac; stroke:none;" d="M241 296L242 297L241 296z"/>
<path style="fill:#c69a7b; stroke:none;" d="M298 296L299 297L298 296z"/>
<path style="fill:#b67057; stroke:none;" d="M25 297L25 300L26 300L25 297z"/>
<path style="fill:#c69a7b; stroke:none;" d="M77 297L78 298L77 297z"/>
<path style="fill:#b67057; stroke:none;" d="M152 297L153 298L152 297z"/>
<path style="fill:#2f1a0e; stroke:none;" d="M190 297L191 298L190 297M192 297L193 298L192 297z"/>
<path style="fill:#cbc0ac; stroke:none;" d="M242 297L243 298L242 297M244 297L245 301L246 301L246 297L244 297M73 298L74 299L73 298z"/>
<path style="fill:#8a542d; stroke:none;" d="M77 298L78 299L77 298z"/>
<path style="fill:#b67057; stroke:none;" d="M154 298L155 299L154 298z"/>
<path style="fill:#2f1a0e; stroke:none;" d="M155 298L156 299L155 298z"/>
<path style="fill:#b67057; stroke:none;" d="M159 298L160 299L159 298z"/>
<path style="fill:#2f1a0e; stroke:none;" d="M160 298L161 299L160 298z"/>
<path style="fill:#8a542d; stroke:none;" d="M242 298L243 299L242 298z"/>
<path style="fill:#cbc0ac; stroke:none;" d="M247 298L248 299L247 298z"/>
<path style="fill:#c69a7b; stroke:none;" d="M2 299L2 302L4 299L2 299M5 300L5 304L2 303L2 309L3 309L3 306L7 306L11 309L8 299L5 300M63 299L63 301L65 301L65 299L63 299z"/>
<path style="fill:#8a542d; stroke:none;" d="M99 299L100 318L101 318L101 316L102 316L102 320L103 320C102.996 312.737 103.589 305.071 99 299z"/>
<path style="fill:#c69a7b; stroke:none;" d="M159 299L160 300L159 299M294.333 299.667L294.667 300.333L294.333 299.667z"/>
<path style="fill:#b67057; stroke:none;" d="M16.3333 300.667L16.6667 301.333L16.3333 300.667z"/>
<path style="fill:#cbc0ac; stroke:none;" d="M72 300L73 301L72 300z"/>
<path style="fill:#8a542d; stroke:none;" d="M76 300L77 301L76 300z"/>
<path style="fill:#b67057; stroke:none;" d="M159 300L161 302L161 300L159 300M244 300L245 301L244 300z"/>
<path style="fill:#cbc0ac; stroke:none;" d="M248 300L249 301L248 300z"/>
<path style="fill:#b67057; stroke:none;" d="M20 301L21 302L20 301z"/>
<path style="fill:#c69a7b; stroke:none;" d="M75 301L76 302L75 301z"/>
<path style="fill:#cbc0ac; stroke:none;" d="M246 301L248 303L246 301z"/>
<path style="fill:#b67057; stroke:none;" d="M7.33333 302.667L7.66667 303.333L7.33333 302.667M24 303L27 305L26 302L24 303z"/>
<path style="fill:#8a542d; stroke:none;" d="M75 302L76 303L75 302M149.333 302.667L149.667 303.333L149.333 302.667z"/>
<path style="fill:#2f1a0e; stroke:none;" d="M159 302L160 303L159 302z"/>
<path style="fill:#8a542d; stroke:none;" d="M179.667 302.333L180.333 302.667L179.667 302.333z"/>
<path style="fill:#c69a7b; stroke:none;" d="M292 302L293 303L292 302z"/>
<path style="fill:#b67057; stroke:none;" d="M15 303C15.1371 307.176 15.6381 309.272 20 310L15 303z"/>
<path style="fill:#c69a7b; stroke:none;" d="M73 303L74 304L73 303z"/>
<path style="fill:#8a542d; stroke:none;" d="M74 303L75 304L74 303z"/>
<path style="fill:#b67057; stroke:none;" d="M157.333 303.667L157.667 304.333L157.333 303.667z"/>
<path style="fill:#2f1a0e; stroke:none;" d="M158 303L159 304L158 303z"/>
<path style="fill:#8a542d; stroke:none;" d="M183 303L184 304L183 303z"/>
<path style="fill:#cbc0ac; stroke:none;" d="M248 303L251 306L251 303L248 303M289 303L290 304L289 303z"/>
<path style="fill:#c69a7b; stroke:none;" d="M62 304L63 305L62 304M65 304L62 308L65 304M72 304L73 305L72 304z"/>
<path style="fill:#8a542d; stroke:none;" d="M247 304L248 305L247 304z"/>
<path style="fill:#cbc0ac; stroke:none;" d="M251 304L254 307L251 304M272.333 304.667L272.667 305.333L272.333 304.667M279 304L279 306L282 306L282 304L279 304z"/>
<path style="fill:#8a542d; stroke:none;" d="M26 305L26 308L27 308L26 305z"/>
<path style="fill:#c69a7b; stroke:none;" d="M70 305L71 306L70 305z"/>
<path style="fill:#8a542d; stroke:none;" d="M248 305L249 306L248 305z"/>
<path style="fill:#b67057; stroke:none;" d="M3 306L3 311L10 311L7 306L3 306z"/>
<path style="fill:#8a542d; stroke:none;" d="M68 306L69 307L68 306z"/>
<path style="fill:#cbc0ac; stroke:none;" d="M251 306L251 308L253 308L251 306M255 306L257 308L257 306L255 306z"/>
<path style="fill:#c69a7b; stroke:none;" d="M66 307L67 308L66 307z"/>
<path style="fill:#8a542d; stroke:none;" d="M67 307L68 308L67 307M250 307L251 308L250 307z"/>
<path style="fill:#b67057; stroke:none;" d="M26 308L27 309L26 308z"/>
<path style="fill:#8a542d; stroke:none;" d="M65 308L66 309L65 308M251 308L252 309L251 308z"/>
<path style="fill:#cbc0ac; stroke:none;" d="M253 308L255 310L255 308L253 308z"/>
<path style="fill:#c69a7b; stroke:none;" d="M302.333 308.667L302.667 309.333L302.333 308.667z"/>
<path style="fill:#8a542d; stroke:none;" d="M1 309L3 311L3 309L1 309M6 309L7 310L6 309M10 309L10 311L12 309L10 309z"/>
<path style="fill:#c69a7b; stroke:none;" d="M61 309L62 310L61 309z"/>
<path style="fill:#b67057; stroke:none;" d="M62 309L63 310L62 309z"/>
<path style="fill:#8a542d; stroke:none;" d="M63.6667 309.333L64.3333 309.667L63.6667 309.333M252 309L253 310L252 309M16 310L16 311L21 311L16 310z"/>
<path style="fill:#b67057; stroke:none;" d="M21 310L21 311L25 312L21 310z"/>
<path style="fill:#c69a7b; stroke:none;" d="M58 310L59 311L58 310z"/>
<path style="fill:#b67057; stroke:none;" d="M59 310L60 311L59 310z"/>
<path style="fill:#8a542d; stroke:none;" d="M60 310L61 311L60 310M253 310L254 311L253 310z"/>
<path style="fill:#cbc0ac; stroke:none;" d="M14 311L15 312L14 311z"/>
<path style="fill:#b67057; stroke:none;" d="M20 311L21 312L20 311z"/>
<path style="fill:#c69a7b; stroke:none;" d="M55 311L56 312L55 311z"/>
<path style="fill:#8a542d; stroke:none;" d="M56.6667 311.333L57.3333 311.667L56.6667 311.333M254 311L255 312L254 311z"/>
<path style="fill:#cbc0ac; stroke:none;" d="M263 311L263 312L263 313L267 313L265 316L270 315L270 314L263 311z"/>
<path style="fill:#b67057; stroke:none;" d="M13 312L12 322L15 323L13 312z"/>
<path style="fill:#cbc0ac; stroke:none;" d="M20 312L21 313L20 312M23 312L23 313L26 313L23 312z"/>
<path style="fill:#b67057; stroke:none;" d="M53 312L54 313L53 312z"/>
<path style="fill:#8a542d; stroke:none;" d="M54 312L55 313L54 312M122 312L123 313L122 312M255 312L256 313L255 312z"/>
<path style="fill:#cbc0ac; stroke:none;" d="M269 312L270 313L269 312z"/>
<path style="fill:#c69a7b; stroke:none;" d="M296 312L297 313L296 312M50 313L51 314L50 313z"/>
<path style="fill:#8a542d; stroke:none;" d="M51 313L52 314L51 313z"/>
<path style="fill:#2f1a0e; stroke:none;" d="M220.333 313.667L220.667 314.333L220.333 313.667z"/>
<path style="fill:#c69a7b; stroke:none;" d="M257 313L258 314L257 313z"/>
<path style="fill:#b67057; stroke:none;" d="M3 314L4 315L3 314M7 314L8 315L7 314z"/>
<path style="fill:#c69a7b; stroke:none;" d="M46.6667 314.333L47.3333 314.667L46.6667 314.333z"/>
<path style="fill:#8a542d; stroke:none;" d="M226 314L227 315L226 314M228 314L229 315L228 314M258 314L260 316L258 314z"/>
<path style="fill:#c69a7b; stroke:none;" d="M259 314L260 315L259 314z"/>
<path style="fill:#cbc0ac; stroke:none;" d="M263 314L264 315L263 314z"/>
<path style="fill:#c69a7b; stroke:none;" d="M43 315L44 316L43 315z"/>
<path style="fill:#b67057; stroke:none;" d="M44 315L45 316L44 315z"/>
<path style="fill:#8a542d; stroke:none;" d="M45 315L46 316L45 315z"/>
<path style="fill:#c69a7b; stroke:none;" d="M260 315L261 316L260 315z"/>
<path style="fill:#cbc0ac; stroke:none;" d="M271 315L272 316L271 315z"/>
<path style="fill:#c69a7b; stroke:none;" d="M296.667 315.333L297.333 315.667L296.667 315.333M40 316L41 317L40 316z"/>
<path style="fill:#b67057; stroke:none;" d="M41 316L42 317L41 316z"/>
<path style="fill:#8a542d; stroke:none;" d="M42 316L43 317L42 316z"/>
<path style="fill:#2f1a0e; stroke:none;" d="M206.333 316.667L206.667 317.333L206.333 316.667z"/>
<path style="fill:#b67057; stroke:none;" d="M217 316L218 317L217 316M261 316L262 317L261 316M5 317L6 318L5 317z"/>
<path style="fill:#c69a7b; stroke:none;" d="M37 317L38 318L37 317z"/>
<path style="fill:#8a542d; stroke:none;" d="M38.6667 317.333L39.3333 317.667L38.6667 317.333z"/>
<path style="fill:#b67057; stroke:none;" d="M230 317L231 318L230 317z"/>
<path style="fill:#8a542d; stroke:none;" d="M262 317L263 318L262 317z"/>
<path style="fill:#c69a7b; stroke:none;" d="M263 317L264 318L263 317M34 318L35 319L34 318z"/>
<path style="fill:#8a542d; stroke:none;" d="M35 318L36 319L35 318z"/>
<path style="fill:#2f1a0e; stroke:none;" d="M212 318L212 322L213 322L212 318z"/>
<path style="fill:#8a542d; stroke:none;" d="M227 318L228 319L227 318M264 318L265 319L264 318z"/>
<path style="fill:#c69a7b; stroke:none;" d="M265 318L266 319L265 318z"/>
<path style="fill:#b67057; stroke:none;" d="M9 319L10 320L9 319z"/>
<path style="fill:#8a542d; stroke:none;" d="M32 319L33 320L32 319z"/>
<path style="fill:#2f1a0e; stroke:none;" d="M192 319L193 320L192 319M206 319L207 320L206 319z"/>
<path style="fill:#b67057; stroke:none;" d="M219 319L220 320L219 319z"/>
<path style="fill:#8a542d; stroke:none;" d="M266 319L267 320L266 319z"/>
<path style="fill:#b67057; stroke:none;" d="M267 319L268 320L267 319z"/>
<path style="fill:#c69a7b; stroke:none;" d="M277 319L278 320L277 319z"/>
<path style="fill:#b67057; stroke:none;" d="M28 320L29 321L28 320z"/>
<path style="fill:#8a542d; stroke:none;" d="M29 320L30 321L29 320z"/>
<path style="fill:#b67057; stroke:none;" d="M122 320L123 321L122 320z"/>
<path style="fill:#8a542d; stroke:none;" d="M181 320L184 323L185 320L181 320z"/>
<path style="fill:#2f1a0e; stroke:none;" d="M196.667 320.333L197.333 320.667L196.667 320.333z"/>
<path style="fill:#8a542d; stroke:none;" d="M226.333 320.667L226.667 321.333L226.333 320.667M270 320L271 321L270 320z"/>
<path style="fill:#c69a7b; stroke:none;" d="M271 320L272 321L271 320M279 320L280 321L279 320M292 320L293 321L292 320M294.333 320.667L294.667 321.333L294.333 320.667M300 320L299 325C301.636 323.487 302.654 322.06 300 320z"/>
<path style="fill:#cbc0ac; stroke:none;" d="M21 321L21 322L24 322L21 321z"/>
<path style="fill:#b67057; stroke:none;" d="M24 321L25 322L24 321z"/>
<path style="fill:#8a542d; stroke:none;" d="M25 321L26 322L25 321M101 321L102 327L103 327L104 321L101 321M175 323L179 322L175 323M273 321L274 322L273 321z"/>
<path style="fill:#b67057; stroke:none;" d="M274 321L275 322L274 321z"/>
<path style="fill:#c69a7b; stroke:none;" d="M275 321L276 322L275 321M282 321L282 322L285 322L282 321z"/>
<path style="fill:#cbc0ac; stroke:none;" d="M16 322L17 323L16 322z"/>
<path style="fill:#b67057; stroke:none;" d="M21 322L22 323L21 322z"/>
<path style="fill:#8a542d; stroke:none;" d="M22 322L23 323L22 322M276.667 322.333L277.333 322.667L276.667 322.333z"/>
<path style="fill:#c69a7b; stroke:none;" d="M278.667 322.333L279.333 322.667L278.667 322.333M286.667 322.333L287.333 322.667L286.667 322.333M290 322L291 323L290 322z"/>
<path style="fill:#b67057; stroke:none;" d="M2 323L0 324C1.35714 326.416 3.23915 325.372 2 323M16 323L17 324L16 323z"/>
<path style="fill:#8a542d; stroke:none;" d="M17.6667 323.333L18.3333 323.667L17.6667 323.333z"/>
<path style="fill:#b67057; stroke:none;" d="M213 323L214 324L213 323z"/>
<path style="fill:#8a542d; stroke:none;" d="M280.667 323.333L281.333 323.667L280.667 323.333z"/>
<path style="fill:#b67057; stroke:none;" d="M282 323L283 324L282 323z"/>
<path style="fill:#c69a7b; stroke:none;" d="M283 323L284 324L283 323M293 323L294 326L293 323M295 323L296 324L295 323z"/>
<path style="fill:#b67057; stroke:none;" d="M5 324L6 325L5 324M12 324L13 325L12 324z"/>
<path style="fill:#8a542d; stroke:none;" d="M13.6667 324.333L14.3333 324.667L13.6667 324.333M284 324L285 325L284 324z"/>
<path style="fill:#b67057; stroke:none;" d="M285 324L286 325L285 324z"/>
<path style="fill:#c69a7b; stroke:none;" d="M286.667 324.333L287.333 324.667L286.667 324.333z"/>
<path style="fill:#b67057; stroke:none;" d="M9 325L10 326L9 325z"/>
<path style="fill:#8a542d; stroke:none;" d="M10 325L11 326L10 325M104.333 325.667L104.667 326.333L104.333 325.667z"/>
<path style="fill:#2f1a0e; stroke:none;" d="M194 325L192 327L192 328L197 325L194 325z"/>
<path style="fill:#c69a7b; stroke:none;" d="M288 325L289 326L288 325M0 326L1 327L0 326z"/>
<path style="fill:#cbc0ac; stroke:none;" d="M1 326L1 327L4 327L1 326z"/>
<path style="fill:#b67057; stroke:none;" d="M4.66667 326.333L5.33333 326.667L4.66667 326.333z"/>
<path style="fill:#8a542d; stroke:none;" d="M6.66667 326.333L7.33333 326.667L6.66667 326.333M175 326L180 327L180 326L175 326M290 326L291 327L290 326z"/>
<path style="fill:#c69a7b; stroke:none;" d="M291 326L292 327L291 326z"/>
<path style="fill:#b67057; stroke:none;" d="M0 327L1 328L0 327z"/>
<path style="fill:#8a542d; stroke:none;" d="M1.66667 327.333L2.33333 327.667L1.66667 327.333M139 327L140 328L139 327M222 327L222 329L224 329L222 327M294 327L295 328L294 327z"/>
<path style="fill:#c69a7b; stroke:none;" d="M295 327L296 328L295 327M300 327L301 328L300 327z"/>
<path style="fill:#2f1a0e; stroke:none;" d="M189 328L190 329L189 328z"/>
<path style="fill:#8a542d; stroke:none;" d="M226 328L227 329L226 328M297 328L298 329L297 328z"/>
<path style="fill:#b67057; stroke:none;" d="M298 328L299 329L298 328z"/>
<path style="fill:#8a542d; stroke:none;" d="M103.333 329.667L103.667 330.333L103.333 329.667M300 329L298 339L299 339L299 336L300 336L302 343L303 343L303 333L302 333L302 337L301 337L300 329z"/>
<path style="fill:#b67057; stroke:none;" d="M301 329L301 337L302 337L301 329z"/>
<path style="fill:#c69a7b; stroke:none;" d="M302 329L303 330L302 329z"/>
<path style="fill:#8a542d; stroke:none;" d="M104.333 331.667L104.667 332.333L104.333 331.667z"/>
<path style="fill:#2f1a0e; stroke:none;" d="M167 331L168 332L167 331M150 332L150 334L152 334L150 332z"/>
<path style="fill:#8a542d; stroke:none;" d="M218 332L214 337L220 332L218 332M227 332L227 336L228 336L227 332M292 332L293 333L292 332M105 333L105 336L106 336L105 333M222 333L220 342L224 333L222 333M107 334L108 335L107 334z"/>
<path style="fill:#c69a7b; stroke:none;" d="M106 335L107 336L106 335z"/>
<path style="fill:#8a542d; stroke:none;" d="M234 335L235 336L234 335M235 336L237 338L237 336L235 336M106 337L107 338L106 337z"/>
<path style="fill:#b67057; stroke:none;" d="M235 337L236 341L237 341L235 337z"/>
<path style="fill:#c69a7b; stroke:none;" d="M235 338L234 342L235 338z"/>
<path style="fill:#b67057; stroke:none;" d="M302 338L303 339L302 338z"/>
<path style="fill:#c69a7b; stroke:none;" d="M108 339L110 345L111 345L108 339z"/>
<path style="fill:#8a542d; stroke:none;" d="M107 340L108 341L107 340M218 340L216 345C219.012 344.354 219.498 342.613 218 340M293.333 340.667L293.667 341.333L293.333 340.667z"/>
<path style="fill:#b67057; stroke:none;" d="M301 340L302 341L301 340z"/>
<path style="fill:#8a542d; stroke:none;" d="M236 341L237 346L238 352C233.623 354.772 232.668 359.066 232 364L235 363L233 368L234 368L240 360L236 341z"/>
<path style="fill:#b67057; stroke:none;" d="M108 342L109 343L108 342z"/>
<path style="fill:#cbc0ac; stroke:none;" d="M234 342L234 345L235 345L234 342z"/>
<path style="fill:#b67057; stroke:none;" d="M235 342L236 343L235 342z"/>
<path style="fill:#8a542d; stroke:none;" d="M109.333 343.667L109.667 344.333L109.333 343.667z"/>
<path style="fill:#b67057; stroke:none;" d="M233 343L234 344L233 343M302 343L303 344L302 343z"/>
<path style="fill:#c69a7b; stroke:none;" d="M233 344L235 348L232 347C230.686 354.827 223.206 370.198 232 375L235 370L234 378L236 366L239 360L238 360L232 372L231 372C232.072 364.885 237.889 349.383 233 344z"/>
<path style="fill:#8a542d; stroke:none;" d="M294 344L295 345L294 344z"/>
<path style="fill:#c69a7b; stroke:none;" d="M302.333 344.667L302.667 345.333L302.333 344.667M111 345C111.789 348.901 112.976 351.274 117 352C118.409 360.387 139.719 374.458 148 374C152.157 380.345 163.039 381.688 170 383L170 382L161 373L160 373L160 376L159 376L153 373C150.642 368.759 147.835 367.009 143 368C140.769 363.429 129.768 352.243 125 356L124 356L118 348L115 349L116 346L111 345z"/>
<path style="fill:#b67057; stroke:none;" d="M206 345L206 347L208 347L206 345z"/>
<path style="fill:#8a542d; stroke:none;" d="M301 345L302 346L301 345M110 346L111 347L110 346z"/>
<path style="fill:#b67057; stroke:none;" d="M232 346L233 347L232 346z"/>
<path style="fill:#cbc0ac; stroke:none;" d="M233.333 346.667L233.667 347.333L233.333 346.667z"/>
<path style="fill:#b67057; stroke:none;" d="M235 346L237 348L237 346L235 346M301.667 346.333L302.333 346.667L301.667 346.333z"/>
<path style="fill:#c69a7b; stroke:none;" d="M119 347L120 348L119 347M122 347L122 349L124 347L122 347z"/>
<path style="fill:#b67057; stroke:none;" d="M234 347L235 348L234 347z"/>
<path style="fill:#cbc0ac; stroke:none;" d="M301 347L302 364L303 364L301 347z"/>
<path style="fill:#c69a7b; stroke:none;" d="M302 347L303 348L302 347z"/>
<path style="fill:#8a542d; stroke:none;" d="M111 348L112 349L111 348z"/>
<path style="fill:#b67057; stroke:none;" d="M113 348L114 349L113 348z"/>
<path style="fill:#8a542d; stroke:none;" d="M139 348L139 349L142 349L139 348M217 348L217 352L218 352L217 348z"/>
<path style="fill:#b67057; stroke:none;" d="M302 348L303 349L302 348M231 349L232 350L231 349M235 349L234 352L238 352L235 349z"/>
<path style="fill:#8a542d; stroke:none;" d="M302 349L302 353L303 353L302 349z"/>
<path style="fill:#b67057; stroke:none;" d="M112 350L113 351L112 350M114 350L116 352L114 350M201 350L202 351L201 350z"/>
<path style="fill:#cbc0ac; stroke:none;" d="M232 350L233 351L232 350z"/>
<path style="fill:#b67057; stroke:none;" d="M113 351L114 352L113 351M117 351L118 352L117 351z"/>
<path style="fill:#8a542d; stroke:none;" d="M113 352L114 353L113 352z"/>
<path style="fill:#cbc0ac; stroke:none;" d="M114 352C116.975 360.989 129.483 382.577 138.015 386.972C146.25 391.214 158.499 386.617 167.09 386.723C171.774 386.781 176.11 388.448 180.91 387.871C185.949 387.266 190.749 384.866 195.985 385.233C209.126 386.153 222.258 388 236 388L235 370L232 375C224.061 368.446 230.572 361.037 232 353L231 353C228.516 358.757 224.893 364.284 220.7 368.961C189.226 404.061 142.02 373.195 114 352z"/>
<path style="fill:#b67057; stroke:none;" d="M116.333 352.667L116.667 353.333L116.333 352.667z"/>
<path style="fill:#c69a7b; stroke:none;" d="M123 352L124 353L123 352M126 353L127 354L126 353z"/>
<path style="fill:#b67057; stroke:none;" d="M230 353L231 354L230 353M302 353L303 354L302 353z"/>
<path style="fill:#8a542d; stroke:none;" d="M114 354L115 355L114 354z"/>
<path style="fill:#b67057; stroke:none;" d="M227.333 354.667L227.667 355.333L227.333 354.667z"/>
<path style="fill:#c69a7b; stroke:none;" d="M230 354L231 355L230 354z"/>
<path style="fill:#b67057; stroke:none;" d="M234 354L235 355L234 354z"/>
<path style="fill:#c69a7b; stroke:none;" d="M302 354L303 355L302 354z"/>
<path style="fill:#8a542d; stroke:none;" d="M147 355L148 356L147 355z"/>
<path style="fill:#b67057; stroke:none;" d="M233.333 355.667L233.667 356.333L233.333 355.667z"/>
<path style="fill:#8a542d; stroke:none;" d="M301 355L302 356L301 355M115 356L116 357L115 356z"/>
<path style="fill:#b67057; stroke:none;" d="M120 356L121 357L120 356z"/>
<path style="fill:#c69a7b; stroke:none;" d="M229 356L230 357L229 356M116 357L117 358L116 357z"/>
<path style="fill:#b67057; stroke:none;" d="M226 357L227 358L226 357z"/>
<path style="fill:#c69a7b; stroke:none;" d="M117 358L118 359L117 358M228 358L229 359L228 358z"/>
<path style="fill:#b67057; stroke:none;" d="M232 358L232 361L233 361L232 358z"/>
<path style="fill:#8a542d; stroke:none;" d="M117 359L118 360L117 359z"/>
<path style="fill:#b67057; stroke:none;" d="M227 359L228 360L227 359M238 359L239 360L238 359z"/>
<path style="fill:#c69a7b; stroke:none;" d="M118 360L119 361L118 360z"/>
<path style="fill:#8a542d; stroke:none;" d="M118 361L119 362L118 361M211 361L209 367L213 367L214 361L211 361z"/>
<path style="fill:#c69a7b; stroke:none;" d="M226 361L227 362L226 361z"/>
<path style="fill:#b67057; stroke:none;" d="M237 361L238 362L237 361M119 362L120 363L119 362z"/>
<path style="fill:#c69a7b; stroke:none;" d="M122 362L123 363L122 362z"/>
<path style="fill:#2f1a0e; stroke:none;" d="M182.333 362.667L182.667 363.333L182.333 362.667z"/>
<path style="fill:#b67057; stroke:none;" d="M225 362L226 363L225 362M238 362L239 363L238 362z"/>
<path style="fill:#c69a7b; stroke:none;" d="M120 363L121 364L120 363z"/>
<path style="fill:#2f1a0e; stroke:none;" d="M166 363C166.639 366.649 168.142 367.587 171 365L166 363M174 363L174 365L176 363L174 363z"/>
<path style="fill:#b67057; stroke:none;" d="M224 363L225 364L224 363M234 363L231 364L231 372L232 372L234 363M236 363L237 364L236 363z"/>
<path style="fill:#8a542d; stroke:none;" d="M238.333 363.667L238.667 364.333L238.333 363.667M301 363L302 364L301 363M120 364L121 365L120 364z"/>
<path style="fill:#c69a7b; stroke:none;" d="M224 364L225 365L224 364z"/>
<path style="fill:#cbc0ac; stroke:none;" d="M237 364L238 365L237 364z"/>
<path style="fill:#b67057; stroke:none;" d="M301 364L303 366L301 364z"/>
<path style="fill:#c69a7b; stroke:none;" d="M302 364L303 365L302 364z"/>
<path style="fill:#8a542d; stroke:none;" d="M121 365L122 366L121 365z"/>
<path style="fill:#c69a7b; stroke:none;" d="M223 365L224 366L223 365z"/>
<path style="fill:#b67057; stroke:none;" d="M235 365L236 366L235 365z"/>
<path style="fill:#c69a7b; stroke:none;" d="M301 365L302 366L301 365z"/>
<path style="fill:#b67057; stroke:none;" d="M122 366L123 367L122 366z"/>
<path style="fill:#c69a7b; stroke:none;" d="M222 366L223 367L222 366z"/>
<path style="fill:#cbc0ac; stroke:none;" d="M229 366L228 369L229 366z"/>
<path style="fill:#b67057; stroke:none;" d="M234.333 366.667L234.667 367.333L234.333 366.667z"/>
<path style="fill:#cbc0ac; stroke:none;" d="M236.333 366.667L236.667 367.333L236.333 366.667z"/>
<path style="fill:#b67057; stroke:none;" d="M237 366L238 367L237 366z"/>
<path style="fill:#cbc0ac; stroke:none;" d="M301 366L301 370L302 370L301 366z"/>
<path style="fill:#8a542d; stroke:none;" d="M302.333 366.667L302.667 367.333L302.333 366.667z"/>
<path style="fill:#c69a7b; stroke:none;" d="M123 367L124 368L123 367z"/>
<path style="fill:#2f1a0e; stroke:none;" d="M186 367L185 371L186 371L186 367z"/>
<path style="fill:#8a542d; stroke:none;" d="M206 367L207 368L206 367z"/>
<path style="fill:#c69a7b; stroke:none;" d="M225 367L226 368L225 367z"/>
<path style="fill:#8a542d; stroke:none;" d="M237 367L238 368L237 367z"/>
<path style="fill:#c69a7b; stroke:none;" d="M124 368L125 369L124 368M221 368L222 369L221 368z"/>
<path style="fill:#cbc0ac; stroke:none;" d="M235 368L236 369L235 368z"/>
<path style="fill:#b67057; stroke:none;" d="M302 368L301 373L302 373L302 368z"/>
<path style="fill:#8a542d; stroke:none;" d="M124 369L125 370L124 369z"/>
<path style="fill:#c69a7b; stroke:none;" d="M216 373L221 369L216 373z"/>
<path style="fill:#8a542d; stroke:none;" d="M236.333 369.667L236.667 370.333L236.333 369.667z"/>
<path style="fill:#c69a7b; stroke:none;" d="M125 370L126 371L125 370M302 370L303 371L302 370M126 371L127 372L126 371z"/>
<path style="fill:#b67057; stroke:none;" d="M145.667 371.333L146.333 371.667L145.667 371.333z"/>
<path style="fill:#c69a7b; stroke:none;" d="M206 372L207 375L203 376L203 379L208 377L216 373L213 374C212.182 370.239 209.223 371.309 206 372z"/>
<path style="fill:#8a542d; stroke:none;" d="M299 371L300 372L299 371z"/>
<path style="fill:#cbc0ac; stroke:none;" d="M302 371L302 377L303 377L302 371z"/>
<path style="fill:#8a542d; stroke:none;" d="M126 372L127 373L126 372z"/>
<path style="fill:#c69a7b; stroke:none;" d="M136 372L137 376L143 378L143 377L136 372z"/>
<path style="fill:#b67057; stroke:none;" d="M127 373L128 374L127 373z"/>
<path style="fill:#8a542d; stroke:none;" d="M301 373L302 374L301 373z"/>
<path style="fill:#b67057; stroke:none;" d="M147 374L148 375L147 374M210 374L211 375L210 374z"/>
<path style="fill:#8a542d; stroke:none;" d="M298 374L299 379L300 379L301 374L300 374L300 377L299 377L298 374M128 375L129 376L128 375z"/>
<path style="fill:#c69a7b; stroke:none;" d="M225 375L226 376L225 375z"/>
<path style="fill:#b67057; stroke:none;" d="M235 375L235 381L236 381L235 375z"/>
<path style="fill:#c69a7b; stroke:none;" d="M129 376L130 377L129 376z"/>
<path style="fill:#8a542d; stroke:none;" d="M196 376L197 377L196 376M129 377L130 378L129 377z"/>
<path style="fill:#b67057; stroke:none;" d="M208 377L209 378L208 377z"/>
<path style="fill:#8a542d; stroke:none;" d="M302 377L303 378L302 377M130 378L131 379L130 378z"/>
<path style="fill:#b67057; stroke:none;" d="M182.333 378.667L182.667 379.333L182.333 378.667z"/>
<path style="fill:#c69a7b; stroke:none;" d="M131 379L132 380L131 379M149 379L150 380L149 379z"/>
<path style="fill:#b67057; stroke:none;" d="M157 379L158 380L157 379z"/>
<path style="fill:#8a542d; stroke:none;" d="M196 379L197 380L196 379z"/>
<path style="fill:#c69a7b; stroke:none;" d="M198 379L199 380L198 379M213 379L214 380L213 379M151 380L154 382L151 380z"/>
<path style="fill:#8a542d; stroke:none;" d="M199.667 380.333L200.333 380.667L199.667 380.333z"/>
<path style="fill:#c69a7b; stroke:none;" d="M202 380L203 381L202 380M215.333 380.667L215.667 381.333L215.333 380.667z"/>
<path style="fill:#8a542d; stroke:none;" d="M299 380L298 387L299 387L299 380M132 381L133 382L132 381z"/>
<path style="fill:#c69a7b; stroke:none;" d="M148 381L149 382L148 381z"/>
<path style="fill:#b67057; stroke:none;" d="M168.667 381.333L169.333 381.667L168.667 381.333z"/>
<path style="fill:#c69a7b; stroke:none;" d="M198 381L198 382L201 382L198 381M235 381L235 384L236 384L235 381M150 382L152 384L150 382M156 382L157 383L156 382z"/>
<path style="fill:#b67057; stroke:none;" d="M170 382L171 383L170 382z"/>
<path style="fill:#8a542d; stroke:none;" d="M177 382L177 383L183 383L177 382z"/>
<path style="fill:#c69a7b; stroke:none;" d="M195 382L195 383L198 383L195 382M202 383L203 386L209 386L210 382L202 383M171.667 383.333L172.333 383.667L171.667 383.333z"/>
<path style="fill:#b67057; stroke:none;" d="M173 383L174 384L173 383z"/>
<path style="fill:#c69a7b; stroke:none;" d="M174 383L174 384L178 384L174 383M185 383L186 384L185 383M189 383L189 384L192 384L189 383M153 384L154 385L153 384z"/>
<path style="fill:#8a542d; stroke:none;" d="M295 384L296 385L295 384M135 385L136 386L135 385z"/>
<path style="fill:#c69a7b; stroke:none;" d="M156 385L156 386L160 387L156 385M184 386L184 388L201 388C197.635 382.81 189.37 385.956 184 386z"/>
<path style="fill:#8a542d; stroke:none;" d="M136 386L137 387L136 386z"/>
<path style="fill:#c69a7b; stroke:none;" d="M161 386L162 387L161 386M164 386L164 388L172 388L164 386M175 386L175 387L181 387L175 386z"/>
<path style="fill:#8a542d; stroke:none;" d="M137 387L138 388L137 387z"/>
<path style="fill:#cbc0ac; stroke:none;" d="M194 387L194 388L200 388L194 387z"/>
</svg>
