<?xml version="1.0" standalone="no"?>
<!DOCTYPE svg PUBLIC "-//W3C//DTD SVG 20010904//EN"
 "http://www.w3.org/TR/2001/REC-SVG-20010904/DTD/svg10.dtd">
<svg version="1.0" xmlns="http://www.w3.org/2000/svg"
 width="489.000000pt" height="575.000000pt" viewBox="0 0 489.000000 575.000000"
 preserveAspectRatio="xMidYMid meet">

<g transform="translate(0.000000,575.000000) scale(0.100000,-0.100000)"
fill="#000000" stroke="none">
<path d="M2710 5245 c-30 -8 -71 -15 -90 -15 -32 -1 -31 -2 19 -16 30 -8 57
-17 60 -19 2 -3 -31 -5 -75 -5 -86 0 -108 -8 -98 -33 9 -23 -2 -21 -70 13 -46
24 -72 30 -120 30 -70 0 -99 -12 -71 -28 17 -9 16 -11 -6 -25 -43 -28 -229
-69 -229 -50 0 8 106 55 170 76 8 3 1 6 -16 6 -66 2 -283 -75 -326 -116 -15
-14 -62 -49 -105 -77 -91 -60 -114 -97 -139 -228 -14 -73 -71 -256 -135 -433
-25 -70 -23 -128 11 -299 l22 -108 -22 -52 c-17 -38 -24 -81 -29 -175 -6 -108
-10 -126 -28 -140 -36 -29 -48 -86 -47 -221 1 -139 12 -224 51 -383 17 -66 30
-102 34 -94 12 21 -8 175 -31 237 -10 30 -19 76 -20 101 0 43 35 258 44 266 2
3 10 -21 16 -52 10 -48 9 -69 -10 -156 -26 -120 -22 -179 17 -212 47 -41 56
-72 49 -164 -8 -94 3 -109 28 -36 20 59 21 117 1 133 -25 21 -17 84 34 291 32
129 65 234 96 305 41 94 48 122 54 203 l7 94 50 43 c115 100 207 133 275 99
51 -27 82 -54 94 -82 l11 -26 27 42 c26 39 49 51 61 32 3 -5 26 -6 51 -3 l45
5 88 -89 c100 -102 163 -140 297 -179 121 -35 207 -40 334 -21 120 18 168 33
176 55 13 32 17 139 7 157 -8 15 -11 11 -19 -27 l-9 -44 -20 60 -19 60 -51 -1
c-48 -1 -164 -46 -164 -63 0 -5 24 -2 53 6 61 16 139 14 145 -4 2 -9 -6 -13
-25 -13 -82 0 -231 -26 -270 -47 -72 -39 -71 -26 3 45 130 125 270 168 397
123 110 -38 192 -91 143 -91 -29 0 -28 -26 2 -74 32 -51 38 -69 83 -271 17
-77 37 -169 45 -205 62 -279 61 -291 -32 -650 -13 -52 -26 -127 -27 -167 -2
-86 10 -103 114 -158 86 -45 160 -117 179 -175 17 -53 46 -91 64 -84 19 7 90
-30 121 -63 44 -48 34 -90 -59 -247 -30 -50 -59 -109 -66 -131 -17 -58 -82
-195 -92 -195 -11 0 -10 7 8 65 8 28 19 97 24 155 5 58 14 139 20 180 10 73 5
156 -10 165 -4 2 -10 -25 -13 -61 -4 -36 -23 -113 -42 -171 -20 -58 -45 -138
-55 -178 -26 -101 -49 -141 -115 -204 -31 -29 -54 -55 -52 -57 2 -2 25 12 51
32 67 53 69 33 3 -31 -31 -31 -57 -58 -57 -60 0 -9 54 7 100 31 25 12 76 44
114 71 83 58 117 112 147 234 19 80 65 189 80 189 13 0 79 149 79 179 0 31 0
31 48 25 26 -3 66 -10 89 -16 59 -15 140 0 357 63 54 16 109 29 121 29 36 0
127 -32 132 -47 3 -8 -6 -26 -19 -41 -61 -67 -100 -157 -84 -198 6 -15 13 -7
36 41 29 60 58 95 123 150 33 28 36 34 37 87 0 56 0 57 -35 68 -37 12 -45 27
-19 37 11 4 12 8 4 13 -9 6 -9 21 1 66 15 73 14 89 -7 136 -22 48 -39 48 -55
1 -6 -21 -14 -42 -17 -47 -11 -19 -22 23 -22 83 l0 64 -23 -21 c-13 -12 -28
-22 -35 -22 -6 0 -16 -9 -23 -21 -10 -20 -15 -21 -142 -14 -131 7 -132 7 -155
-17 -15 -17 -26 -46 -33 -89 -15 -96 -17 -101 -47 -97 -25 3 -27 7 -30 55 -2
29 1 92 7 140 5 49 7 90 4 93 -10 10 -71 -72 -102 -136 -18 -37 -36 -62 -41
-59 -6 4 -17 2 -24 -4 -9 -8 -19 -4 -36 14 -19 20 -25 40 -28 90 -4 57 -7 64
-28 69 -33 9 -102 -4 -108 -20 -8 -21 49 -28 76 -10 37 26 57 19 24 -8 -24
-20 -27 -28 -21 -55 3 -17 11 -33 16 -36 25 -16 4 -25 -48 -19 -185 19 -282
61 -299 129 -7 26 -5 28 20 21 21 -5 34 -1 57 18 16 14 45 30 64 37 19 7 35
16 35 21 0 7 -44 -7 -112 -36 -47 -20 -47 -20 -58 7 -8 20 -9 19 -9 -10 -1
-32 -14 -41 -37 -25 -15 10 -44 93 -44 126 0 15 9 40 19 55 17 24 25 54 46
188 3 18 22 51 42 75 20 24 44 61 54 83 19 41 26 140 10 149 -18 11 -18 61 0
184 10 70 17 170 17 222 -1 77 5 121 31 230 41 167 46 181 90 244 19 28 45 87
58 130 27 94 30 128 9 120 -10 -4 -21 6 -31 28 -10 18 -28 44 -40 58 -27 29
-45 88 -45 144 0 33 2 37 15 26 9 -7 34 -43 55 -79 49 -82 52 -64 5 27 -49 95
-77 130 -140 175 -55 39 -83 44 -53 10 19 -22 48 -135 48 -186 0 -26 4 -37 15
-37 8 0 15 6 15 12 0 21 25 -24 40 -70 7 -24 23 -50 34 -57 26 -19 16 -28 -18
-15 -77 29 -93 3 -76 -118 8 -60 7 -88 -10 -172 -10 -55 -22 -140 -26 -188 -9
-114 -19 -142 -28 -79 -4 25 -11 49 -17 52 -12 8 -11 65 3 144 10 52 14 60 19
41 5 -17 8 -5 10 40 4 90 1 125 -16 195 -16 65 -15 99 5 215 14 85 9 142 -20
205 -23 49 -24 59 -10 50 6 -3 10 -3 10 1 0 10 -41 44 -54 44 -6 0 -31 14 -56
31 -101 68 -156 89 -243 94 -62 4 -73 2 -47 -5 20 -5 57 -18 83 -29 26 -11 53
-19 60 -17 6 1 9 1 5 -1 -5 -3 18 -24 50 -47 32 -24 68 -56 80 -72 15 -20 21
-24 22 -13 0 25 -37 66 -86 95 -25 15 -42 29 -40 32 7 7 85 -27 110 -47 45
-39 69 -134 55 -221 -9 -56 -11 -59 -92 -123 -15 -12 -45 -51 -67 -87 -45 -77
-74 -106 -115 -115 l-30 -7 26 19 c67 47 144 166 83 128 -19 -12 -182 -2 -236
15 -21 6 -38 16 -38 22 0 6 7 7 18 3 33 -13 222 -19 222 -6 0 6 -15 11 -32 11
-18 0 -98 13 -177 29 -178 36 -220 61 -331 199 -47 58 -94 105 -125 124 -27
17 -53 37 -58 44 -4 7 -24 18 -45 24 -20 7 -66 29 -102 50 -137 82 -313 101
-539 59 -145 -26 -175 -38 -101 -38 32 0 89 10 135 24 215 67 478 -1 515 -133
9 -33 6 -42 -30 -104 -81 -136 -207 -190 -445 -192 -115 0 -136 2 -180 22 -27
13 -57 30 -67 39 -16 15 -18 15 -18 0 0 -18 40 -48 85 -66 30 -11 30 -11 -9
-6 -75 9 -103 54 -141 230 -10 44 -24 92 -31 107 -13 24 -13 28 8 42 12 9 29
16 37 16 8 0 43 16 78 36 49 27 86 39 156 50 119 18 330 17 432 -1 139 -26
313 -37 551 -36 200 1 242 -2 325 -20 52 -12 114 -25 139 -29 25 -4 72 -19
104 -34 33 -14 60 -25 62 -23 5 5 -186 180 -216 198 -27 17 -248 101 -416 158
-100 34 -156 38 -244 16z m288 -154 c12 -7 -20 -10 -108 -10 -121 1 -124 1
-80 15 49 14 159 11 188 -5z m-389 -255 c6 -7 29 -16 51 -20 38 -6 110 -55 81
-56 -11 0 -10 -5 4 -20 24 -27 18 -31 -34 -19 -53 12 -92 5 -150 -27 -24 -13
-48 -24 -53 -24 -14 0 10 39 53 85 44 48 49 72 17 85 -23 9 -23 9 -2 9 12 1
27 -5 33 -13z m-963 -182 c-19 -88 -65 -205 -85 -212 -19 -6 -9 45 33 173 18
55 39 120 47 145 l14 45 3 -38 c2 -21 -4 -72 -12 -113z m1164 5 c0 -5 -9 -1
-20 8 -11 10 -20 22 -20 27 0 5 9 1 20 -9 11 -10 20 -22 20 -26z m-52 1 c18
-11 39 -20 46 -20 8 0 16 -4 18 -8 4 -12 128 -103 174 -129 l39 -22 -30 -1
c-17 0 -41 7 -53 16 -29 20 -39 12 -24 -21 15 -32 94 -83 141 -91 70 -12 111
-25 111 -36 0 -18 -168 0 -217 23 -26 12 -57 41 -84 77 -43 57 -73 86 -113
109 -36 21 -39 14 -12 -21 37 -49 32 -64 -9 -27 -23 20 -46 31 -65 31 -17 0
-97 -22 -180 -50 -83 -27 -155 -50 -162 -50 -7 0 -38 -18 -69 -40 -32 -22 -68
-40 -81 -41 -20 0 -21 -1 -4 -8 15 -6 12 -10 -20 -24 -22 -9 -56 -19 -77 -23
-50 -9 -113 -39 -99 -48 6 -4 47 -12 92 -18 72 -11 86 -10 138 7 31 10 64 22
72 26 8 4 47 22 87 40 92 40 132 81 70 70 -25 -4 6 26 53 53 66 37 145 42 179
12 24 -22 28 -56 6 -56 -8 0 -15 -6 -15 -14 0 -8 -3 -21 -6 -30 -5 -12 0 -16
16 -16 l23 0 -24 -21 -24 -22 84 6 83 5 -25 -26 c-13 -15 -30 -37 -36 -49 -10
-20 -19 -23 -79 -23 -47 0 -84 7 -125 24 -54 23 -57 23 -52 5 8 -26 -16 -25
-35 1 -19 26 -22 26 -115 -15 -118 -51 -145 -53 -252 -16 -50 17 -95 31 -102
31 -24 0 -8 -16 44 -45 51 -27 69 -45 46 -45 -16 0 -155 52 -169 63 -9 7 -16
7 -24 -1 -8 -8 -3 -26 17 -67 25 -52 26 -58 11 -73 -15 -15 -16 -15 -16 3 0
11 -14 43 -30 70 -78 132 -12 223 209 285 334 95 530 169 472 178 -11 2 -43
-9 -71 -23 -32 -16 -64 -25 -83 -23 -30 3 -26 6 53 47 154 80 238 97 298 61z
m-1116 -182 c-10 -24 -22 -62 -26 -83 -4 -22 -15 -80 -25 -130 -11 -49 -25
-124 -32 -165 -9 -55 -14 -70 -20 -55 -11 30 -9 140 4 221 12 73 109 300 115
270 2 -8 -5 -35 -16 -58z m573 36 c-50 -19 -195 -50 -206 -43 -17 10 0 17 80
35 51 11 149 18 126 8z m-450 -81 c-3 -16 -17 -55 -31 -89 -18 -46 -24 -79
-24 -137 0 -49 -4 -77 -11 -77 -7 0 -10 45 -8 143 2 126 5 145 23 165 10 12
28 22 39 22 16 0 18 -5 12 -27z m30 -127 c-8 -85 -25 -112 -25 -40 0 46 19
128 28 120 2 -3 1 -39 -3 -80z m965 44 c0 -5 -5 -10 -11 -10 -5 0 -7 5 -4 10
3 6 8 10 11 10 2 0 4 -4 4 -10z m858 -51 c3 -66 -27 -133 -76 -166 -44 -29
-158 -48 -274 -45 -176 5 -264 -31 -390 -162 -43 -43 -81 -77 -84 -73 -3 3 0
30 6 59 10 42 23 62 59 96 55 52 80 66 146 81 43 10 53 18 73 52 l24 41 61 -7
c34 -3 99 -13 144 -22 45 -9 97 -13 117 -9 44 8 85 55 116 132 39 100 73 110
78 23z m-1338 -19 c0 -5 -10 -10 -22 -10 -19 0 -20 2 -8 10 19 13 30 13 30 0z
m663 -26 c10 -10 -70 -71 -109 -84 -31 -11 -38 -10 -53 5 -9 10 -12 19 -6 21
6 3 35 18 65 34 53 28 90 37 103 24z m698 -196 c-15 -67 -14 -135 3 -205 8
-32 16 -112 19 -178 4 -114 4 -118 -10 -75 -16 54 -32 205 -33 313 0 43 -5 88
-11 99 -13 24 5 158 25 190 9 16 11 9 14 -38 2 -31 -2 -79 -7 -106z m-978 92
c33 -5 64 -17 76 -29 15 -15 17 -21 7 -21 -8 0 -17 4 -20 9 -4 5 -25 12 -49
16 -23 4 -58 16 -77 27 -19 10 -25 16 -13 13 11 -3 46 -10 76 -15z m147 -86
c0 -2 -9 0 -20 6 -11 6 -20 13 -20 16 0 2 9 0 20 -6 11 -6 20 -13 20 -16z
m-37 -58 c26 -19 37 -46 18 -46 -5 0 -12 -8 -14 -17 -3 -12 -5 -10 -6 7 0 14
-12 37 -26 52 -42 46 -32 47 28 4z m-144 -7 c21 -62 7 -120 -17 -71 -12 23
-22 89 -15 96 13 12 21 5 32 -25z m968 -411 c-3 -8 -6 -5 -6 6 -1 11 2 17 5
13 3 -3 4 -12 1 -19z m107 -198 c-5 -111 -10 -149 -22 -163 -16 -17 -16 -17
-23 1 -13 35 -22 159 -14 208 7 47 20 49 28 4 2 -14 5 11 6 55 2 74 3 78 17
60 12 -17 14 -44 8 -165z m801 -1070 c5 -9 -44 -40 -64 -40 -17 0 0 31 23 40
28 12 34 12 41 0z"/>
<path d="M2970 4939 c-56 -15 -108 -40 -114 -55 -3 -9 9 -7 42 8 72 31 109 40
202 48 l85 7 -90 0 c-49 1 -106 -3 -125 -8z"/>
<path d="M1807 4888 c-27 -26 -36 -44 -42 -85 -4 -31 -3 -59 4 -70 9 -16 10
-16 11 6 0 45 23 101 57 141 43 50 20 55 -30 8z"/>
<path d="M3784 3488 c-5 -7 -9 -98 -9 -203 0 -156 -3 -195 -16 -220 -9 -16
-30 -55 -47 -86 -34 -60 -45 -119 -24 -126 17 -6 76 121 102 219 34 132 42
213 30 318 -12 97 -21 122 -36 98z"/>
<path d="M1998 3391 c-67 -10 -102 -30 -123 -71 -17 -33 -12 -58 9 -41 30 25
140 40 224 32 86 -9 121 -21 60 -21 -79 0 -318 -82 -318 -109 0 -27 44 -34
135 -22 49 6 128 10 175 9 47 -2 100 1 118 6 32 8 34 7 30 -15 -3 -24 -2 -24
67 -21 39 2 74 8 80 13 16 16 25 10 25 -16 0 -28 15 -34 24 -9 12 32 18 124
12 178 -9 65 0 61 -156 76 -156 16 -298 20 -362 11z"/>
<path d="M2958 3369 c-87 -4 -158 -13 -174 -21 -43 -21 -49 -56 -29 -173 21
-123 26 -135 55 -117 17 10 25 9 48 -7 52 -39 207 -91 267 -91 80 0 67 20 -31
47 -139 38 -247 78 -252 92 -4 11 5 13 47 7 28 -4 59 -10 68 -13 13 -5 15 -2
9 20 -8 32 1 34 67 11 40 -13 55 -14 98 -4 43 11 52 10 68 -4 22 -20 164 -25
186 -6 14 11 13 15 -2 33 -29 32 -148 84 -224 98 -38 7 -69 15 -69 19 0 11 94
20 208 20 92 0 102 2 102 18 0 24 -25 47 -73 67 -40 16 -117 17 -369 4z"/>
<path d="M2400 3103 c-14 -2 -65 -15 -115 -29 -59 -16 -117 -24 -167 -24 -84
0 -100 -11 -41 -31 77 -25 259 13 344 73 25 17 22 18 -21 11z"/>
<path d="M58 2933 c-57 -4 -58 -5 -58 -33 l0 -30 70 0 71 0 -37 -40 c-20 -21
-52 -44 -70 -50 -31 -11 -34 -15 -34 -51 0 -21 5 -39 11 -39 5 0 7 -5 4 -10
-4 -6 -8 -31 -10 -55 -3 -43 -2 -44 19 -33 67 35 110 93 209 281 l35 67 -76
-2 c-42 -1 -103 -3 -134 -5z"/>
<path d="M273 2877 c-11 -17 -45 -75 -74 -127 -29 -52 -61 -107 -71 -122 -28
-40 -2 -35 37 6 48 51 123 185 131 234 3 23 5 42 3 42 -2 0 -14 -15 -26 -33z"/>
<path d="M2462 2890 c-18 -29 -15 -38 4 -12 9 13 14 25 12 27 -2 2 -9 -5 -16
-15z"/>
<path d="M2830 2793 c0 -20 33 -120 52 -157 11 -22 43 -64 71 -94 71 -75 234
-205 247 -197 5 3 10 21 10 40 0 31 -9 41 -95 110 -110 89 -196 180 -235 250
-26 46 -50 69 -50 48z"/>
<path d="M255 2716 c-30 -61 -30 -85 0 -39 10 15 25 33 32 38 10 8 11 17 5 35
-8 22 -10 20 -37 -34z"/>
<path d="M1501 2733 c7 -10 28 -32 46 -50 27 -27 33 -29 33 -13 0 32 -11 50
-41 65 -39 21 -55 20 -38 -2z"/>
<path d="M1605 2707 c-4 -19 -5 -68 -3 -108 3 -66 1 -74 -15 -74 -12 0 -35
-28 -68 -80 -84 -136 -106 -185 -113 -255 -12 -120 -28 -190 -52 -226 -14 -20
-22 -44 -19 -53 8 -27 -36 -42 -150 -51 -55 -4 -127 -17 -160 -28 -133 -45
-161 -65 -136 -96 10 -11 8 -17 -6 -25 -14 -9 -10 -10 22 -6 22 3 33 2 25 -2
-8 -3 -49 -22 -90 -41 -66 -31 -174 -72 -188 -72 -3 0 3 9 13 20 18 20 17 20
-27 20 -25 0 -65 -7 -89 -15 -24 -9 -74 -20 -112 -25 -37 -6 -83 -16 -102 -24
-29 -12 -33 -19 -31 -43 4 -27 5 -28 60 -26 31 1 56 0 56 -2 0 -9 -387 -175
-409 -175 -7 0 -11 -32 -11 -97 l0 -97 45 44 c25 24 45 50 45 57 0 15 109 79
223 132 45 21 125 59 177 83 52 25 131 60 175 78 44 17 98 39 120 48 22 9 72
32 110 53 103 54 350 129 427 129 43 0 44 -2 24 -33 -17 -27 -36 -165 -36
-267 0 -92 27 -205 69 -288 28 -55 77 -109 89 -97 3 2 -9 31 -27 64 -64 120
-98 347 -71 475 10 51 20 67 64 111 28 29 68 57 88 64 29 10 40 21 56 59 11
26 23 74 27 107 4 33 14 76 23 95 l16 35 4 -49 c2 -26 -2 -79 -7 -117 -20
-128 -14 -263 18 -395 16 -65 35 -145 41 -177 10 -50 14 -56 27 -45 12 9 14
24 9 64 -3 29 -9 59 -12 68 -14 38 18 12 46 -36 25 -45 30 -64 30 -123 0 -41
-5 -76 -12 -83 -6 -6 -15 -37 -19 -68 -4 -31 -12 -60 -18 -63 -18 -11 -28 -84
-24 -176 2 -49 6 -100 8 -111 6 -26 33 -39 50 -24 8 7 16 7 19 2 14 -22 176
-85 176 -68 0 3 -20 19 -44 35 -81 56 -96 84 -53 100 12 5 31 19 42 31 11 13
35 29 53 37 32 13 43 37 20 46 -10 4 -10 7 0 18 11 12 15 12 25 -2 7 -9 21
-21 33 -27 44 -24 227 -52 394 -61 130 -7 194 -15 250 -32 95 -27 169 -21 229
19 71 48 201 172 201 192 0 11 -25 45 -55 77 -30 32 -55 61 -55 65 0 14 -20 8
-40 -12 -17 -17 -20 -33 -20 -108 0 -82 -2 -92 -28 -128 -47 -64 -53 -67 -119
-54 -32 5 -96 24 -143 40 -47 16 -99 30 -116 30 -45 0 -59 21 -40 59 9 16 16
35 16 41 0 20 -29 10 -53 -20 -34 -40 -59 -44 -184 -30 -174 20 -183 33 -28
40 84 5 142 12 165 23 l35 15 -70 1 c-84 1 -76 13 22 35 85 19 160 21 165 4 3
-7 41 10 100 44 53 30 136 69 185 88 86 33 175 86 302 182 35 26 68 48 73 48
29 0 -146 -174 -193 -193 -10 -4 -10 -6 -1 -6 35 -2 142 68 228 150 116 110
191 161 240 163 25 1 40 -5 48 -17 9 -15 6 -23 -21 -47 -17 -15 -64 -47 -105
-71 -88 -51 -214 -135 -222 -148 -9 -14 31 -1 83 27 112 60 184 93 196 88 18
-7 68 41 94 89 25 47 27 65 6 65 -9 0 -18 8 -22 18 -8 24 -54 72 -69 72 -7 0
-15 6 -17 13 -4 7 -6 8 -6 1 -1 -6 6 -17 14 -24 21 -17 19 -30 -5 -30 -12 0
-38 -9 -60 -20 -22 -11 -51 -20 -65 -20 -15 0 -25 -6 -25 -14 0 -8 -5 -18 -12
-22 -8 -5 -9 1 -5 22 4 20 0 36 -13 52 -26 32 -33 27 -25 -17 6 -37 5 -40 -52
-90 -68 -60 -170 -131 -188 -131 -10 0 -9 13 4 58 27 86 49 122 107 176 81 72
68 87 -21 25 -75 -51 -75 -52 -96 -123 -36 -125 -51 -159 -90 -201 -44 -47
-58 -42 -31 12 11 21 29 69 42 106 12 37 37 88 56 113 19 24 34 46 34 49 0 13
-22 2 -60 -30 -24 -20 -45 -33 -48 -31 -12 13 12 37 69 68 79 41 178 137 152
145 -7 3 9 31 37 65 45 56 70 111 56 125 -3 3 -57 -44 -121 -105 -180 -173
-304 -251 -423 -266 -55 -7 -194 5 -341 30 -46 8 -86 12 -89 9 -10 -10 36 -50
146 -122 61 -41 112 -81 112 -89 0 -24 -134 -22 -161 2 -8 8 -21 14 -28 14
-25 0 -136 119 -224 240 -50 69 -107 145 -127 170 -20 25 -54 67 -75 94 -41
51 -58 50 -31 -3 9 -16 16 -39 16 -49 0 -10 13 -37 29 -60 19 -25 29 -52 29
-71 -1 -46 41 -103 173 -232 66 -64 119 -120 119 -125 0 -5 -7 -18 -15 -28 -8
-11 -15 -28 -15 -38 0 -11 -7 -51 -16 -89 -14 -63 -20 -73 -56 -100 -51 -36
-130 -41 -170 -10 -32 26 -73 102 -94 180 -16 56 -16 65 -3 75 15 11 14 44 -2
61 -5 5 -9 21 -9 35 0 80 102 62 190 -35 28 -30 106 -85 121 -85 21 0 3 22
-100 123 -87 85 -116 107 -147 113 -36 7 -40 5 -76 -36 -42 -47 -43 -50 -27
-100 6 -19 12 -46 14 -60 8 -76 31 -168 67 -276 l41 -121 -22 -44 c-12 -24
-35 -60 -52 -79 l-31 -35 6 35 c4 19 9 67 11 105 l4 70 -18 -55 c-35 -108 -40
-105 -41 20 0 64 4 120 9 125 5 6 11 64 13 130 l3 120 -65 104 -64 103 -3 170
c-2 151 0 177 18 227 41 111 43 130 19 196 -54 148 -79 242 -104 395 -15 90
-29 166 -31 168 -2 2 -7 -12 -10 -31z m1294 -1294 c-27 -77 -54 -121 -66 -109
-6 5 22 98 37 128 12 22 50 68 56 68 2 0 -10 -39 -27 -87z m-349 -73 c0 -5
-12 -16 -27 -23 -36 -18 -193 -70 -198 -66 -9 10 10 61 27 70 44 24 198 39
198 19z m270 -45 c0 -11 -81 -54 -153 -80 -134 -48 -105 -12 40 50 73 31 113
42 113 30z"/>
<path d="M2325 2649 c-43 -45 -172 -139 -190 -139 -12 0 -75 -64 -75 -77 0 -7
-8 -13 -17 -14 -10 0 -13 -3 -7 -5 6 -3 68 29 137 71 156 94 258 196 211 212
-5 2 -32 -20 -59 -48z"/>
<path d="M2361 2516 c-11 -14 -11 -16 2 -16 8 0 43 -31 77 -70 34 -38 76 -78
94 -90 40 -24 120 -27 174 -5 38 16 175 152 167 166 -7 11 -99 29 -143 29 -20
-1 -59 -7 -87 -14 -39 -11 -50 -18 -50 -34 0 -36 -13 -36 -68 2 -63 43 -144
59 -166 32z"/>
<path d="M3455 2164 c-4 -124 -5 -248 -2 -274 7 -60 32 -110 92 -183 25 -31
52 -71 60 -89 l14 -33 1 44 c0 34 -12 67 -59 155 -33 61 -64 132 -70 157 -10
44 -6 89 8 89 4 0 22 -25 41 -55 48 -74 60 -71 60 15 0 94 -16 163 -55 240
-19 36 -41 86 -50 113 -9 26 -20 47 -25 47 -4 0 -11 -102 -15 -226z"/>
<path d="M4870 2350 c0 -5 5 -10 11 -10 5 0 7 5 4 10 -3 6 -8 10 -11 10 -2 0
-4 -4 -4 -10z"/>
<path d="M3060 2301 c0 -27 -69 -47 -214 -62 -125 -13 -438 -5 -551 14 -38 6
-94 11 -123 12 -28 0 -52 1 -52 3 0 2 5 12 10 23 13 24 5 25 -19 2 -24 -23
-41 -57 -41 -81 0 -17 11 -19 118 -25 64 -3 158 -14 207 -23 132 -26 338 -24
489 4 176 34 215 56 200 117 -8 32 -24 43 -24 16z"/>
<path d="M3625 2260 c4 -14 11 -149 15 -300 4 -151 8 -277 9 -279 0 -3 5 -1
11 5 32 32 74 419 51 474 -8 20 -10 5 -11 -70 0 -97 -26 -235 -30 -160 -11
266 -17 321 -35 338 -17 16 -17 16 -10 -8z"/>
<path d="M3187 2146 c-35 -71 -34 -78 3 -31 17 21 30 48 30 61 0 13 -2 24 -3
24 -2 0 -16 -24 -30 -54z"/>
<path d="M3860 2082 c0 -6 9 -29 20 -49 19 -35 20 -36 20 -11 0 25 -39 85 -40
60z"/>
<path d="M3068 1968 c-37 -49 -50 -94 -26 -86 14 5 71 115 66 128 -2 5 -20
-14 -40 -42z"/>
<path d="M2363 1984 c-46 -47 -4 -76 137 -93 73 -10 78 -9 165 26 129 51 157
65 148 74 -4 4 -102 10 -217 12 l-209 5 -24 -24z"/>
<path d="M3326 1835 c-4 -11 -12 -30 -17 -43 -5 -12 -12 -47 -15 -78 -6 -48
-5 -54 10 -48 9 4 16 17 16 34 0 15 5 41 11 58 12 36 8 110 -5 77z"/>
<path d="M1507 1731 c-19 -32 -23 -76 -8 -86 6 -3 13 11 16 32 3 21 8 48 11
61 6 29 2 28 -19 -7z"/>
<path d="M1837 1698 c-2 -29 -8 -64 -12 -78 l-8 -25 22 27 c15 19 21 40 21 77
0 67 -17 66 -23 -1z"/>
<path d="M3345 1660 c-3 -6 1 -13 10 -16 19 -8 30 0 20 15 -8 14 -22 14 -30 1z"/>
<path d="M4011 1616 c11 -24 51 -42 69 -31 18 11 10 23 -24 39 -48 23 -58 21
-45 -8z"/>
<path d="M1821 1574 c0 -11 3 -14 6 -6 3 7 2 16 -1 19 -3 4 -6 -2 -5 -13z"/>
<path d="M661 1406 c-8 -9 -11 -19 -7 -23 9 -9 29 13 24 27 -2 8 -8 7 -17 -4z"/>
<path d="M3384 1279 c-33 -26 -39 -37 -41 -72 -1 -23 2 -46 6 -52 5 -5 30 -68
57 -140 26 -71 51 -134 56 -139 4 -6 8 16 8 48 0 44 -9 81 -39 154 -58 146
-60 157 -20 198 41 42 25 44 -27 3z"/>
<path d="M3130 1255 c0 -8 53 -54 63 -55 16 0 6 30 -15 44 -22 16 -48 21 -48
11z"/>
<path d="M880 1240 c0 -29 200 -206 340 -300 49 -33 94 -68 102 -77 7 -10 23
-18 36 -19 81 -2 82 -3 81 -31 -2 -24 -2 -25 -6 -5 -5 24 -33 31 -33 7 0 -8
-4 -15 -10 -15 -5 0 -10 7 -10 15 0 9 -9 15 -25 15 -25 0 -25 -1 -10 -30 8
-16 15 -35 15 -43 0 -16 21 -27 52 -27 16 0 19 -5 14 -22 -3 -13 -6 -26 -6
-30 0 -5 -4 -8 -9 -8 -5 0 -7 9 -4 20 4 14 0 20 -10 20 -9 0 -18 -8 -20 -17
-4 -14 -5 -12 -6 5 -2 36 -19 25 -31 -19 -16 -58 -4 -64 61 -34 30 13 67 25
82 25 15 0 62 -18 103 -40 42 -22 89 -40 104 -40 16 0 32 -4 35 -10 3 -5 15
-10 25 -10 13 0 23 -13 32 -42 12 -34 20 -44 44 -49 16 -3 39 -11 51 -17 42
-23 41 -12 -1 31 -51 49 -72 85 -59 98 17 17 41 -1 57 -42 15 -38 63 -77 122
-99 37 -14 20 10 -38 55 -27 20 -48 40 -48 45 0 6 18 10 39 10 78 0 135 -89
161 -253 13 -78 13 -78 51 -94 22 -8 39 -19 39 -24 0 -13 24 -11 45 5 15 11
17 17 7 28 -15 18 13 62 34 54 8 -3 14 1 14 8 0 8 10 20 22 28 22 15 23 16 6
51 -21 44 -123 126 -255 204 -93 55 -108 61 -195 72 -145 20 -185 35 -263 96
-115 91 -183 153 -212 195 -19 26 -33 38 -44 34 -18 -5 -49 20 -49 39 0 13
-46 52 -100 84 -19 11 -64 26 -100 33 -78 15 -83 17 -159 80 -62 52 -71 57
-71 40z"/>
<path d="M3490 1232 c-35 -5 -50 -22 -19 -22 24 0 58 16 49 22 -3 2 -16 2 -30
0z"/>
<path d="M1701 1165 c2 -97 16 -135 18 -45 0 41 -4 82 -9 90 -7 11 -9 -3 -9
-45z"/>
<path d="M3034 1198 c-4 -7 -2 -14 6 -16 20 -7 68 -62 85 -99 34 -70 58 -41
26 31 -32 74 -95 119 -117 84z"/>
<path d="M2865 1184 c-45 -23 -93 -62 -112 -90 -25 -39 -46 -143 -32 -160 16
-20 29 -17 29 6 0 12 7 49 16 84 19 75 56 125 116 155 24 11 36 21 28 21 -8 0
-28 -7 -45 -16z"/>
<path d="M3247 1194 c-3 -5 -8 -62 -12 -126 l-7 -118 25 -9 c43 -16 37 -26
-15 -27 -31 0 -53 -6 -59 -15 -13 -20 -11 -29 6 -29 8 0 14 -6 13 -12 -2 -10
19 -13 79 -13 45 0 86 -4 91 -10 5 -5 12 -23 16 -39 7 -28 6 -29 -25 -22 -17
3 -67 6 -111 6 l-80 0 6 34 c8 43 -13 65 -36 38 -56 -63 -56 -138 -3 -291 38
-107 43 -116 93 -159 30 -25 64 -66 76 -91 l23 -45 28 118 c26 115 27 119 10
163 -17 44 -30 47 -37 9 -2 -14 -17 -2 -63 53 -33 39 -63 71 -66 71 -3 0 7
-25 23 -56 31 -62 38 -124 14 -124 -36 0 -86 129 -86 221 1 49 2 52 15 35 11
-14 34 -22 82 -28 85 -10 109 -31 125 -110 7 -32 15 -58 19 -58 4 0 12 30 18
68 6 37 15 89 21 115 12 58 -1 94 -50 150 -18 20 -37 54 -42 75 -8 30 -23 148
-27 210 -1 7 -5 10 -11 7 -6 -3 -10 -53 -10 -113 -1 -99 -2 -105 -16 -87 -13
16 -15 37 -10 105 5 76 -3 126 -17 104z"/>
<path d="M3515 1160 c-9 -14 4 -70 16 -70 5 0 9 14 9 30 0 17 0 33 1 37 1 12
-19 15 -26 3z"/>
<path d="M2624 1025 c-17 -31 -17 -37 -4 -45 23 -15 25 -13 26 35 1 25 1 45
-1 45 -1 0 -10 -16 -21 -35z"/>
<path d="M3195 930 c-3 -5 1 -10 10 -10 9 0 13 5 10 10 -3 6 -8 10 -10 10 -2
0 -7 -4 -10 -10z"/>
<path d="M3796 878 c-48 -45 -93 -121 -76 -126 21 -7 139 100 132 121 -1 4 2
17 8 27 19 35 -15 23 -64 -22z"/>
<path d="M3624 888 c-52 -41 -76 -72 -106 -135 -39 -82 -31 -101 12 -30 19 32
37 52 41 46 9 -15 35 0 82 49 62 63 37 121 -29 70z"/>
<path d="M1991 775 c0 -22 6 -51 14 -65 18 -32 19 -10 1 55 l-14 50 -1 -40z"/>
<path d="M902 720 c-16 -26 -15 -62 3 -86 13 -17 14 -14 15 44 0 34 -1 62 -3
62 -1 0 -8 -9 -15 -20z"/>
<path d="M960 690 c0 -11 7 -20 15 -20 8 0 15 9 15 20 0 11 -7 20 -15 20 -8 0
-15 -9 -15 -20z"/>
<path d="M3280 693 c0 -5 9 -19 20 -33 11 -14 20 -33 20 -43 0 -10 4 -16 10
-12 9 6 7 15 -12 68 -9 24 -38 39 -38 20z"/>
<path d="M2593 665 c-7 -8 -13 -20 -13 -28 0 -11 7 -12 35 -3 19 6 35 15 35
19 0 5 -5 5 -11 2 -6 -4 -16 0 -22 8 -10 14 -14 14 -24 2z"/>
<path d="M2721 599 c-11 -18 -28 -67 -37 -109 -18 -85 -33 -130 -43 -130 -3 0
-17 24 -31 52 -14 28 -31 54 -39 56 -11 4 -12 0 -6 -14 5 -11 11 -43 13 -72 5
-73 -30 -132 -100 -168 -36 -18 -47 -29 -40 -36 14 -14 84 5 124 34 l27 19 0
-33 c0 -18 4 -49 10 -68 6 -19 11 -56 11 -82 l0 -48 115 0 c109 0 115 1 115
20 0 17 -5 19 -24 14 -32 -8 -105 32 -112 62 -8 31 27 103 70 143 20 19 36 39
36 44 0 4 -23 -13 -51 -40 -35 -33 -54 -60 -62 -90 -14 -53 -31 -51 -35 4 -3
39 0 43 98 142 55 55 100 106 100 111 0 6 5 10 10 10 6 0 10 -6 10 -14 0 -27
20 -28 50 -2 17 14 53 37 80 52 28 15 48 29 45 32 -10 11 -92 2 -149 -15 -40
-12 -65 -27 -80 -47 -11 -15 -51 -60 -87 -100 -36 -39 -69 -79 -72 -89 -4 -9
-11 -17 -17 -17 -17 0 -11 40 15 106 27 67 87 295 80 302 -2 2 -13 -11 -24
-29z"/>
<path d="M1283 555 c-9 -25 2 -27 22 -5 17 18 17 20 1 20 -9 0 -19 -7 -23 -15z"/>
<path d="M2777 478 c-37 -77 -33 -107 4 -35 17 32 29 66 27 75 -2 10 -14 -5
-31 -40z"/>
<path d="M1525 446 c-64 -21 -68 -24 -42 -31 15 -4 44 -4 65 -1 20 4 47 7 60
7 16 1 22 5 18 16 -3 8 -6 19 -6 24 0 13 -17 11 -95 -15z"/>
<path d="M1647 444 c-3 -3 9 -22 26 -41 20 -21 39 -59 49 -96 10 -34 28 -86
40 -116 19 -49 20 -59 10 -110 -16 -75 -15 -81 6 -81 12 0 24 17 37 53 17 43
25 53 47 55 23 3 28 -2 37 -35 6 -21 11 -46 11 -55 0 -16 10 -18 80 -18 52 0
80 4 80 11 0 6 -14 29 -31 51 -31 38 -106 83 -181 107 -36 12 -55 27 -46 36 2
3 29 -5 59 -16 30 -12 112 -38 182 -59 70 -21 133 -42 140 -48 7 -5 30 -15 52
-22 66 -20 125 -45 125 -52 0 -5 23 -8 51 -8 l51 0 -6 36 c-6 31 -5 35 11 32
12 -2 19 -14 21 -36 2 -24 8 -32 23 -32 15 0 19 7 19 36 0 21 9 49 21 66 26
36 20 44 -18 25 -52 -27 -80 -28 -135 -7 -64 24 -61 24 -48 0 6 -11 17 -20 25
-20 17 0 19 -18 6 -39 -7 -11 -18 -10 -65 8 -31 11 -67 27 -79 35 -12 8 -101
40 -197 72 l-175 59 65 6 c92 8 160 58 129 95 -10 13 -15 12 -34 -6 -14 -13
-35 -20 -61 -20 -22 0 -34 4 -27 8 30 19 -45 55 -148 71 -36 6 -78 21 -100 36
-42 27 -43 28 -52 19z m258 -109 c29 -13 30 -13 5 -14 -14 -1 -36 -4 -50 -6
-22 -5 -22 -4 -5 4 17 8 18 10 3 10 -10 1 -18 6 -18 11 0 14 29 12 65 -5z"/>
<path d="M1815 432 c13 -12 146 -62 165 -62 21 1 -99 56 -140 65 -23 5 -31 4
-25 -3z"/>
<path d="M3010 407 c-45 -15 -62 -26 -55 -36 4 -8 75 7 118 24 10 4 17 3 17
-4 0 -6 -12 -13 -27 -17 -16 -3 -44 -11 -63 -18 -19 -7 -40 -11 -46 -9 -7 2
-13 -23 -17 -69 -4 -41 -20 -115 -37 -165 -16 -51 -30 -97 -30 -103 0 -5 11
-10 24 -10 19 0 24 6 29 33 10 61 35 107 64 118 15 6 52 9 80 6 42 -4 57 -2
75 13 13 10 21 20 18 22 -3 3 -42 22 -87 43 -75 34 -88 46 -97 84 -2 10 208
-2 226 -12 32 -19 18 -100 -33 -194 -23 -43 -49 -86 -57 -95 -14 -17 -13 -18
16 -18 17 0 33 6 35 13 4 9 6 9 6 0 2 -29 30 -11 37 22 8 46 28 46 21 0 -5
-32 -3 -35 17 -35 22 0 25 7 42 115 16 104 16 116 2 132 -9 10 -19 28 -23 41
-27 89 -160 151 -255 119z"/>
<path d="M1127 385 c-18 -13 -18 -15 -1 -44 14 -24 21 -28 35 -20 10 5 25 9
33 9 13 0 14 -5 6 -26 -6 -14 -10 -33 -10 -42 1 -14 3 -14 18 4 25 30 116 39
178 18 25 -8 62 -16 81 -17 27 -2 33 -6 29 -19 -9 -39 18 -15 79 67 16 22 34
43 39 46 12 9 0 39 -16 39 -15 0 -73 -50 -79 -69 -3 -9 -23 -5 -74 15 -40 15
-103 29 -149 33 -72 6 -79 5 -86 -13 -7 -19 -8 -19 -34 7 -15 15 -28 27 -29
27 -1 0 -10 -7 -20 -15z"/>
<path d="M2533 355 c0 -22 2 -30 4 -17 2 12 2 30 0 40 -3 9 -5 -1 -4 -23z"/>
<path d="M2390 369 c0 -22 68 -79 95 -79 33 0 25 13 -25 41 -22 13 -40 26 -40
30 0 4 -7 9 -15 13 -8 3 -15 1 -15 -5z"/>
<path d="M1075 360 c-3 -5 1 -10 10 -10 9 0 13 5 10 10 -3 6 -8 10 -10 10 -2
0 -7 -4 -10 -10z"/>
<path d="M1025 330 c-20 -22 -12 -91 8 -71 14 14 57 14 57 0 0 -8 5 -7 15 1
14 11 13 14 -7 24 -13 6 -24 21 -26 33 -4 29 -27 35 -47 13z"/>
<path d="M1090 330 c-12 -7 -12 -12 -2 -22 14 -14 35 1 24 19 -5 8 -13 9 -22
3z"/>
<path d="M3831 319 c-13 -5 -38 -16 -55 -24 -64 -30 -120 -45 -167 -45 -27 0
-49 -3 -49 -8 0 -15 62 -34 95 -29 43 7 275 99 275 110 0 10 -70 8 -99 -4z"/>
<path d="M1613 283 c-7 -3 -13 -9 -13 -13 0 -5 -11 -26 -25 -46 -31 -45 -31
-56 -4 -52 19 3 26 10 46 47 1 2 18 -7 38 -19 39 -24 50 -22 41 7 -9 27 -69
81 -83 76z"/>
<path d="M965 269 c-4 -6 -4 -13 -1 -16 8 -8 36 5 36 17 0 13 -27 13 -35 -1z"/>
<path d="M974 226 c-3 -8 -4 -27 -2 -43 l3 -28 23 38 c12 21 22 40 22 43 0 11
-41 2 -46 -10z"/>
<path d="M0 110 c0 -10 8 -24 18 -30 16 -11 16 -11 0 -6 -15 4 -18 -1 -18 -33
l0 -38 130 -2 c85 -1 130 2 130 9 0 19 -93 70 -173 95 -93 30 -87 29 -87 5z"/>
<path d="M3730 113 c-83 -10 -335 -65 -347 -74 -7 -6 -19 -9 -27 -6 -14 5 -36
-10 -36 -25 0 -13 92 -9 135 7 22 8 54 14 70 13 27 -1 27 -1 5 -5 -14 -3 -29
-9 -35 -14 -5 -5 38 -9 111 -9 66 0 124 4 130 10 5 5 45 13 88 16 45 4 83 13
92 21 18 19 34 8 34 -23 0 -15 6 -24 15 -24 8 0 15 9 15 20 0 11 -7 23 -15 26
-8 4 -15 10 -15 15 0 13 43 11 81 -5 46 -18 127 -28 134 -16 9 14 -68 46 -140
59 -72 12 -246 21 -295 14z"/>
<path d="M2563 35 c0 -22 2 -30 4 -17 2 12 2 30 0 40 -3 9 -5 -1 -4 -23z"/>
<path d="M3058 45 c-22 -28 -23 -45 -4 -45 7 0 16 14 20 32 8 40 5 42 -16 13z"/>
<path d="M1245 27 c-4 -10 -5 -21 -1 -24 10 -10 18 4 13 24 -4 17 -4 17 -12 0z"/>
<path d="M4683 29 c-64 -18 -34 -29 82 -29 115 0 143 10 89 30 -31 12 -128 11
-171 -1z"/>
</g>
</svg>
